<?xml version="1.0" standalone="no"?>
<!DOCTYPE svg PUBLIC "-//W3C//DTD SVG 1.1//EN" "http://www.w3.org/Graphics/SVG/1.1/DTD/svg11.dtd" >
<svg xmlns="http://www.w3.org/2000/svg" xmlns:xlink="http://www.w3.org/1999/xlink" version="1.1">
<metadata>
Created by FontForge 20160405 at Mon Jul 24 19:43:43 2017
 By www-data
Typeface (c) (your company). 2014. All Rights Reserved
</metadata>
<defs>
<font id="unand-font" horiz-adv-x="0" >
  <font-face 
    font-family="unand-font"
    font-weight="400"
    font-stretch="normal"
    units-per-em="2048"
    panose-1="2 0 5 0 0 0 0 0 0 0"
    ascent="1638"
    descent="-410"
    x-height="1087"
    cap-height="1462"
    bbox="-342 -506 2400 1907"
    underline-thickness="150"
    underline-position="-442"
    unicode-range="U+001D-F2FF"
  />
<missing-glyph horiz-adv-x="1024" 
d="M100 0v1434h824v-1434h-824zM150 50h724v1334h-724v-1334zM325 1148q31 28 58 43q53 30 112 30q92 0 148 -47.5t56 -127.5q0 -49 -23 -98.5t-87 -129.5q-63 -80 -99 -132t-36 -99q0 -38 24 -133h-32q-35 97 -35 148q0 76 81.5 218t81.5 217q0 57 -33 90t-91 33
q-38 0 -69 -17q-26 -15 -56 -40v45zM389 334l57 58q11 10 20 10q10 0 22 -11l56 -60q9 -11 9 -20q0 -11 -10 -22l-56 -62q-14 -14 -21 -14q-11 0 -20 10l-61 71q-7 9 -7 18q0 10 11 22z" />
    <glyph glyph-name=".notdef" horiz-adv-x="1024" 
d="M100 0v1434h824v-1434h-824zM150 50h724v1334h-724v-1334zM325 1148q31 28 58 43q53 30 112 30q92 0 148 -47.5t56 -127.5q0 -49 -23 -98.5t-87 -129.5q-63 -80 -99 -132t-36 -99q0 -38 24 -133h-32q-35 97 -35 148q0 76 81.5 218t81.5 217q0 57 -33 90t-91 33
q-38 0 -69 -17q-26 -15 -56 -40v45zM389 334l57 58q11 10 20 10q10 0 22 -11l56 -60q9 -11 9 -20q0 -11 -10 -22l-56 -62q-14 -14 -21 -14q-11 0 -20 10l-61 71q-7 9 -7 18q0 10 11 22z" />
    <glyph glyph-name=".null" 
 />
    <glyph glyph-name=".null" 
 />
    <glyph glyph-name="nonmarkingreturn" horiz-adv-x="508" 
 />
    <glyph glyph-name="space" unicode=" " horiz-adv-x="508" 
 />
    <glyph glyph-name="space" unicode="&#xa0;" horiz-adv-x="508" 
 />
    <glyph glyph-name="exclam" unicode="!" horiz-adv-x="492" 
d="M276 377h-61l-29 1085h119zM164 78q0 98 80 98q82 0 82 -98t-82 -98q-80 0 -80 98z" />
    <glyph glyph-name="quotedbl" unicode="&#x22;" horiz-adv-x="723" 
d="M260 1462l-33 -528h-61l-33 528h127zM590 1462l-33 -528h-61l-33 528h127z" />
    <glyph glyph-name="numbersign" unicode="#" horiz-adv-x="1323" 
d="M967 928l-76 -398h303v-79h-320l-86 -451h-90l88 451h-360l-86 -451h-88l86 451h-283v79h299l76 398h-297v80h311l86 454h91l-89 -454h365l88 454h86l-88 -454h285v-80h-301zM440 530h363l78 398h-363z" />
    <glyph glyph-name="dollar" unicode="$" horiz-adv-x="1169" 
d="M991 440q0 -133 -99 -217t-274 -106v-236h-81v232q-92 2 -200.5 22.5t-172.5 50.5v103q75 -36 179.5 -61t193.5 -25v508q-145 44 -215 88t-102 104t-32 146q0 124 94.5 208.5t254.5 104.5v192h81v-190q197 -9 351 -72l-33 -90q-141 62 -318 72v-486q213 -66 293 -144
t80 -204zM881 444q0 85 -63 140.5t-200 95.5v-471q122 13 192.5 75t70.5 160zM297 1049q0 -86 57 -141t183 -93v453q-119 -16 -179.5 -76t-60.5 -143z" />
    <glyph glyph-name="percent" unicode="%" horiz-adv-x="1653" 
d="M211 1026q0 -186 45 -279.5t141 -93.5q193 0 193 373q0 184 -49.5 276.5t-143.5 92.5q-96 0 -141 -92.5t-45 -276.5zM688 1026q0 -226 -75 -343.5t-216 -117.5q-133 0 -208.5 120.5t-75.5 340.5q0 223 72 340t212 117q139 0 215 -120.5t76 -336.5zM1063 438
q0 -185 45 -277.5t141 -92.5q193 0 193 370q0 369 -193 369q-96 0 -141 -91.5t-45 -277.5zM1540 438q0 -226 -74 -343.5t-215 -117.5q-136 0 -211 121.5t-75 339.5q0 225 73.5 341t212.5 116q137 0 213 -120t76 -337zM1280 1462l-811 -1462h-96l811 1462h96z" />
    <glyph glyph-name="ampersand" unicode="&#x26;" horiz-adv-x="1460" 
d="M123 371q0 138 73.5 235t274.5 205l-75 82q-66 71 -98 139t-32 142q0 143 95.5 227t256.5 84q155 0 245.5 -81t90.5 -224q0 -105 -70 -192.5t-253 -194.5l452 -457q61 72 104 157t75 201h96q-63 -246 -209 -426l266 -268h-135l-193 197q-92 -90 -164 -131.5t-157.5 -63.5
t-194.5 -22q-209 0 -328.5 103t-119.5 288zM578 70q128 0 234.5 43.5t209.5 146.5l-483 485q-136 -72 -196.5 -122.5t-88 -109.5t-27.5 -138q0 -143 93 -224t258 -81zM373 1176q0 -79 40 -146t152 -174q159 85 221 159t62 169q0 94 -62 152.5t-168 58.5q-114 0 -179.5 -58
t-65.5 -161z" />
    <glyph glyph-name="quotesingle" unicode="'" horiz-adv-x="393" 
d="M260 1462l-33 -528h-61l-33 528h127z" />
    <glyph glyph-name="parenleft" unicode="(" horiz-adv-x="557" 
d="M82 561q0 265 77.5 496t223.5 405h113q-148 -182 -227 -412.5t-79 -486.5q0 -483 304 -887h-111q-147 170 -224 397t-77 488z" />
    <glyph glyph-name="parenright" unicode=")" horiz-adv-x="557" 
d="M475 561q0 -263 -77.5 -490t-223.5 -395h-111q304 404 304 887q0 257 -79 487.5t-227 411.5h113q147 -175 224 -406.5t77 -494.5z" />
    <glyph glyph-name="asterisk" unicode="*" horiz-adv-x="1128" 
d="M631 1556l-37 -405l405 104l21 -131l-395 -39l247 -340l-124 -71l-191 379l-180 -379l-125 71l242 340l-390 39l19 131l401 -104l-39 405h146z" />
    <glyph glyph-name="plus" unicode="+" horiz-adv-x="1169" 
d="M625 764h434v-82h-434v-432h-82v432h-432v82h432v434h82v-434z" />
    <glyph glyph-name="comma" unicode="," horiz-adv-x="440" 
d="M295 238l12 -21q-75 -265 -174 -481h-65q77 275 110 502h117z" />
    <glyph glyph-name="hyphen" unicode="-" horiz-adv-x="659" 
d="M92 512v82h475v-82h-475z" />
    <glyph glyph-name="hyphen" unicode="&#xad;" horiz-adv-x="659" 
d="M92 512v82h475v-82h-475z" />
    <glyph glyph-name="period" unicode="." horiz-adv-x="487" 
d="M162 78q0 98 80 98q82 0 82 -98t-82 -98q-80 0 -80 98z" />
    <glyph glyph-name="slash" unicode="/" horiz-adv-x="698" 
d="M674 1462l-545 -1462h-104l544 1462h105z" />
    <glyph glyph-name="zero" unicode="0" horiz-adv-x="1169" 
d="M1055 735q0 -385 -117.5 -570t-355.5 -185q-229 0 -348 190.5t-119 564.5q0 382 115.5 566t351.5 184q231 0 352 -190.5t121 -559.5zM223 735q0 -340 89 -502.5t270 -162.5q189 0 275.5 168t86.5 497q0 324 -86.5 492t-275.5 168t-274 -168t-85 -492z" />
    <glyph glyph-name="one" unicode="1" horiz-adv-x="1169" 
d="M682 0h-98v1065q0 145 12 301q-15 -15 -31 -29t-309 -243l-57 71l397 297h86v-1462z" />
    <glyph glyph-name="two" unicode="2" horiz-adv-x="1169" 
d="M1028 0h-915v88l389 406q164 170 230 260t97 172t31 172q0 131 -86 213t-223 82q-183 0 -350 -133l-54 69q183 154 406 154q191 0 300.5 -102t109.5 -281q0 -145 -73.5 -280.5t-268.5 -334.5l-375 -385v-4h782v-96z" />
    <glyph glyph-name="three" unicode="3" horiz-adv-x="1169" 
d="M979 1118q0 -136 -85.5 -229t-229.5 -119v-6q176 -22 268 -112t92 -242q0 -205 -139.5 -317.5t-401.5 -112.5q-223 0 -389 83v99q84 -44 188.5 -69t196.5 -25q221 0 332 89.5t111 252.5q0 145 -113.5 223t-333.5 78h-158v96h160q182 0 288.5 86.5t106.5 234.5
q0 122 -86.5 195.5t-226.5 73.5q-109 0 -199 -30.5t-202 -104.5l-49 67q85 71 205 112.5t243 41.5q202 0 312 -95.5t110 -269.5z" />
    <glyph glyph-name="four" unicode="4" horiz-adv-x="1169" 
d="M1141 373h-252v-373h-94v373h-752v67l725 1030h121v-1011h252v-86zM795 459v418q0 302 14 507h-8q-20 -37 -123 -188l-516 -737h633z" />
    <glyph glyph-name="five" unicode="5" horiz-adv-x="1169" 
d="M537 879q234 0 368.5 -113t134.5 -311q0 -225 -140 -350t-386 -125q-109 0 -207 21.5t-164 61.5v103q108 -55 192 -76.5t179 -21.5q192 0 308 101.5t116 274.5q0 163 -113 256t-307 93q-130 0 -272 -39l-60 39l58 669h704v-96h-610l-45 -516q156 29 244 29z" />
    <glyph glyph-name="six" unicode="6" horiz-adv-x="1169" 
d="M131 623q0 285 77.5 479.5t220 288.5t343.5 94q94 0 172 -23v-88q-73 27 -176 27q-247 0 -384.5 -178t-154.5 -518h13q76 98 174 148t207 50q205 0 320.5 -117t115.5 -323q0 -224 -121.5 -353.5t-327.5 -129.5q-222 0 -350.5 169.5t-128.5 473.5zM610 68q164 0 255 103
t91 294q0 168 -90 262t-245 94q-102 0 -189.5 -45t-139.5 -119.5t-52 -152.5q0 -111 49.5 -213.5t134 -162.5t186.5 -60z" />
    <glyph glyph-name="seven" unicode="7" horiz-adv-x="1169" 
d="M334 0l602 1366h-827v96h946v-73l-604 -1389h-117z" />
    <glyph glyph-name="eight" unicode="8" horiz-adv-x="1169" 
d="M582 1487q186 0 299.5 -95t113.5 -257q0 -112 -70.5 -198t-228.5 -159q192 -79 270 -173t78 -228q0 -181 -126.5 -289t-339.5 -108q-221 0 -339 101t-118 294q0 131 83 230t257 169q-161 76 -227 160.5t-66 202.5q0 105 53 184.5t148.5 122.5t212.5 43zM223 360
q0 -138 93.5 -214t261.5 -76q164 0 264 80.5t100 218.5q0 124 -78.5 201.5t-302.5 162.5q-184 -71 -261 -157t-77 -216zM580 1397q-141 0 -226.5 -69.5t-85.5 -190.5q0 -70 31.5 -123.5t91 -97t199.5 -101.5q163 63 234 139t71 183q0 120 -84.5 190t-230.5 70z" />
    <glyph glyph-name="nine" unicode="9" horiz-adv-x="1169" 
d="M1036 842q0 -288 -75.5 -482t-220 -287t-349.5 -93q-104 0 -192 26v86q43 -14 103.5 -21.5t92.5 -7.5q247 0 387 178.5t156 520.5h-12q-73 -96 -174 -147.5t-211 -51.5q-203 0 -316.5 112t-113.5 318q0 220 124.5 356t323.5 136q144 0 252 -75.5t166.5 -221.5t58.5 -346z
M559 1397q-158 0 -252 -106.5t-94 -291.5q0 -174 87 -264t249 -90q101 0 188.5 45t139 119.5t51.5 151.5q0 117 -46.5 219t-130 159.5t-192.5 57.5z" />
    <glyph glyph-name="colon" unicode=":" horiz-adv-x="487" 
d="M162 78q0 98 80 98q82 0 82 -98t-82 -98q-80 0 -80 98zM162 971q0 98 80 98q82 0 82 -98q0 -53 -23.5 -76t-58.5 -23q-34 0 -57 23t-23 76z" />
    <glyph glyph-name="semicolon" unicode=";" horiz-adv-x="487" 
d="M303 238l12 -21q-75 -265 -174 -481h-65q29 97 62 245.5t48 256.5h117zM162 971q0 98 80 98q82 0 82 -98q0 -53 -23.5 -76t-58.5 -23q-34 0 -57 23t-23 76z" />
    <glyph glyph-name="semicolon" unicode="&#x37e;" horiz-adv-x="487" 
d="M303 238l12 -21q-75 -265 -174 -481h-65q29 97 62 245.5t48 256.5h117zM162 971q0 98 80 98q82 0 82 -98q0 -53 -23.5 -76t-58.5 -23q-34 0 -57 23t-23 76z" />
    <glyph glyph-name="less" unicode="&#x3c;" horiz-adv-x="1169" 
d="M1059 266l-948 416v61l948 474v-95l-823 -405l823 -355v-96z" />
    <glyph glyph-name="equal" unicode="=" horiz-adv-x="1169" 
d="M111 885v82h948v-82h-948zM111 477v82h948v-82h-948z" />
    <glyph glyph-name="greater" unicode="&#x3e;" horiz-adv-x="1169" 
d="M111 362l823 355l-823 405v95l948 -474v-61l-948 -416v96z" />
    <glyph glyph-name="question" unicode="?" horiz-adv-x="862" 
d="M293 377v37q0 123 37.5 201t138.5 167l91 79q72 61 103 121t31 138q0 127 -83.5 202t-219.5 75q-79 0 -148 -17.5t-149 -56.5l-37 80q110 48 184.5 64t153.5 16q183 0 288 -98.5t105 -270.5q0 -68 -18 -119t-50.5 -94.5t-78.5 -84t-102 -87.5q-64 -54 -98.5 -98.5
t-50 -93.5t-15.5 -146v-14h-82zM260 78q0 98 80 98q82 0 82 -98t-82 -98q-80 0 -80 98z" />
    <glyph glyph-name="at" unicode="@" horiz-adv-x="1815" 
d="M1702 725q0 -228 -90.5 -366t-245.5 -138q-89 0 -144.5 54t-64.5 147h-4q-43 -100 -124 -150.5t-189 -50.5q-148 0 -229 96.5t-81 270.5q0 202 120.5 330.5t314.5 128.5q138 0 286 -41l-22 -464v-30q0 -104 35 -156.5t116 -52.5q103 0 168.5 116.5t65.5 303.5
q0 194 -79 340t-225.5 224.5t-334.5 78.5q-230 0 -405.5 -99.5t-270 -281.5t-94.5 -418q0 -322 167 -497.5t474 -175.5q93 0 188.5 18t231.5 70v-99q-203 -80 -414 -80q-349 0 -544 200.5t-195 557.5q0 256 108.5 460.5t307 317.5t448.5 113q215 0 380.5 -89t255 -254.5
t89.5 -383.5zM633 590q0 -143 55 -215t174 -72q255 0 273 346l16 291q-79 27 -193 27q-149 0 -237 -102.5t-88 -274.5z" />
    <glyph glyph-name="A" unicode="A" horiz-adv-x="1229" 
d="M911 516h-594l-204 -516h-113l588 1468h65l576 -1468h-115zM354 608h523l-199 527q-25 62 -60 172q-27 -96 -59 -174z" />
    <glyph glyph-name="B" unicode="B" horiz-adv-x="1284" 
d="M207 1462h401q271 0 398 -92t127 -278q0 -127 -77.5 -211.5t-226.5 -108.5v-6q175 -26 257.5 -110.5t82.5 -235.5q0 -202 -134 -311t-380 -109h-448v1462zM309 811h322q206 0 299.5 68.5t93.5 214.5t-105.5 212t-314.5 66h-295v-561zM309 721v-631h344q406 0 406 330
q0 301 -428 301h-322z" />
    <glyph glyph-name="C" unicode="C" horiz-adv-x="1304" 
d="M831 1391q-275 0 -433 -176t-158 -482q0 -313 149 -486t426 -173q184 0 338 47v-90q-145 -51 -362 -51q-308 0 -485 199t-177 556q0 223 84.5 393t243 262.5t368.5 92.5q214 0 383 -80l-41 -92q-160 80 -336 80z" />
    <glyph glyph-name="D" unicode="D" horiz-adv-x="1300" 
d="M1207 745q0 -368 -193 -556.5t-567 -188.5h-350v1462h395q350 0 532.5 -183t182.5 -534zM1101 741q0 314 -159.5 472.5t-468.5 158.5h-269v-1282h242q655 0 655 651z" />
    <glyph glyph-name="E" unicode="E" horiz-adv-x="1100" 
d="M946 0h-799v1462h799v-94h-697v-553h658v-94h-658v-627h697v-94z" />
    <glyph glyph-name="F" unicode="F" horiz-adv-x="1100" 
d="M249 0h-102v1462h801v-94h-699v-620h660v-95h-660v-653z" />
    <glyph glyph-name="G" unicode="G" horiz-adv-x="1404" 
d="M752 737h539v-667q-212 -90 -477 -90q-346 0 -530.5 195.5t-184.5 553.5q0 223 91.5 395.5t262 266.5t391.5 94q239 0 429 -88l-41 -92q-190 88 -394 88q-289 0 -458.5 -178.5t-169.5 -481.5q0 -330 161 -496.5t473 -166.5q202 0 343 57v514h-435v96z" />
    <glyph glyph-name="H" unicode="H" horiz-adv-x="1399" 
d="M1226 0h-103v719h-854v-719h-102v1462h102v-649h854v649h103v-1462z" />
    <glyph glyph-name="I" unicode="I" horiz-adv-x="702" 
d="M572 0h-442v66l170 20v1290l-170 21v65h442v-65l-170 -21v-1290l170 -20v-66z" />
    <glyph glyph-name="J" unicode="J" horiz-adv-x="506" 
d="M-33 -369q-92 0 -151 27v88q78 -20 149 -20q242 0 242 264v1472h102v-1462q0 -369 -342 -369z" />
    <glyph glyph-name="K" unicode="K" horiz-adv-x="1100" 
d="M1080 0h-125l-561 772l-195 -172v-600h-102v1462h102v-760l162 162l573 598h130l-599 -618z" />
    <glyph glyph-name="L" unicode="L" horiz-adv-x="1051" 
d="M147 0v1462h102v-1366h697v-96h-799z" />
    <glyph glyph-name="M" unicode="M" horiz-adv-x="1565" 
d="M740 0l-545 1350h-8q8 -124 8 -254v-1096h-98v1462h158l518 -1286h6l518 1286h154v-1462h-103v1108q0 116 12 240h-8l-547 -1348h-65z" />
    <glyph glyph-name="N" unicode="N" horiz-adv-x="1328" 
d="M1200 0h-103l-866 1298h-8q12 -232 12 -350v-948h-98v1462h102l865 -1296h6q-9 180 -9 342v954h99v-1462z" />
    <glyph glyph-name="O" unicode="O" horiz-adv-x="1565" 
d="M1436 733q0 -348 -174 -550.5t-480 -202.5q-305 0 -479 202.5t-174 552.5q0 349 175.5 549.5t479.5 200.5q306 0 479 -201.5t173 -550.5zM240 733q0 -314 140 -485.5t402 -171.5q264 0 403.5 170t139.5 487q0 316 -139.5 484.5t-401.5 168.5q-261 0 -402.5 -170
t-141.5 -483z" />
    <glyph glyph-name="P" unicode="P" horiz-adv-x="1155" 
d="M1027 1042q0 -212 -144 -325t-408 -113h-226v-604h-102v1462h358q522 0 522 -420zM249 692h201q247 0 357 81.5t110 264.5q0 169 -104 250.5t-322 81.5h-242v-678z" />
    <glyph glyph-name="Q" unicode="Q" horiz-adv-x="1485" 
d="M1396 733q0 -294 -126 -486.5t-349 -246.5l333 -348h-166l-282 330l-33 -2h-31q-305 0 -479 202.5t-174 552.5q0 349 175.5 549.5t479.5 200.5q306 0 479 -201.5t173 -550.5zM200 733q0 -314 140 -485.5t402 -171.5q264 0 403.5 170t139.5 487q0 316 -139.5 484.5
t-401.5 168.5q-261 0 -402.5 -170t-141.5 -483z" />
    <glyph glyph-name="R" unicode="R" horiz-adv-x="1140" 
d="M219 637v-637h-102v1462h348q272 0 402 -100.5t130 -302.5q0 -147 -77.5 -248t-235.5 -145l397 -666h-122l-377 637h-363zM219 725h279q185 0 287 82.5t102 243.5q0 167 -100 243t-326 76h-242v-645z" />
    <glyph glyph-name="S" unicode="S" horiz-adv-x="1086" 
d="M1004 377q0 -183 -134.5 -290t-357.5 -107q-268 0 -411 59v102q158 -67 403 -67q180 0 285.5 82.5t105.5 216.5q0 83 -35 137.5t-114 99.5t-232 97q-224 77 -309.5 166.5t-85.5 238.5q0 164 128.5 267.5t330.5 103.5q206 0 387 -78l-37 -88q-182 76 -348 76
q-162 0 -258 -75t-96 -204q0 -81 29.5 -133t96.5 -93.5t230 -99.5q171 -59 257 -114.5t125.5 -126t39.5 -170.5z" />
    <glyph glyph-name="T" unicode="T" horiz-adv-x="1073" 
d="M588 0h-103v1366h-475v96h1053v-96h-475v-1366z" />
    <glyph glyph-name="U" unicode="U" horiz-adv-x="1300" 
d="M1192 1462v-946q0 -252 -146 -394t-407 -142q-254 0 -396.5 142.5t-142.5 397.5v942h103v-946q0 -211 117 -328.5t331 -117.5q209 0 324 115.5t115 320.5v956h102z" />
    <glyph glyph-name="V" unicode="V" horiz-adv-x="1182" 
d="M1071 1462h111l-547 -1462h-90l-545 1462h109l368 -995q84 -225 113 -338q20 75 79 233z" />
    <glyph glyph-name="W" unicode="W" horiz-adv-x="1736" 
d="M1322 0h-84l-321 1128q-40 139 -60 228q-16 -87 -45.5 -200t-322.5 -1156h-86l-402 1462h107l256 -942q15 -57 28 -105.5t23.5 -91t19 -82t15.5 -79.5q24 136 102 413l250 887h113l293 -1018q51 -176 73 -284q13 72 33.5 153t308.5 1149h103z" />
    <glyph glyph-name="X" unicode="X" horiz-adv-x="1102" 
d="M1102 0h-117l-432 682l-440 -682h-113l492 762l-447 700h115l395 -626l401 626h109l-453 -698z" />
    <glyph glyph-name="Y" unicode="Y" horiz-adv-x="1081" 
d="M543 662l428 800h110l-487 -897v-565h-105v557l-489 905h117z" />
    <glyph glyph-name="Z" unicode="Z" horiz-adv-x="1129" 
d="M1058 0h-1016v76l856 1290h-817v96h954v-76l-858 -1290h881v-96z" />
    <glyph glyph-name="bracketleft" unicode="[" horiz-adv-x="653" 
d="M602 -324h-428v1786h428v-94h-330v-1597h330v-95z" />
    <glyph glyph-name="backslash" unicode="\" horiz-adv-x="698" 
d="M127 1462l547 -1462h-103l-546 1462h102z" />
    <glyph glyph-name="bracketright" unicode="]" horiz-adv-x="653" 
d="M51 -229h330v1597h-330v94h428v-1786h-428v95z" />
    <glyph glyph-name="asciicircum" unicode="^" horiz-adv-x="1169" 
d="M88 561l465 912h68l460 -912h-100l-395 791l-398 -791h-100z" />
    <glyph glyph-name="underscore" unicode="_" horiz-adv-x="842" 
d="M846 -266h-850v82h850v-82z" />
    <glyph glyph-name="grave" unicode="`" horiz-adv-x="1182" 
d="M776 1241h-69q-96 79 -188.5 171.5t-125.5 139.5v17h142q26 -48 98.5 -142t142.5 -170v-16z" />
    <glyph glyph-name="a" unicode="a" horiz-adv-x="1001" 
d="M842 0l-25 172h-8q-82 -105 -168.5 -148.5t-204.5 -43.5q-160 0 -249 82t-89 227q0 159 132.5 247t383.5 93l207 6v72q0 155 -63 234t-203 79q-151 0 -313 -84l-37 86q179 84 354 84q179 0 267.5 -93t88.5 -290v-723h-73zM442 70q174 0 274.5 99.5t100.5 276.5v107
l-190 -8q-229 -11 -326.5 -71.5t-97.5 -188.5q0 -102 62.5 -158.5t176.5 -56.5z" />
    <glyph glyph-name="b" unicode="b" horiz-adv-x="1100" 
d="M551 1108q228 0 343.5 -143.5t115.5 -419.5q0 -271 -121.5 -418t-341.5 -147q-116 0 -209 48t-147 136h-9l-28 -164h-62v1556h99v-391q0 -88 -4 -162l-3 -85h7q62 98 149.5 144t210.5 46zM549 1018q-192 0 -275 -110t-83 -363v-17q0 -246 86.5 -353t269.5 -107
q178 0 268 124.5t90 354.5q0 471 -356 471z" />
    <glyph glyph-name="c" unicode="c" horiz-adv-x="973" 
d="M596 -20q-233 0 -365 147t-132 410q0 270 137 420.5t375 150.5q141 0 270 -49l-27 -88q-141 47 -245 47q-200 0 -303 -123.5t-103 -355.5q0 -220 103 -344.5t288 -124.5q148 0 275 53v-92q-104 -51 -273 -51z" />
    <glyph glyph-name="d" unicode="d" horiz-adv-x="1219" 
d="M570 1108q118 0 204 -43t154 -147h6q-6 126 -6 247v391h98v-1556h-65l-25 166h-8q-124 -186 -356 -186q-225 0 -344 140t-119 408q0 282 118 431t343 149zM570 1018q-178 0 -267.5 -125t-89.5 -363q0 -462 359 -462q184 0 270 107t86 353v17q0 252 -84.5 362.5
t-273.5 110.5z" />
    <glyph glyph-name="e" unicode="e" horiz-adv-x="1124" 
d="M621 -20q-237 0 -369.5 146t-132.5 409q0 260 128 416.5t345 156.5q192 0 303 -134t111 -364v-80h-783q2 -224 104.5 -342t293.5 -118q93 0 163.5 13t178.5 56v-90q-92 -40 -170 -54.5t-172 -14.5zM592 1020q-157 0 -252 -103.5t-111 -298.5h672q0 189 -82 295.5
t-227 106.5z" />
    <glyph glyph-name="f" unicode="f" horiz-adv-x="655" 
d="M586 1001h-256v-1001h-99v1001h-202v58l202 37v84q0 200 73.5 293.5t240.5 93.5q90 0 180 -27l-23 -86q-80 25 -159 25q-116 0 -164.5 -68.5t-48.5 -222.5v-101h256v-86z" />
    <glyph glyph-name="g" unicode="g" horiz-adv-x="1100" 
d="M1030 1087v-69l-225 -14q90 -112 90 -246q0 -157 -104.5 -254.5t-280.5 -97.5q-74 0 -104 6q-59 -31 -90 -73t-31 -89q0 -52 39.5 -76t132.5 -24h190q177 0 271 -71.5t94 -211.5q0 -172 -139.5 -265.5t-397.5 -93.5q-205 0 -317.5 79t-112.5 220q0 112 69.5 186
t188.5 101q-49 21 -78.5 59.5t-29.5 88.5q0 109 139 192q-95 39 -148 122.5t-53 191.5q0 163 103.5 261.5t279.5 98.5q107 0 166 -21h348zM150 -184q0 -224 333 -224q428 0 428 273q0 98 -67 142t-217 44h-178q-299 0 -299 -235zM233 748q0 -126 76.5 -195.5t204.5 -69.5
q136 0 208.5 69t72.5 200q0 139 -74.5 208.5t-208.5 69.5q-130 0 -204.5 -74.5t-74.5 -207.5z" />
    <glyph glyph-name="h" unicode="h" horiz-adv-x="1208" 
d="M940 0v705q0 164 -69 238.5t-214 74.5q-195 0 -285.5 -98.5t-90.5 -319.5v-600h-99v1556h99v-495l-5 -139h7q61 98 154 142t231 44q370 0 370 -397v-711h-98z" />
    <glyph glyph-name="i" unicode="i" horiz-adv-x="463" 
d="M281 0h-99v1087h99v-1087zM168 1356q0 63 63 63q31 0 48.5 -16.5t17.5 -46.5t-17.5 -47t-48.5 -17q-63 0 -63 64z" />
    <glyph glyph-name="j" unicode="j" horiz-adv-x="463" 
d="M37 -492q-80 0 -135 25v86q69 -20 129 -20q151 0 151 176v1312h99v-1298q0 -135 -63.5 -208t-180.5 -73zM168 1356q0 63 63 63q31 0 48.5 -16.5t17.5 -46.5t-17.5 -47t-48.5 -17q-63 0 -63 64z" />
    <glyph glyph-name="k" unicode="k" horiz-adv-x="1038" 
d="M279 477l555 610h120l-428 -464l465 -623h-119l-413 549l-178 -162v-387h-99v1556h99v-780l-7 -299h5z" />
    <glyph glyph-name="l" unicode="l" horiz-adv-x="463" 
d="M281 0h-99v1556h99v-1556z" />
    <glyph glyph-name="m" unicode="m" horiz-adv-x="1808" 
d="M1540 0v713q0 159 -62 232t-190 73q-167 0 -247 -92t-80 -289v-637h-101v743q0 275 -252 275q-171 0 -249 -99.5t-78 -318.5v-600h-99v1087h82l21 -149h6q45 81 128 125.5t183 44.5q257 0 330 -193h4q53 93 142.5 143t203.5 50q178 0 267 -95t89 -302v-711h-98z" />
    <glyph glyph-name="n" unicode="n" horiz-adv-x="1208" 
d="M940 0v705q0 164 -69 238.5t-214 74.5q-195 0 -285.5 -98.5t-90.5 -319.5v-600h-99v1087h84l19 -149h6q106 170 377 170q370 0 370 -397v-711h-98z" />
    <glyph glyph-name="o" unicode="o" horiz-adv-x="1200" 
d="M1081 545q0 -266 -129 -415.5t-356 -149.5q-143 0 -252 69t-167 198t-58 298q0 266 129 414.5t354 148.5q224 0 351.5 -150.5t127.5 -412.5zM223 545q0 -224 98.5 -349.5t278.5 -125.5t278.5 125.5t98.5 349.5q0 225 -99.5 349t-279.5 124t-277.5 -123.5t-97.5 -349.5z
" />
    <glyph glyph-name="p" unicode="p" horiz-adv-x="1219" 
d="M647 -20q-251 0 -366 188h-7l3 -84q4 -74 4 -162v-414h-99v1579h84l19 -155h6q112 176 358 176q220 0 335.5 -144.5t115.5 -420.5q0 -268 -121.5 -415.5t-331.5 -147.5zM645 68q167 0 258.5 124t91.5 347q0 479 -346 479q-190 0 -279 -104.5t-89 -340.5v-32
q0 -255 85.5 -364t278.5 -109z" />
    <glyph glyph-name="q" unicode="q" horiz-adv-x="1219" 
d="M569 -20q-214 0 -332 142t-118 410q0 275 118 425.5t338 150.5q236 0 353 -174h6l18 153h84v-1579h-98v414q0 122 6 248h-6q-118 -190 -369 -190zM571 68q198 0 282.5 109t84.5 366v12q0 245 -85 354t-271 109q-176 0 -267.5 -124t-91.5 -364q0 -229 89.5 -345.5
t258.5 -116.5z" />
    <glyph glyph-name="r" unicode="r" horiz-adv-x="824" 
d="M610 1108q69 0 148 -14l-19 -95q-68 17 -141 17q-139 0 -228 -118t-89 -298v-600h-99v1087h84l10 -196h7q67 120 143 168.5t184 48.5z" />
    <glyph glyph-name="s" unicode="s" horiz-adv-x="954" 
d="M856 283q0 -146 -111 -224.5t-315 -78.5q-218 0 -346 67v107q164 -82 346 -82q161 0 244.5 53.5t83.5 142.5q0 82 -66.5 138t-218.5 110q-163 59 -229 101.5t-99.5 96t-33.5 130.5q0 122 102.5 193t286.5 71q176 0 334 -66l-37 -90q-160 66 -297 66q-133 0 -211 -44
t-78 -122q0 -85 60.5 -136t236.5 -114q147 -53 214 -95.5t100.5 -96.5t33.5 -127z" />
    <glyph glyph-name="t" unicode="t" horiz-adv-x="686" 
d="M469 68q94 0 164 16v-80q-72 -24 -166 -24q-144 0 -212.5 77t-68.5 242v702h-161v58l161 45l50 246h51v-263h319v-86h-319v-688q0 -125 44 -185t138 -60z" />
    <glyph glyph-name="u" unicode="u" horiz-adv-x="1208" 
d="M268 1087v-704q0 -164 69 -238.5t214 -74.5q194 0 285.5 98t91.5 319v600h98v-1087h-84l-18 150h-6q-106 -170 -377 -170q-371 0 -371 397v710h98z" />
    <glyph glyph-name="v" unicode="v" horiz-adv-x="940" 
d="M420 0l-420 1087h102l281 -739q56 -142 84 -248h6q41 136 84 250l281 737h102l-420 -1087h-100z" />
    <glyph glyph-name="w" unicode="w" horiz-adv-x="1481" 
d="M1051 0l-238 727q-23 74 -59 217h-6l-21 -74l-45 -145l-242 -725h-98l-311 1087h106l174 -630q61 -234 80 -344h6q59 234 86 311l224 663h90l213 -661q72 -235 88 -311h6q8 65 80 348l166 624h100l-295 -1087h-104z" />
    <glyph glyph-name="x" unicode="x" horiz-adv-x="1020" 
d="M449 559l-379 528h114l324 -458l321 458h109l-373 -528l400 -559h-115l-342 485l-344 -485h-109z" />
    <glyph glyph-name="y" unicode="y" horiz-adv-x="940" 
d="M0 1087h102l230 -610q105 -281 133 -379h6q42 129 137 385l230 604h102l-487 -1263q-59 -154 -99 -208t-93.5 -81t-129.5 -27q-57 0 -127 21v86q58 -16 125 -16q51 0 90 24t70.5 74.5t73 160t53.5 142.5z" />
    <glyph glyph-name="z" unicode="z" horiz-adv-x="944" 
d="M858 0h-776v63l645 936h-598v88h727v-63l-649 -936h651v-88z" />
    <glyph glyph-name="braceleft" unicode="{" horiz-adv-x="723" 
d="M389 -27q0 -102 59.5 -152.5t202.5 -53.5v-91q-195 0 -277.5 75t-82.5 231v337q0 205 -230 209v80q122 2 176 51t54 148v350q0 299 360 305v-90q-138 -5 -200 -58t-62 -157v-305q0 -130 -44 -194t-142 -85v-8q97 -20 141.5 -83.5t44.5 -186.5v-322z" />
    <glyph glyph-name="bar" unicode="|" horiz-adv-x="1108" 
d="M508 1561h92v-2067h-92v2067z" />
    <glyph glyph-name="braceright" unicode="}" horiz-adv-x="723" 
d="M334 295q0 123 44.5 186.5t141.5 83.5v8q-97 20 -141.5 84t-44.5 195v305q0 103 -61.5 156.5t-200.5 58.5v90q174 0 267 -77.5t93 -227.5v-350q0 -100 54.5 -148.5t175.5 -50.5v-80q-230 -4 -230 -209v-337q0 -155 -82.5 -230.5t-277.5 -75.5v91q141 2 201.5 52.5
t60.5 153.5v322z" />
    <glyph glyph-name="asciitilde" unicode="~" horiz-adv-x="1169" 
d="M334 745q-49 0 -108 -30.5t-115 -89.5v94q108 110 233 110q61 0 115 -13.5t155 -57.5q126 -58 220 -58q56 0 109.5 30.5t115.5 94.5v-96q-48 -49 -104.5 -81t-129.5 -32q-116 0 -270 72q-124 57 -221 57z" />
    <glyph glyph-name="exclamdown" unicode="&#xa1;" horiz-adv-x="492" 
d="M215 711h61l29 -1086h-119zM166 1010q0 98 80 98q82 0 82 -98q0 -53 -23.5 -76t-58.5 -23q-34 0 -57 23t-23 76z" />
    <glyph glyph-name="cent" unicode="&#xa2;" horiz-adv-x="1169" 
d="M602 190q-186 30 -288.5 175t-102.5 380q0 232 102.5 381.5t288.5 182.5v174h82v-166h14q131 0 275 -55l-31 -84q-134 51 -237 51q-187 0 -288.5 -122.5t-101.5 -358.5q0 -225 100.5 -349.5t280.5 -124.5q131 0 267 58v-92q-110 -56 -267 -56h-12v-204h-82v210z" />
    <glyph glyph-name="sterling" unicode="&#xa3;" horiz-adv-x="1169" 
d="M412 676v-256q0 -116 -35 -196t-113 -128h809v-96h-995v84q110 21 171.5 110t61.5 224v258h-211v82h211v297q0 204 98 315t281 111q175 0 330 -68l-35 -86q-157 66 -295 66q-141 0 -209.5 -81t-68.5 -253v-301h411v-82h-411z" />
    <glyph glyph-name="currency" unicode="&#xa4;" horiz-adv-x="1169" 
d="M991 723q0 -151 -90 -256l139 -141l-59 -60l-137 142q-110 -93 -260 -93q-153 0 -260 93l-138 -142l-59 60l139 141q-90 106 -90 256q0 147 90 258l-139 141l59 60l138 -142q103 93 260 93q155 0 260 -93l137 142l59 -60l-139 -141q90 -111 90 -258zM584 395
q134 0 228.5 95.5t94.5 232.5q0 136 -95 233t-228 97q-134 0 -229 -97t-95 -233t94.5 -232t229.5 -96z" />
    <glyph glyph-name="yen" unicode="&#xa5;" horiz-adv-x="1169" 
d="M586 666l428 796h110l-432 -788h283v-82h-338v-205h338v-82h-338v-305h-105v305h-337v82h337v205h-337v82h278l-430 788h117z" />
    <glyph glyph-name="brokenbar" unicode="&#xa6;" horiz-adv-x="1108" 
d="M508 1561h92v-764h-92v764zM508 258h92v-764h-92v764z" />
    <glyph glyph-name="section" unicode="&#xa7;" horiz-adv-x="1057" 
d="M145 813q0 83 50.5 152.5t138.5 107.5q-86 47 -125 102t-39 136q0 117 101.5 183.5t275.5 66.5q175 0 336 -64l-35 -80q-91 34 -158.5 47t-144.5 13q-134 0 -205.5 -44.5t-71.5 -119.5q0 -54 25.5 -88.5t85.5 -65.5t188 -74q192 -64 264 -132.5t72 -170.5
q0 -173 -186 -274q86 -42 129 -96t43 -136q0 -135 -113 -207.5t-311 -72.5q-92 0 -171 15t-165 52v95q182 -78 332 -78q162 0 247 49.5t85 140.5q0 55 -25 87.5t-88.5 65.5t-190.5 79q-200 73 -272 141.5t-72 169.5zM246 825q0 -65 31.5 -104t105.5 -75t250 -99
q82 41 126 98t44 121q0 62 -32 102t-108.5 77t-236.5 87q-81 -23 -130.5 -79t-49.5 -128z" />
    <glyph glyph-name="dieresis" unicode="&#xa8;" horiz-adv-x="1182" 
d="M336 1389q0 46 15.5 66t47.5 20q64 0 64 -86t-64 -86q-63 0 -63 86zM717 1389q0 46 15.5 66t47.5 20q64 0 64 -86t-64 -86q-63 0 -63 86z" />
    <glyph glyph-name="copyright" unicode="&#xa9;" horiz-adv-x="1704" 
d="M897 1092q-142 0 -222.5 -94.5t-80.5 -264.5q0 -186 74.5 -275t220.5 -89q84 0 198 43v-88q-102 -45 -208 -45q-187 0 -288.5 115t-101.5 331q0 208 111 332.5t297 124.5q119 0 227 -52l-37 -83q-98 45 -190 45zM100 731q0 200 100 375t275 276t377 101q200 0 375 -100
t276 -275t101 -377q0 -197 -97 -370t-272 -277t-383 -104q-207 0 -382 103.5t-272.5 276.5t-97.5 371zM193 731q0 -178 88.5 -329.5t240.5 -240.5t330 -89t329.5 88.5t240.5 240.5t89 330q0 174 -85.5 325t-239 243t-334.5 92q-176 0 -328.5 -88.5t-241.5 -242.5t-89 -329z
" />
    <glyph glyph-name="ordfeminine" unicode="&#xaa;" horiz-adv-x="686" 
d="M512 813l-25 72q-84 -84 -202 -84q-95 0 -151 49t-56 139q0 100 80 151.5t241 59.5l95 4v43q0 77 -38 114.5t-106 37.5q-87 0 -196 -49l-33 73q117 56 231 56q228 0 228 -215v-451h-68zM168 993q0 -54 35 -85t96 -31q90 0 142.5 50t52.5 142v64l-88 -5
q-116 -6 -177 -36.5t-61 -98.5z" />
    <glyph glyph-name="guillemotleft" unicode="&#xab;" horiz-adv-x="885" 
d="M82 543l309 393l62 -43l-254 -363l254 -362l-62 -43l-309 391v27zM442 543l310 393l61 -43l-254 -363l254 -362l-61 -43l-310 391v27z" />
    <glyph glyph-name="logicalnot" unicode="&#xac;" horiz-adv-x="1169" 
d="M1038 764v-494h-82v412h-845v82h927z" />
    <glyph glyph-name="registered" unicode="&#xae;" horiz-adv-x="1704" 
d="M709 731h112q91 0 143 46.5t52 135.5q0 172 -197 172h-110v-354zM1120 918q0 -79 -38.5 -139.5t-110.5 -94.5l237 -393h-121l-210 360h-168v-360h-101v880h211q143 0 222 -62t79 -191zM100 731q0 200 100 375t275 276t377 101q200 0 375 -100t276 -275t101 -377
q0 -197 -97 -370t-272 -277t-383 -104q-207 0 -382 103.5t-272.5 276.5t-97.5 371zM193 731q0 -178 88.5 -329.5t240.5 -240.5t330 -89t329.5 88.5t240.5 240.5t89 330q0 174 -85.5 325t-239 243t-334.5 92q-176 0 -328.5 -88.5t-241.5 -242.5t-89 -329z" />
    <glyph glyph-name="macron" unicode="&#xaf;" horiz-adv-x="1024" 
d="M1030 1556h-1036v82h1036v-82z" />
    <glyph glyph-name="degree" unicode="&#xb0;" horiz-adv-x="877" 
d="M139 1184q0 132 86.5 215.5t212.5 83.5t212.5 -83.5t86.5 -215.5t-86.5 -215.5t-212.5 -83.5q-130 0 -214.5 83t-84.5 216zM229 1184q0 -91 61 -154t148 -63q86 0 147.5 62t61.5 155q0 92 -60 154.5t-149 62.5q-90 0 -149.5 -64t-59.5 -153z" />
    <glyph glyph-name="plusminus" unicode="&#xb1;" horiz-adv-x="1169" 
d="M111 1v82h948v-82h-948zM625 764h434v-82h-434v-432h-82v432h-432v82h432v434h82v-434z" />
    <glyph glyph-name="uni00B2" unicode="&#xb2;" horiz-adv-x="688" 
d="M629 586h-576v78l242 237q125 121 172 193t47 149q0 71 -46.5 112.5t-123.5 41.5q-108 0 -217 -82l-49 65q119 103 270 103q124 0 194 -63.5t70 -174.5q0 -47 -13 -89t-40 -85.5t-68.5 -90t-308.5 -306.5h447v-88z" />
    <glyph glyph-name="uni00B3" unicode="&#xb3;" horiz-adv-x="688" 
d="M616 1260q0 -78 -44 -131.5t-117 -75.5q186 -45 186 -211q0 -130 -88.5 -201.5t-247.5 -71.5q-144 0 -264 60v88q136 -62 266 -62q115 0 174.5 49t59.5 136q0 83 -59.5 122t-178.5 39h-131v84h135q105 0 158 43.5t53 120.5q0 67 -47 107.5t-127 40.5q-128 0 -246 -78
l-47 70q130 94 293 94q127 0 199.5 -60t72.5 -163z" />
    <glyph glyph-name="acute" unicode="&#xb4;" horiz-adv-x="1182" 
d="M393 1257q73 79 144.5 171.5t97.5 140.5h141v-17q-36 -52 -122.5 -138t-190.5 -173h-70v16z" />
    <glyph glyph-name="mu" unicode="&#xb5;" horiz-adv-x="1221" 
d="M281 1087v-704q0 -164 69 -238.5t213 -74.5q194 0 285.5 98t91.5 319v600h98v-1087h-84l-18 150h-6q-50 -77 -150 -123.5t-217 -46.5q-99 0 -167.5 27.5t-119.5 84.5q5 -92 5 -170v-414h-99v1579h99z" />
    <glyph glyph-name="paragraph" unicode="&#xb6;" horiz-adv-x="1341" 
d="M1106 -260h-100v1722h-228v-1722h-100v819q-64 -18 -146 -18q-216 0 -317.5 125t-101.5 376q0 260 109 387t341 127h543v-1816z" />
    <glyph glyph-name="periodcentered" unicode="&#xb7;" horiz-adv-x="487" 
d="M162 721q0 98 80 98q82 0 82 -98t-82 -98q-80 0 -80 98z" />
    <glyph glyph-name="periodcentered" unicode="&#x2219;" horiz-adv-x="487" 
d="M162 721q0 98 80 98q82 0 82 -98t-82 -98q-80 0 -80 98z" />
    <glyph glyph-name="cedilla" unicode="&#xb8;" horiz-adv-x="420" 
d="M393 -291q0 -100 -67.5 -150.5t-188.5 -50.5q-68 0 -94 11v88q30 -10 92 -10q78 0 119 28t41 80q0 94 -193 121l93 174h96l-66 -117q168 -37 168 -174z" />
    <glyph glyph-name="uni00B9" unicode="&#xb9;" horiz-adv-x="688" 
d="M350 1462h92v-876h-98v547q0 99 12 233q-26 -23 -233 -145l-47 77z" />
    <glyph glyph-name="ordmasculine" unicode="&#xba;" horiz-adv-x="739" 
d="M670 1141q0 -161 -80 -250.5t-223 -89.5t-220 86t-77 254q0 162 78 250t223 88q142 0 220.5 -87t78.5 -251zM160 1141q0 -264 209 -264t209 264q0 131 -50 194.5t-159 63.5t-159 -63.5t-50 -194.5z" />
    <glyph glyph-name="guillemotright" unicode="&#xbb;" horiz-adv-x="885" 
d="M803 518l-309 -393l-62 43l254 362l-254 363l62 43l309 -391v-27zM442 518l-309 -393l-61 43l254 362l-254 363l61 43l309 -391v-27z" />
    <glyph glyph-name="onequarter" unicode="&#xbc;" horiz-adv-x="1516" 
d="M333 1462h92v-876h-98v547q0 99 12 233q-26 -23 -233 -145l-47 77zM1148 1462l-811 -1462h-94l811 1462h94zM1392 242h-129v-241h-90v241h-413v60l407 581h96v-563h129v-78zM1173 320v221q0 132 8 232q-6 -12 -21.5 -35.5t-295.5 -417.5h309z" />
    <glyph glyph-name="onehalf" unicode="&#xbd;" horiz-adv-x="1516" 
d="M285 1462h92v-876h-98v547q0 99 12 233q-26 -23 -233 -145l-47 77zM1073 1462l-811 -1462h-94l811 1462h94zM1403 1h-576v78l242 237q125 121 172 193t47 149q0 71 -46.5 112.5t-123.5 41.5q-108 0 -217 -82l-49 65q119 103 270 103q124 0 194 -63.5t70 -174.5
q0 -47 -13 -89t-40 -85.5t-68.5 -90t-308.5 -306.5h447v-88z" />
    <glyph glyph-name="threequarters" unicode="&#xbe;" horiz-adv-x="1516" 
d="M616 1260q0 -78 -44 -131.5t-117 -75.5q186 -45 186 -211q0 -130 -88.5 -201.5t-247.5 -71.5q-144 0 -264 60v88q136 -62 266 -62q115 0 174.5 49t59.5 136q0 83 -59.5 122t-178.5 39h-131v84h135q105 0 158 43.5t53 120.5q0 67 -47 107.5t-127 40.5q-128 0 -246 -78
l-47 70q130 94 293 94q127 0 199.5 -60t72.5 -163zM1300 1462l-811 -1462h-94l811 1462h94zM1495 242h-129v-241h-90v241h-413v60l407 581h96v-563h129v-78zM1276 320v221q0 132 8 232q-6 -12 -21.5 -35.5t-295.5 -417.5h309z" />
    <glyph glyph-name="questiondown" unicode="&#xbf;" horiz-adv-x="862" 
d="M569 711v-37q0 -125 -39.5 -204.5t-136.5 -164.5l-90 -79q-73 -61 -104 -120.5t-31 -138.5q0 -124 82 -200t221 -76q125 0 233 46l64 27l37 -79q-111 -48 -185.5 -64t-152.5 -16q-184 0 -288.5 99t-104.5 269q0 70 20 124t58.5 102t171.5 159q64 53 98.5 98.5t49.5 94
t15 145.5v15h82zM440 1010q0 98 80 98q82 0 82 -98q0 -53 -23.5 -76t-58.5 -23q-34 0 -57 23t-23 76z" />
    <glyph glyph-name="Agrave" unicode="&#xc0;" horiz-adv-x="1229" 
d="M911 516h-594l-204 -516h-113l588 1468h65l576 -1468h-115zM354 608h523l-199 527q-25 62 -60 172q-27 -96 -59 -174zM720 1579h-69q-96 79 -188.5 171.5t-125.5 139.5v17h142q26 -48 98.5 -142t142.5 -170v-16z" />
    <glyph glyph-name="Aacute" unicode="&#xc1;" horiz-adv-x="1229" 
d="M911 516h-594l-204 -516h-113l588 1468h65l576 -1468h-115zM354 608h523l-199 527q-25 62 -60 172q-27 -96 -59 -174zM504 1595q73 79 144.5 171.5t97.5 140.5h141v-17q-36 -52 -122.5 -138t-190.5 -173h-70v16z" />
    <glyph glyph-name="Acircumflex" unicode="&#xc2;" horiz-adv-x="1229" 
d="M911 516h-594l-204 -516h-113l588 1468h65l576 -1468h-115zM354 608h523l-199 527q-25 62 -60 172q-27 -96 -59 -174zM328 1595q62 67 131.5 156t110.5 156h98q68 -120 242 -312v-16h-70q-122 101 -221 207q-108 -114 -221 -207h-70v16z" />
    <glyph glyph-name="Atilde" unicode="&#xc3;" horiz-adv-x="1229" 
d="M911 516h-594l-204 -516h-113l588 1468h65l576 -1468h-115zM354 608h523l-199 527q-25 62 -60 172q-27 -96 -59 -174zM784 1581q-36 0 -75 18.5t-101 71.5q-32 26 -62.5 46t-62.5 20q-45 0 -75 -34.5t-48 -121.5h-73q10 111 63 174.5t137 63.5q48 0 88 -25t82 -59
q34 -28 66 -50t61 -22q46 0 77 36.5t48 119.5h76q-16 -116 -69 -177t-132 -61z" />
    <glyph glyph-name="Adieresis" unicode="&#xc4;" horiz-adv-x="1229" 
d="M911 516h-594l-204 -516h-113l588 1468h65l576 -1468h-115zM354 608h523l-199 527q-25 62 -60 172q-27 -96 -59 -174zM367 1727q0 46 15.5 66t47.5 20q64 0 64 -86t-64 -86q-63 0 -63 86zM748 1727q0 46 15.5 66t47.5 20q64 0 64 -86t-64 -86q-63 0 -63 86z" />
    <glyph glyph-name="Aring" unicode="&#xc5;" horiz-adv-x="1229" 
d="M911 516h-594l-204 -516h-113l588 1468h65l576 -1468h-115zM354 608h523l-199 527q-25 62 -60 172q-27 -96 -59 -174zM836 1610q0 -97 -60 -155t-157 -58t-157 58t-60 155q0 94 60 152.5t157 58.5t157 -59t60 -152zM482 1610q0 -66 37.5 -103.5t99.5 -37.5t99.5 37.5
t37.5 103.5q0 64 -39 101.5t-98 37.5q-62 0 -99.5 -38t-37.5 -101z" />
    <glyph glyph-name="AE" unicode="&#xc6;" horiz-adv-x="1653" 
d="M1528 0h-717v516h-475l-227 -516h-111l653 1462h877v-94h-615v-553h576v-94h-576v-627h615v-94zM377 608h434v760h-100z" />
    <glyph glyph-name="Ccedilla" unicode="&#xc7;" horiz-adv-x="1272" 
d="M831 1391q-275 0 -433 -176t-158 -482q0 -313 149 -486t426 -173q184 0 338 47v-90q-145 -51 -362 -51q-308 0 -485 199t-177 556q0 223 84.5 393t243 262.5t368.5 92.5q214 0 383 -80l-41 -92q-160 80 -336 80zM911 -291q0 -100 -67.5 -150.5t-188.5 -50.5q-68 0 -94 11
v88q30 -10 92 -10q78 0 119 28t41 80q0 94 -193 121l93 174h96l-66 -117q168 -37 168 -174z" />
    <glyph glyph-name="Egrave" unicode="&#xc8;" horiz-adv-x="1130" 
d="M1006 0h-799v1462h799v-94h-697v-553h658v-94h-658v-627h697v-94zM697 1579h-69q-96 79 -188.5 171.5t-125.5 139.5v17h142q26 -48 98.5 -142t142.5 -170v-16z" />
    <glyph glyph-name="Eacute" unicode="&#xc9;" horiz-adv-x="1130" 
d="M1006 0h-799v1462h799v-94h-697v-553h658v-94h-658v-627h697v-94zM463 1595q73 79 144.5 171.5t97.5 140.5h141v-17q-36 -52 -122.5 -138t-190.5 -173h-70v16z" />
    <glyph glyph-name="Ecircumflex" unicode="&#xca;" horiz-adv-x="1130" 
d="M1006 0h-799v1462h799v-94h-697v-553h658v-94h-658v-627h697v-94zM315 1595q62 67 131.5 156t110.5 156h98q68 -120 242 -312v-16h-70q-122 101 -221 207q-108 -114 -221 -207h-70v16z" />
    <glyph glyph-name="Edieresis" unicode="&#xcb;" horiz-adv-x="1130" 
d="M1006 0h-799v1462h799v-94h-697v-553h658v-94h-658v-627h697v-94zM354 1727q0 46 15.5 66t47.5 20q64 0 64 -86t-64 -86q-63 0 -63 86zM735 1727q0 46 15.5 66t47.5 20q64 0 64 -86t-64 -86q-63 0 -63 86z" />
    <glyph glyph-name="Igrave" unicode="&#xcc;" horiz-adv-x="623" 
d="M532 0h-442v66l170 20v1290l-170 21v65h442v-65l-170 -21v-1290l170 -20v-66zM435 1579h-69q-96 79 -188.5 171.5t-125.5 139.5v17h142q26 -48 98.5 -142t142.5 -170v-16z" />
    <glyph glyph-name="Iacute" unicode="&#xcd;" horiz-adv-x="623" 
d="M532 0h-442v66l170 20v1290l-170 21v65h442v-65l-170 -21v-1290l170 -20v-66zM224 1595q73 79 144.5 171.5t97.5 140.5h141v-17q-36 -52 -122.5 -138t-190.5 -173h-70v16z" />
    <glyph glyph-name="Icircumflex" unicode="&#xce;" horiz-adv-x="623" 
d="M532 0h-442v66l170 20v1290l-170 21v65h442v-65l-170 -21v-1290l170 -20v-66zM21 1595q62 67 131.5 156t110.5 156h98q68 -120 242 -312v-16h-70q-122 101 -221 207q-108 -114 -221 -207h-70v16z" />
    <glyph glyph-name="Idieresis" unicode="&#xcf;" horiz-adv-x="623" 
d="M532 0h-442v66l170 20v1290l-170 21v65h442v-65l-170 -21v-1290l170 -20v-66zM58 1727q0 46 15.5 66t47.5 20q64 0 64 -86t-64 -86q-63 0 -63 86zM439 1727q0 46 15.5 66t47.5 20q64 0 64 -86t-64 -86q-63 0 -63 86z" />
    <glyph glyph-name="Eth" unicode="&#xd0;" horiz-adv-x="1466" 
d="M1317 745q0 -368 -193 -556.5t-567 -188.5h-350v678h-160v94h160v690h395q350 0 532.5 -183t182.5 -534zM1206 741q0 314 -159.5 472.5t-468.5 158.5h-269v-600h406v-94h-406v-588h242q655 0 655 651z" />
    <glyph glyph-name="Ntilde" unicode="&#xd1;" horiz-adv-x="1477" 
d="M1270 0h-103l-866 1298h-8q12 -232 12 -350v-948h-98v1462h102l865 -1296h6q-9 180 -9 342v954h99v-1462zM897 1581q-36 0 -75 18.5t-101 71.5q-32 26 -62.5 46t-62.5 20q-45 0 -75 -34.5t-48 -121.5h-73q10 111 63 174.5t137 63.5q48 0 88 -25t82 -59q34 -28 66 -50
t61 -22q46 0 77 36.5t48 119.5h76q-16 -116 -69 -177t-132 -61z" />
    <glyph glyph-name="Ograve" unicode="&#xd2;" horiz-adv-x="1565" 
d="M1436 733q0 -348 -174 -550.5t-480 -202.5q-305 0 -479 202.5t-174 552.5q0 349 175.5 549.5t479.5 200.5q306 0 479 -201.5t173 -550.5zM240 733q0 -314 140 -485.5t402 -171.5q264 0 403.5 170t139.5 487q0 316 -139.5 484.5t-401.5 168.5q-261 0 -402.5 -170
t-141.5 -483zM885 1579h-69q-96 79 -188.5 171.5t-125.5 139.5v17h142q26 -48 98.5 -142t142.5 -170v-16z" />
    <glyph glyph-name="Oacute" unicode="&#xd3;" horiz-adv-x="1565" 
d="M1436 733q0 -348 -174 -550.5t-480 -202.5q-305 0 -479 202.5t-174 552.5q0 349 175.5 549.5t479.5 200.5q306 0 479 -201.5t173 -550.5zM240 733q0 -314 140 -485.5t402 -171.5q264 0 403.5 170t139.5 487q0 316 -139.5 484.5t-401.5 168.5q-261 0 -402.5 -170
t-141.5 -483zM686 1595q73 79 144.5 171.5t97.5 140.5h141v-17q-36 -52 -122.5 -138t-190.5 -173h-70v16z" />
    <glyph glyph-name="Ocircumflex" unicode="&#xd4;" horiz-adv-x="1565" 
d="M1436 733q0 -348 -174 -550.5t-480 -202.5q-305 0 -479 202.5t-174 552.5q0 349 175.5 549.5t479.5 200.5q306 0 479 -201.5t173 -550.5zM240 733q0 -314 140 -485.5t402 -171.5q264 0 403.5 170t139.5 487q0 316 -139.5 484.5t-401.5 168.5q-261 0 -402.5 -170
t-141.5 -483zM492 1595q62 67 131.5 156t110.5 156h98q68 -120 242 -312v-16h-70q-122 101 -221 207q-108 -114 -221 -207h-70v16z" />
    <glyph glyph-name="Otilde" unicode="&#xd5;" horiz-adv-x="1565" 
d="M1436 733q0 -348 -174 -550.5t-480 -202.5q-305 0 -479 202.5t-174 552.5q0 349 175.5 549.5t479.5 200.5q306 0 479 -201.5t173 -550.5zM240 733q0 -314 140 -485.5t402 -171.5q264 0 403.5 170t139.5 487q0 316 -139.5 484.5t-401.5 168.5q-261 0 -402.5 -170
t-141.5 -483zM940 1581q-36 0 -75 18.5t-101 71.5q-32 26 -62.5 46t-62.5 20q-45 0 -75 -34.5t-48 -121.5h-73q10 111 63 174.5t137 63.5q48 0 88 -25t82 -59q34 -28 66 -50t61 -22q46 0 77 36.5t48 119.5h76q-16 -116 -69 -177t-132 -61z" />
    <glyph glyph-name="Odieresis" unicode="&#xd6;" horiz-adv-x="1565" 
d="M1436 733q0 -348 -174 -550.5t-480 -202.5q-305 0 -479 202.5t-174 552.5q0 349 175.5 549.5t479.5 200.5q306 0 479 -201.5t173 -550.5zM240 733q0 -314 140 -485.5t402 -171.5q264 0 403.5 170t139.5 487q0 316 -139.5 484.5t-401.5 168.5q-261 0 -402.5 -170
t-141.5 -483zM529 1727q0 46 15.5 66t47.5 20q64 0 64 -86t-64 -86q-63 0 -63 86zM910 1727q0 46 15.5 66t47.5 20q64 0 64 -86t-64 -86q-63 0 -63 86z" />
    <glyph glyph-name="multiply" unicode="&#xd7;" horiz-adv-x="1169" 
d="M584 780l409 408l58 -58l-408 -407l406 -408l-58 -57l-407 408l-406 -408l-57 57l405 408l-407 407l57 58z" />
    <glyph glyph-name="Oslash" unicode="&#xd8;" horiz-adv-x="1565" 
d="M1436 733q0 -348 -174 -550.5t-480 -202.5q-236 0 -395 120l-86 -120l-74 59l90 127q-188 200 -188 569q0 349 175.5 549.5t479.5 200.5q232 0 392 -121l108 152l72 -60l-111 -153q191 -207 191 -570zM1325 733q0 315 -139 486l-742 -1037q133 -106 338 -106
q264 0 403.5 170t139.5 487zM240 733q0 -312 139 -483l739 1034q-133 102 -334 102q-261 0 -402.5 -170t-141.5 -483z" />
    <glyph glyph-name="Ugrave" unicode="&#xd9;" horiz-adv-x="1473" 
d="M1282 1462v-946q0 -252 -146 -394t-407 -142q-254 0 -396.5 142.5t-142.5 397.5v942h103v-946q0 -211 117 -328.5t331 -117.5q209 0 324 115.5t115 320.5v956h102zM833 1579h-69q-96 79 -188.5 171.5t-125.5 139.5v17h142q26 -48 98.5 -142t142.5 -170v-16z" />
    <glyph glyph-name="Uacute" unicode="&#xda;" horiz-adv-x="1473" 
d="M1282 1462v-946q0 -252 -146 -394t-407 -142q-254 0 -396.5 142.5t-142.5 397.5v942h103v-946q0 -211 117 -328.5t331 -117.5q209 0 324 115.5t115 320.5v956h102zM633 1595q73 79 144.5 171.5t97.5 140.5h141v-17q-36 -52 -122.5 -138t-190.5 -173h-70v16z" />
    <glyph glyph-name="Ucircumflex" unicode="&#xdb;" horiz-adv-x="1473" 
d="M1282 1462v-946q0 -252 -146 -394t-407 -142q-254 0 -396.5 142.5t-142.5 397.5v942h103v-946q0 -211 117 -328.5t331 -117.5q209 0 324 115.5t115 320.5v956h102zM444 1595q62 67 131.5 156t110.5 156h98q68 -120 242 -312v-16h-70q-122 101 -221 207
q-108 -114 -221 -207h-70v16z" />
    <glyph glyph-name="Udieresis" unicode="&#xdc;" horiz-adv-x="1473" 
d="M1282 1462v-946q0 -252 -146 -394t-407 -142q-254 0 -396.5 142.5t-142.5 397.5v942h103v-946q0 -211 117 -328.5t331 -117.5q209 0 324 115.5t115 320.5v956h102zM481 1727q0 46 15.5 66t47.5 20q64 0 64 -86t-64 -86q-63 0 -63 86zM862 1727q0 46 15.5 66t47.5 20
q64 0 64 -86t-64 -86q-63 0 -63 86z" />
    <glyph glyph-name="Yacute" unicode="&#xdd;" horiz-adv-x="1081" 
d="M543 662l428 800h110l-487 -897v-565h-105v557l-489 905h117zM434 1595q73 79 144.5 171.5t97.5 140.5h141v-17q-36 -52 -122.5 -138t-190.5 -173h-70v16z" />
    <glyph glyph-name="Thorn" unicode="&#xde;" horiz-adv-x="1198" 
d="M1087 778q0 -212 -144 -325t-408 -113h-226v-340h-102v1462h102v-264h256q522 0 522 -420zM309 428h201q247 0 357 81.5t110 264.5q0 169 -104 250.5t-322 81.5h-242v-678z" />
    <glyph glyph-name="germandbls" unicode="&#xdf;" horiz-adv-x="1194" 
d="M961 1284q0 -139 -139 -250q-81 -64 -110.5 -100.5t-29.5 -75.5q0 -44 14.5 -68t51.5 -57t102 -78q106 -75 151.5 -124.5t68 -103t22.5 -120.5q0 -156 -88 -241.5t-246 -85.5q-95 0 -174.5 18.5t-126.5 48.5v107q65 -38 148.5 -62t152.5 -24q114 0 174.5 54.5t60.5 160.5
q0 83 -39 144t-149 136q-127 87 -175 147t-48 146q0 60 32.5 110t106.5 108q74 57 106.5 105.5t32.5 106.5q0 93 -70 143t-202 50q-145 0 -226 -69t-81 -196v-1214h-99v1206q0 173 103.5 267t292.5 94q188 0 285.5 -72.5t97.5 -210.5z" />
    <glyph glyph-name="agrave" unicode="&#xe0;" horiz-adv-x="1085" 
d="M842 0l-25 172h-8q-82 -105 -168.5 -148.5t-204.5 -43.5q-160 0 -249 82t-89 227q0 159 132.5 247t383.5 93l207 6v72q0 155 -63 234t-203 79q-151 0 -313 -84l-37 86q179 84 354 84q179 0 267.5 -93t88.5 -290v-723h-73zM442 70q174 0 274.5 99.5t100.5 276.5v107
l-190 -8q-229 -11 -326.5 -71.5t-97.5 -188.5q0 -102 62.5 -158.5t176.5 -56.5zM638 1241h-69q-96 79 -188.5 171.5t-125.5 139.5v17h142q26 -48 98.5 -142t142.5 -170v-16z" />
    <glyph glyph-name="aacute" unicode="&#xe1;" horiz-adv-x="1085" 
d="M842 0l-25 172h-8q-82 -105 -168.5 -148.5t-204.5 -43.5q-160 0 -249 82t-89 227q0 159 132.5 247t383.5 93l207 6v72q0 155 -63 234t-203 79q-151 0 -313 -84l-37 86q179 84 354 84q179 0 267.5 -93t88.5 -290v-723h-73zM442 70q174 0 274.5 99.5t100.5 276.5v107
l-190 -8q-229 -11 -326.5 -71.5t-97.5 -188.5q0 -102 62.5 -158.5t176.5 -56.5zM422 1257q73 79 144.5 171.5t97.5 140.5h141v-17q-36 -52 -122.5 -138t-190.5 -173h-70v16z" />
    <glyph glyph-name="acircumflex" unicode="&#xe2;" horiz-adv-x="1085" 
d="M842 0l-25 172h-8q-82 -105 -168.5 -148.5t-204.5 -43.5q-160 0 -249 82t-89 227q0 159 132.5 247t383.5 93l207 6v72q0 155 -63 234t-203 79q-151 0 -313 -84l-37 86q179 84 354 84q179 0 267.5 -93t88.5 -290v-723h-73zM442 70q174 0 274.5 99.5t100.5 276.5v107
l-190 -8q-229 -11 -326.5 -71.5t-97.5 -188.5q0 -102 62.5 -158.5t176.5 -56.5zM251 1257q62 67 131.5 156t110.5 156h98q68 -120 242 -312v-16h-70q-122 101 -221 207q-108 -114 -221 -207h-70v16z" />
    <glyph glyph-name="atilde" unicode="&#xe3;" horiz-adv-x="1085" 
d="M842 0l-25 172h-8q-82 -105 -168.5 -148.5t-204.5 -43.5q-160 0 -249 82t-89 227q0 159 132.5 247t383.5 93l207 6v72q0 155 -63 234t-203 79q-151 0 -313 -84l-37 86q179 84 354 84q179 0 267.5 -93t88.5 -290v-723h-73zM442 70q174 0 274.5 99.5t100.5 276.5v107
l-190 -8q-229 -11 -326.5 -71.5t-97.5 -188.5q0 -102 62.5 -158.5t176.5 -56.5zM697 1243q-36 0 -75 18.5t-101 71.5q-32 26 -62.5 46t-62.5 20q-45 0 -75 -34.5t-48 -121.5h-73q10 111 63 174.5t137 63.5q48 0 88 -25t82 -59q34 -28 66 -50t61 -22q46 0 77 36.5t48 119.5
h76q-16 -116 -69 -177t-132 -61z" />
    <glyph glyph-name="adieresis" unicode="&#xe4;" horiz-adv-x="1085" 
d="M842 0l-25 172h-8q-82 -105 -168.5 -148.5t-204.5 -43.5q-160 0 -249 82t-89 227q0 159 132.5 247t383.5 93l207 6v72q0 155 -63 234t-203 79q-151 0 -313 -84l-37 86q179 84 354 84q179 0 267.5 -93t88.5 -290v-723h-73zM442 70q174 0 274.5 99.5t100.5 276.5v107
l-190 -8q-229 -11 -326.5 -71.5t-97.5 -188.5q0 -102 62.5 -158.5t176.5 -56.5zM282 1389q0 46 15.5 66t47.5 20q64 0 64 -86t-64 -86q-63 0 -63 86zM663 1389q0 46 15.5 66t47.5 20q64 0 64 -86t-64 -86q-63 0 -63 86z" />
    <glyph glyph-name="aring" unicode="&#xe5;" horiz-adv-x="1085" 
d="M842 0l-25 172h-8q-82 -105 -168.5 -148.5t-204.5 -43.5q-160 0 -249 82t-89 227q0 159 132.5 247t383.5 93l207 6v72q0 155 -63 234t-203 79q-151 0 -313 -84l-37 86q179 84 354 84q179 0 267.5 -93t88.5 -290v-723h-73zM442 70q174 0 274.5 99.5t100.5 276.5v107
l-190 -8q-229 -11 -326.5 -71.5t-97.5 -188.5q0 -102 62.5 -158.5t176.5 -56.5zM759 1456q0 -97 -60 -155t-157 -58t-157 58t-60 155q0 94 60 152.5t157 58.5t157 -59t60 -152zM405 1456q0 -66 37.5 -103.5t99.5 -37.5t99.5 37.5t37.5 103.5q0 64 -39 101.5t-98 37.5
q-62 0 -99.5 -38t-37.5 -101z" />
    <glyph glyph-name="ae" unicode="&#xe6;" horiz-adv-x="1731" 
d="M1243 -20q-295 0 -397 256q-68 -133 -168 -194.5t-252 -61.5q-156 0 -242 82.5t-86 226.5q0 154 125 243t377 97l201 6v72q0 155 -61.5 234t-198.5 79q-148 0 -305 -84l-37 86q173 84 346 84q261 0 325 -211q111 213 347 213q184 0 289.5 -134.5t105.5 -363.5v-80h-715
q0 -460 348 -460q85 0 150 12t174 57v-90q-92 -41 -165 -55t-161 -14zM434 70q169 0 266 99.5t97 276.5v107l-187 -8q-219 -11 -313 -71.5t-94 -188.5q0 -102 61 -158.5t170 -56.5zM1217 1020q-284 0 -314 -402h604q0 188 -77.5 295t-212.5 107z" />
    <glyph glyph-name="ccedilla" unicode="&#xe7;" horiz-adv-x="973" 
d="M616 -20q-233 0 -365 147t-132 410q0 270 137 420.5t375 150.5q141 0 270 -49l-27 -88q-141 47 -245 47q-200 0 -303 -123.5t-103 -355.5q0 -220 103 -344.5t288 -124.5q148 0 275 53v-92q-104 -51 -273 -51zM723 -291q0 -100 -67.5 -150.5t-188.5 -50.5q-68 0 -94 11v88
q30 -10 92 -10q78 0 119 28t41 80q0 94 -193 121l93 174h96l-66 -117q168 -37 168 -174z" />
    <glyph glyph-name="egrave" unicode="&#xe8;" horiz-adv-x="1124" 
d="M621 -20q-237 0 -369.5 146t-132.5 409q0 260 128 416.5t345 156.5q192 0 303 -134t111 -364v-80h-783q2 -224 104.5 -342t293.5 -118q93 0 163.5 13t178.5 56v-90q-92 -40 -170 -54.5t-172 -14.5zM592 1020q-157 0 -252 -103.5t-111 -298.5h672q0 189 -82 295.5
t-227 106.5zM685 1241h-69q-96 79 -188.5 171.5t-125.5 139.5v17h142q26 -48 98.5 -142t142.5 -170v-16z" />
    <glyph glyph-name="eacute" unicode="&#xe9;" horiz-adv-x="1124" 
d="M621 -20q-237 0 -369.5 146t-132.5 409q0 260 128 416.5t345 156.5q192 0 303 -134t111 -364v-80h-783q2 -224 104.5 -342t293.5 -118q93 0 163.5 13t178.5 56v-90q-92 -40 -170 -54.5t-172 -14.5zM592 1020q-157 0 -252 -103.5t-111 -298.5h672q0 189 -82 295.5
t-227 106.5zM452 1257q73 79 144.5 171.5t97.5 140.5h141v-17q-36 -52 -122.5 -138t-190.5 -173h-70v16z" />
    <glyph glyph-name="ecircumflex" unicode="&#xea;" horiz-adv-x="1124" 
d="M621 -20q-237 0 -369.5 146t-132.5 409q0 260 128 416.5t345 156.5q192 0 303 -134t111 -364v-80h-783q2 -224 104.5 -342t293.5 -118q93 0 163.5 13t178.5 56v-90q-92 -40 -170 -54.5t-172 -14.5zM592 1020q-157 0 -252 -103.5t-111 -298.5h672q0 189 -82 295.5
t-227 106.5zM290 1257q62 67 131.5 156t110.5 156h98q68 -120 242 -312v-16h-70q-122 101 -221 207q-108 -114 -221 -207h-70v16z" />
    <glyph glyph-name="edieresis" unicode="&#xeb;" horiz-adv-x="1124" 
d="M621 -20q-237 0 -369.5 146t-132.5 409q0 260 128 416.5t345 156.5q192 0 303 -134t111 -364v-80h-783q2 -224 104.5 -342t293.5 -118q93 0 163.5 13t178.5 56v-90q-92 -40 -170 -54.5t-172 -14.5zM592 1020q-157 0 -252 -103.5t-111 -298.5h672q0 189 -82 295.5
t-227 106.5zM331 1389q0 46 15.5 66t47.5 20q64 0 64 -86t-64 -86q-63 0 -63 86zM712 1389q0 46 15.5 66t47.5 20q64 0 64 -86t-64 -86q-63 0 -63 86z" />
    <glyph glyph-name="igrave" unicode="&#xec;" horiz-adv-x="463" 
d="M281 0h-99v1087h99v-1087zM349 1241h-69q-96 79 -188.5 171.5t-125.5 139.5v17h142q26 -48 98.5 -142t142.5 -170v-16z" />
    <glyph glyph-name="iacute" unicode="&#xed;" horiz-adv-x="463" 
d="M281 0h-99v1087h99v-1087zM107 1257q73 79 144.5 171.5t97.5 140.5h141v-17q-36 -52 -122.5 -138t-190.5 -173h-70v16z" />
    <glyph glyph-name="icircumflex" unicode="&#xee;" horiz-adv-x="463" 
d="M281 0h-99v1087h99v-1087zM-58 1257q62 67 131.5 156t110.5 156h98q68 -120 242 -312v-16h-70q-122 101 -221 207q-108 -114 -221 -207h-70v16z" />
    <glyph glyph-name="idieresis" unicode="&#xef;" horiz-adv-x="463" 
d="M281 0h-99v1087h99v-1087zM-21 1389q0 46 15.5 66t47.5 20q64 0 64 -86t-64 -86q-63 0 -63 86zM360 1389q0 46 15.5 66t47.5 20q64 0 64 -86t-64 -86q-63 0 -63 86z" />
    <glyph glyph-name="eth" unicode="&#xf0;" horiz-adv-x="1174" 
d="M1055 559q0 -276 -124 -427.5t-349 -151.5q-214 0 -339.5 130t-125.5 361q0 228 126.5 357.5t342.5 129.5q108 0 187.5 -33t148.5 -96l4 2q-64 270 -269 459l-270 -157l-49 77l244 146q-86 62 -199 119l45 81q147 -69 248 -145l225 137l49 -84l-202 -121
q154 -151 230.5 -353t76.5 -431zM950 557q0 146 -97 228.5t-267 82.5q-185 0 -275 -100.5t-90 -304.5q0 -186 94.5 -289.5t268.5 -103.5q179 0 272.5 123t93.5 364z" />
    <glyph glyph-name="ntilde" unicode="&#xf1;" horiz-adv-x="1208" 
d="M940 0v705q0 164 -69 238.5t-214 74.5q-195 0 -285.5 -98.5t-90.5 -319.5v-600h-99v1087h84l19 -149h6q106 170 377 170q370 0 370 -397v-711h-98zM779 1243q-36 0 -75 18.5t-101 71.5q-32 26 -62.5 46t-62.5 20q-45 0 -75 -34.5t-48 -121.5h-73q10 111 63 174.5
t137 63.5q48 0 88 -25t82 -59q34 -28 66 -50t61 -22q46 0 77 36.5t48 119.5h76q-16 -116 -69 -177t-132 -61z" />
    <glyph glyph-name="ograve" unicode="&#xf2;" horiz-adv-x="1200" 
d="M1081 545q0 -266 -129 -415.5t-356 -149.5q-143 0 -252 69t-167 198t-58 298q0 266 129 414.5t354 148.5q224 0 351.5 -150.5t127.5 -412.5zM223 545q0 -224 98.5 -349.5t278.5 -125.5t278.5 125.5t98.5 349.5q0 225 -99.5 349t-279.5 124t-277.5 -123.5t-97.5 -349.5z
M718 1241h-69q-96 79 -188.5 171.5t-125.5 139.5v17h142q26 -48 98.5 -142t142.5 -170v-16z" />
    <glyph glyph-name="oacute" unicode="&#xf3;" horiz-adv-x="1200" 
d="M1081 545q0 -266 -129 -415.5t-356 -149.5q-143 0 -252 69t-167 198t-58 298q0 266 129 414.5t354 148.5q224 0 351.5 -150.5t127.5 -412.5zM223 545q0 -224 98.5 -349.5t278.5 -125.5t278.5 125.5t98.5 349.5q0 225 -99.5 349t-279.5 124t-277.5 -123.5t-97.5 -349.5z
M499 1257q73 79 144.5 171.5t97.5 140.5h141v-17q-36 -52 -122.5 -138t-190.5 -173h-70v16z" />
    <glyph glyph-name="ocircumflex" unicode="&#xf4;" horiz-adv-x="1200" 
d="M1081 545q0 -266 -129 -415.5t-356 -149.5q-143 0 -252 69t-167 198t-58 298q0 266 129 414.5t354 148.5q224 0 351.5 -150.5t127.5 -412.5zM223 545q0 -224 98.5 -349.5t278.5 -125.5t278.5 125.5t98.5 349.5q0 225 -99.5 349t-279.5 124t-277.5 -123.5t-97.5 -349.5z
M309 1257q62 67 131.5 156t110.5 156h98q68 -120 242 -312v-16h-70q-122 101 -221 207q-108 -114 -221 -207h-70v16z" />
    <glyph glyph-name="otilde" unicode="&#xf5;" horiz-adv-x="1200" 
d="M1081 545q0 -266 -129 -415.5t-356 -149.5q-143 0 -252 69t-167 198t-58 298q0 266 129 414.5t354 148.5q224 0 351.5 -150.5t127.5 -412.5zM223 545q0 -224 98.5 -349.5t278.5 -125.5t278.5 125.5t98.5 349.5q0 225 -99.5 349t-279.5 124t-277.5 -123.5t-97.5 -349.5z
M761 1243q-36 0 -75 18.5t-101 71.5q-32 26 -62.5 46t-62.5 20q-45 0 -75 -34.5t-48 -121.5h-73q10 111 63 174.5t137 63.5q48 0 88 -25t82 -59q34 -28 66 -50t61 -22q46 0 77 36.5t48 119.5h76q-16 -116 -69 -177t-132 -61z" />
    <glyph glyph-name="odieresis" unicode="&#xf6;" horiz-adv-x="1200" 
d="M1081 545q0 -266 -129 -415.5t-356 -149.5q-143 0 -252 69t-167 198t-58 298q0 266 129 414.5t354 148.5q224 0 351.5 -150.5t127.5 -412.5zM223 545q0 -224 98.5 -349.5t278.5 -125.5t278.5 125.5t98.5 349.5q0 225 -99.5 349t-279.5 124t-277.5 -123.5t-97.5 -349.5z
M346 1389q0 46 15.5 66t47.5 20q64 0 64 -86t-64 -86q-63 0 -63 86zM727 1389q0 46 15.5 66t47.5 20q64 0 64 -86t-64 -86q-63 0 -63 86z" />
    <glyph glyph-name="divide" unicode="&#xf7;" horiz-adv-x="1169" 
d="M111 682v82h948v-82h-948zM504 1075q0 99 80 99q82 0 82 -99q0 -52 -23.5 -75t-58.5 -23q-34 0 -57 23t-23 75zM504 371q0 98 80 98q82 0 82 -98q0 -53 -23.5 -76t-58.5 -23q-34 0 -57 23t-23 76z" />
    <glyph glyph-name="oslash" unicode="&#xf8;" horiz-adv-x="1200" 
d="M1081 545q0 -266 -129 -415.5t-356 -149.5q-173 0 -291 98l-86 -113l-72 58l93 120q-121 153 -121 402q0 266 129 414.5t354 148.5q179 0 301 -104l96 124l74 -55l-104 -137q112 -147 112 -391zM223 545q0 -200 78 -322l543 705q-98 90 -246 90q-180 0 -277.5 -123.5
t-97.5 -349.5zM977 545q0 190 -72 309l-543 -702q94 -82 238 -82q180 0 278.5 125.5t98.5 349.5z" />
    <glyph glyph-name="ugrave" unicode="&#xf9;" horiz-adv-x="1208" 
d="M268 1087v-704q0 -164 69 -238.5t214 -74.5q194 0 285.5 98t91.5 319v600h98v-1087h-84l-18 150h-6q-106 -170 -377 -170q-371 0 -371 397v710h98zM687 1241h-69q-96 79 -188.5 171.5t-125.5 139.5v17h142q26 -48 98.5 -142t142.5 -170v-16z" />
    <glyph glyph-name="uacute" unicode="&#xfa;" horiz-adv-x="1208" 
d="M268 1087v-704q0 -164 69 -238.5t214 -74.5q194 0 285.5 98t91.5 319v600h98v-1087h-84l-18 150h-6q-106 -170 -377 -170q-371 0 -371 397v710h98zM495 1257q73 79 144.5 171.5t97.5 140.5h141v-17q-36 -52 -122.5 -138t-190.5 -173h-70v16z" />
    <glyph glyph-name="ucircumflex" unicode="&#xfb;" horiz-adv-x="1208" 
d="M268 1087v-704q0 -164 69 -238.5t214 -74.5q194 0 285.5 98t91.5 319v600h98v-1087h-84l-18 150h-6q-106 -170 -377 -170q-371 0 -371 397v710h98zM313 1257q62 67 131.5 156t110.5 156h98q68 -120 242 -312v-16h-70q-122 101 -221 207q-108 -114 -221 -207h-70v16z" />
    <glyph glyph-name="udieresis" unicode="&#xfc;" horiz-adv-x="1208" 
d="M268 1087v-704q0 -164 69 -238.5t214 -74.5q194 0 285.5 98t91.5 319v600h98v-1087h-84l-18 150h-6q-106 -170 -377 -170q-371 0 -371 397v710h98zM350 1389q0 46 15.5 66t47.5 20q64 0 64 -86t-64 -86q-63 0 -63 86zM731 1389q0 46 15.5 66t47.5 20q64 0 64 -86t-64 -86
q-63 0 -63 86z" />
    <glyph glyph-name="yacute" unicode="&#xfd;" horiz-adv-x="940" 
d="M0 1087h102l230 -610q105 -281 133 -379h6q42 129 137 385l230 604h102l-487 -1263q-59 -154 -99 -208t-93.5 -81t-129.5 -27q-57 0 -127 21v86q58 -16 125 -16q51 0 90 24t70.5 74.5t73 160t53.5 142.5zM361 1257q73 79 144.5 171.5t97.5 140.5h141v-17
q-36 -52 -122.5 -138t-190.5 -173h-70v16z" />
    <glyph glyph-name="thorn" unicode="&#xfe;" horiz-adv-x="1219" 
d="M281 918q114 190 368 190q220 0 335.5 -144.5t115.5 -420.5q0 -268 -121.5 -415.5t-331.5 -147.5q-251 0 -366 188h-7l3 -84q4 -74 4 -162v-414h-99v2048h99v-391l-7 -247h7zM645 68q167 0 258.5 124t91.5 347q0 479 -348 479q-193 0 -279.5 -105t-86.5 -354v-18
q0 -255 85.5 -364t278.5 -109z" />
    <glyph glyph-name="ydieresis" unicode="&#xff;" horiz-adv-x="940" 
d="M0 1087h102l230 -610q105 -281 133 -379h6q42 129 137 385l230 604h102l-487 -1263q-59 -154 -99 -208t-93.5 -81t-129.5 -27q-57 0 -127 21v86q58 -16 125 -16q51 0 90 24t70.5 74.5t73 160t53.5 142.5zM214 1389q0 46 15.5 66t47.5 20q64 0 64 -86t-64 -86
q-63 0 -63 86zM595 1389q0 46 15.5 66t47.5 20q64 0 64 -86t-64 -86q-63 0 -63 86z" />
    <glyph glyph-name="dotlessi" unicode="&#x131;" horiz-adv-x="518" 
d="M319 0h-123v1096h123v-1096z" />
    <glyph glyph-name="circumflex" unicode="&#x2c6;" horiz-adv-x="1024" 
d="M453 1434h118l232 -356h-58l-233 214l-233 -214h-58z" />
    <glyph glyph-name="caron" unicode="&#x2c7;" horiz-adv-x="1024" 
d="M221 1434h58l233 -214l233 214h58l-232 -356h-118z" />
    <glyph glyph-name="uni02C9" unicode="&#x2c9;" horiz-adv-x="1024" 
d="M254 1195v125h516v-125h-516z" />
    <glyph glyph-name="breve" unicode="&#x2d8;" horiz-adv-x="1024" 
d="M219 1349h51q17 -73 75 -107t167 -34t166 33.5t74 107.5h51q-20 -133 -94 -201.5t-197 -68.5q-122 0 -197 69t-96 201z" />
    <glyph glyph-name="dotaccent" unicode="&#x2d9;" horiz-adv-x="1024" 
d="M422 1289l69 72q6 6 13 9t14 3q6 0 12.5 -3t12.5 -9l71 -76q5 -4 7 -10t2 -14q-1 -9 -3 -15t-8 -12l-71 -76q-12 -11 -16 -13.5t-7 -2.5q-10 0 -16.5 2.5t-10.5 8.5l-75 87q-4 4 -6 9.5t-2 13.5q0 6 3 12.5t11 13.5z" />
    <glyph glyph-name="ring" unicode="&#x2da;" horiz-adv-x="1024" 
d="M411 1257q0 -42 29 -71t71 -29t71 29t29 71q0 40 -29.5 69.5t-70.5 29.5t-70.5 -29.5t-29.5 -69.5zM335 1257q0 75 51 126t125 51q76 0 127.5 -51.5t51.5 -125.5q0 -75 -51.5 -126.5t-127.5 -51.5q-74 0 -125 51.5t-51 126.5z" />
    <glyph glyph-name="ogonek" unicode="&#x2db;" horiz-adv-x="1024" 
d="M640 0q-71 -62 -110.5 -119.5t-39.5 -112.5q0 -47 27 -75t73 -28q40 0 69.5 15.5t49.5 48.5l28 -16q-36 -63 -90.5 -97t-119.5 -34q-70 0 -114 35.5t-44 90.5q0 76 60.5 156.5t161.5 135.5h49z" />
    <glyph glyph-name="tilde" unicode="&#x2dc;" horiz-adv-x="1024" 
d="M808 1382q-20 -103 -68.5 -154t-126.5 -51h-4q-50 0 -113 23q-66 24 -114 24q-39 0 -60.5 -20.5t-33.5 -71.5h-54q19 106 68 158.5t129 52.5q46 -1 113 -24q64 -23 112 -23h4q36 0 58 20t36 66h54z" />
    <glyph glyph-name="hungarumlaut" unicode="&#x2dd;" horiz-adv-x="1024" 
d="M217 1079l144 273q24 44 45.5 63t46.5 19q28 0 48 -20t20 -47q0 -16 -10.5 -35t-30.5 -41l-205 -212h-58zM502 1079l144 273q24 44 45.5 63t46.5 19q28 0 48 -20t20 -47q0 -16 -10.5 -35t-30.5 -41l-205 -212h-58z" />
    <glyph glyph-name="endash" unicode="&#x2013;" horiz-adv-x="1108" 
d="M56 419v120h996v-120h-996z" />
    <glyph glyph-name="emdash" unicode="&#x2014;" horiz-adv-x="2048" 
d="M0 419v120h2048v-120h-2048z" />
    <glyph glyph-name="quoteleft" unicode="&#x2018;" horiz-adv-x="557" 
d="M319 1016q-44 0 -88.5 65.5t-44.5 151.5q0 109 71 226.5t139 117.5v-43q-73 -43 -87 -190q0 -119 129 -161v-42z" />
    <glyph glyph-name="quoteright" unicode="&#x2019;" horiz-adv-x="557" 
d="M238 1577q44 0 88.5 -65.5t44.5 -151.5q0 -109 -71 -226.5t-139 -117.5v43q73 43 87 190q0 119 -129 161v42z" />
    <glyph glyph-name="quotesinglbase" unicode="&#x201a;" horiz-adv-x="557" 
d="M238 281q44 0 88.5 -65.5t44.5 -151.5q0 -109 -71 -226.5t-139 -117.5v43q73 43 87 190q0 119 -129 161v42z" />
    <glyph glyph-name="quotedblleft" unicode="&#x201c;" horiz-adv-x="910" 
d="M319 1016q-44 0 -88.5 65.5t-44.5 151.5q0 109 71 226.5t139 117.5v-43q-73 -43 -87 -190q0 -119 129 -161v-42zM672 1016q-44 0 -88.5 65.5t-44.5 151.5q0 109 71 226.5t139 117.5v-43q-73 -43 -87 -190q0 -119 129 -161v-42z" />
    <glyph glyph-name="quotedblright" unicode="&#x201d;" horiz-adv-x="910" 
d="M238 1577q44 0 88.5 -65.5t44.5 -151.5q0 -109 -71 -226.5t-139 -117.5v43q73 43 87 190q0 119 -129 161v42zM591 1577q44 0 88.5 -65.5t44.5 -151.5q0 -109 -71 -226.5t-139 -117.5v43q73 43 87 190q0 119 -129 161v42z" />
    <glyph glyph-name="quotedblbase" unicode="&#x201e;" horiz-adv-x="910" 
d="M238 281q44 0 88.5 -65.5t44.5 -151.5q0 -109 -71 -226.5t-139 -117.5v43q73 43 87 190q0 119 -129 161v42zM591 281q44 0 88.5 -65.5t44.5 -151.5q0 -109 -71 -226.5t-139 -117.5v43q73 43 87 190q0 119 -129 161v42z" />
    <glyph glyph-name="dagger" unicode="&#x2020;" horiz-adv-x="1014" 
d="M486 1022q-8 97 -54 178q-57 101 -57 129q0 49 36 78.5t96 29.5q57 0 94.5 -27.5t37.5 -71.5q0 -32 -55 -137q-46 -85 -55 -179q96 8 177 54q101 57 129 57q49 0 79 -36t30 -96q0 -57 -27.5 -94.5t-72.5 -37.5q-32 0 -136 55q-85 46 -179 57q8 -176 110 -277
q-106 -460 -112 -974h-38q-6 514 -114 974q102 101 111 277q-96 -10 -178 -55q-101 -57 -129 -57q-49 0 -78.5 36t-29.5 96q0 57 27.5 94.5t71.5 37.5q32 0 137 -56q85 -46 179 -55z" />
    <glyph glyph-name="daggerdbl" unicode="&#x2021;" horiz-adv-x="1014" 
d="M528 186q94 11 179 57q104 55 136 55q45 0 72.5 -37.5t27.5 -94.5q0 -60 -30 -96t-79 -36q-28 0 -129 57q-81 46 -177 54q9 -94 55 -179q55 -105 55 -137q0 -44 -37.5 -71.5t-94.5 -27.5q-60 0 -96 29.5t-36 78.5q0 28 57 129q46 81 54 178q-94 -9 -179 -55
q-105 -56 -137 -56q-44 0 -71.5 37.5t-27.5 94.5q0 60 29.5 96t78.5 36q28 0 129 -57q82 -45 178 -55q-9 226 -111 398q102 171 111 397q-96 -10 -178 -55q-101 -57 -129 -57q-49 0 -78.5 36t-29.5 96q0 57 27.5 94.5t71.5 37.5q32 0 137 -56q85 -46 179 -55q-8 97 -54 178
q-57 101 -57 129q0 49 36 78.5t96 29.5q57 0 94.5 -27.5t37.5 -71.5q0 -32 -55 -137q-46 -85 -55 -179q96 8 177 54q101 57 129 57q49 0 79 -36t30 -96q0 -57 -27.5 -94.5t-72.5 -37.5q-32 0 -136 55q-85 46 -179 57q8 -226 110 -397q-102 -172 -110 -398z" />
    <glyph glyph-name="bullet" unicode="&#x2022;" horiz-adv-x="1024" 
d="M216 718q0 123 87 209t210 86q122 0 208.5 -86.5t86.5 -208.5t-87.5 -209.5t-209.5 -87.5q-123 0 -209 87t-86 210z" />
    <glyph glyph-name="ellipsis" unicode="&#x2026;" horiz-adv-x="2048" 
d="M145 167l82 84q15 14 29 14q13 0 31 -16l80 -86q12 -16 12 -29q0 -15 -14 -31l-80 -88q-20 -20 -29 -20q-16 0 -29 14l-88 101q-10 13 -10 26q0 15 16 31zM828 167l82 84q15 14 29 14q13 0 31 -16l80 -86q12 -16 12 -29q0 -15 -14 -31l-80 -88q-20 -20 -29 -20
q-16 0 -29 14l-88 101q-10 13 -10 26q0 15 16 31zM1511 167l82 84q15 14 29 14q13 0 31 -16l80 -86q12 -16 12 -29q0 -15 -14 -31l-80 -88q-20 -20 -29 -20q-16 0 -29 14l-88 101q-10 13 -10 26q0 15 16 31z" />
    <glyph glyph-name="guilsinglleft" unicode="&#x2039;" horiz-adv-x="631" 
d="M174 479l342 303h14v-37l-205 -266l205 -266v-37h-14z" />
    <glyph glyph-name="guilsinglright" unicode="&#x203a;" horiz-adv-x="631" 
d="M115 176h-14v37l205 266l-205 266v37h14l342 -303z" />
    <glyph glyph-name="fraction" unicode="&#x2044;" horiz-adv-x="342" 
d="M-342 -29l940 1461h84l-938 -1461h-86z" />
    <glyph glyph-name="fraction" unicode="&#x2215;" horiz-adv-x="342" 
d="M-342 -29l940 1461h84l-938 -1461h-86z" />
    <glyph glyph-name="franc" unicode="&#x20a3;" horiz-adv-x="1014" 
d="M247 357h-194v60h194v732q0 235 -103 235h-96v50h915l103 -231h-49q-59 182 -190 182l-316 -1q-102 0 -102 -235v-352h361q100 0 100 63v58h50v-342h-50v60q0 62 -100 62h-361v-281h194v-60h-194v-72q0 -235 102 -235h97v-50h-560v50h96q103 0 103 235v72z" />
    <glyph glyph-name="lira" unicode="&#x20a4;" horiz-adv-x="1014" 
d="M748 1347q-72 31 -160 31h-2q-100 0 -190 -101q-84 -93 -84 -241q0 -15 1 -30q0 -106 33 -213h380v-60h-360q12 -30 26 -60h352v-60h-321q35 -63 35 -138q0 -161 -162 -375h402q130 0 189 132l49 -1l-103 -231h-719l1 50q187 238 187 418q0 77 -34 143l-2 2h-172v60h143
q-14 31 -26 60h-135v60h113q-36 107 -36 193q0 226 123.5 347t310.5 121q75 0 185.5 -14t110.5 -34v-161h-58q-5 61 -77 102z" />
    <glyph glyph-name="peseta" unicode="&#x20a7;" horiz-adv-x="2028" 
d="M409 1384v-662q3 -9 7 -17q41 -102 108 -153q57 -44 116 -44q10 0 19 1q68 8 127 75t87 177q22 87 22 179q0 24 -1 47q-7 116 -49.5 218.5t-108.5 144.5q-56 35 -112 35q-10 0 -21 -1h-194zM1496 908h-179v-685q0 -81 34 -119q28 -31 81 -37l-71 192l49 1
q55 -130 114 -174q57 -44 127 -44h7q92 0 151 52q59 53 59 136q0 102 -259 226q-101 52 -144 112t-43 145q0 121 73 194zM1039 910q-7 -101 -48 -194q-50 -114 -141 -177.5t-190 -63.5q-100 0 -191 64q-33 22 -60 51v-305q0 -235 102 -235h97v-50h-560v50h96q103 0 103 235
v864q0 235 -103 235h-96v50h618q92 -2 181 -62q91 -62 143 -177q50 -113 51 -237h10q216 0 216 355h50v-355h259q42 19 110 20h2q54 0 133.5 -13.5t79.5 -33.5v-159h-42q-4 66 -65.5 108t-133.5 42q-64 0 -102.5 -36.5t-38.5 -96.5q0 -108 235 -220q122 -55 167.5 -117.5
t45.5 -153.5q0 -140 -83 -231q-102 -84 -228 -86q-58 0 -105 11q-28 6 -56 6q-18 0 -36 -3q-28 -5 -59 -5q-124 0 -173.5 57t-57.5 176h-1v687h-129z" />
    <glyph glyph-name="Euro" unicode="&#x20ac;" horiz-adv-x="1014" 
d="M140 372q-62 135 -76 281h-108l17 60h87v29q0 16 1 31h-71l17 60h58q14 145 76 281q81 178 226 274t298 96q43 0 87 -8q40 -10 82 -29q8 -6 16 -6q20 0 34 45h41l84 -281l-40 -1q-49 134 -138 178q-43 22 -81 32v3q-50 16 -101 16q-17 0 -34 -2q-120 -12 -226 -113.5
t-157 -273.5q-32 -104 -39 -211h706l-17 -60h-692q0 -30 2 -60h674l-17 -60h-652q17 -158 83 -298q74 -157 193 -236q102 -68 216 -69q186 3 256 91q74 91 74 185h48v-143q0 -70 -111 -127q-105 -54 -267 -56q-181 0 -325.5 98t-223.5 274z" />
    <glyph glyph-name="uni2116" unicode="&#x2116;" horiz-adv-x="1648" 
d="M977 -1h-157l-640 1057v-1057h-127v1254h155l645 -1048h7q-2 23 -7.5 148.5t-4.5 179.5v720h129v-1254zM1613 552q0 -164 -74.5 -256.5t-206.5 -92.5q-81 0 -144 42.5t-97.5 121.5t-34.5 185q0 165 74 256.5t206 91.5q127 0 202 -94t75 -254zM1151 552
q0 -129 46.5 -196.5t136.5 -67.5t137 67.5t47 196.5q0 128 -47 194.5t-138 66.5q-90 0 -136 -65.5t-46 -195.5zM1598 99v-99h-513v99h513z" />
    <glyph glyph-name="trademark" unicode="&#x2122;" horiz-adv-x="1497" 
d="M362 887h-93v489h-255v56h602v-56h-254v-489zM1028 889l-273 483h-4q7 -57 7 -136v-347h-86v545h141l254 -450h5l256 450h140v-545h-93v351q0 61 7 131h-4l-275 -482h-75z" />
    <glyph glyph-name="partialdiff" unicode="&#x2202;" horiz-adv-x="1014" 
d="M232 537q0 -41 5 -79q14 -122 61.5 -230t118.5 -165q64 -53 128 -53q6 0 13 1q70 5 127.5 70.5t80.5 179.5q16 73 16 149q0 42 -5 85q-14 122 -62.5 231.5t-119.5 165.5q-65 50 -128 50h-11q-68 -5 -126 -69.5t-82 -178.5q-16 -84 -16 -157zM937 477q0 -132 -56.5 -251
t-159 -185t-214.5 -66t-214.5 66t-159 185t-56.5 251q0 131 58 251t161 185t211 65q109 0 212 -65q29 -18 54 -41q-84 235 -233.5 377t-326.5 155v55q306 0 515 -285t209 -697z" />
    <glyph glyph-name="Delta" unicode="&#x2206;" horiz-adv-x="1081" 
d="M514 1195l-406 -1072h801zM547 1434l526 -1434h-1067z" />
    <glyph glyph-name="product" unicode="&#x220f;" horiz-adv-x="1515" 
d="M511 1384q-102 0 -102 -235v-1281q0 -235 102 -235h97v-51h-560v51h96q103 0 103 235v1281q0 235 -103 235h-96v50h1419v-50h-97q-102 0 -102 -235v-1281q0 -235 102 -235h97v-50h-560v50h96q103 0 103 235v1281q0 235 -103 235h-492z" />
    <glyph glyph-name="summation" unicode="&#x2211;" horiz-adv-x="1206" 
d="M1059 548l-788 -914h635q130 0 189 182h49l-103 -232h-921v50q62 0 106 53l663 781l-663 859q-44 57 -106 57v50h921l103 -232h-49q-59 182 -189 182h-485z" />
    <glyph glyph-name="minus" unicode="&#x2212;" horiz-adv-x="1014" 
d="M87 647v140h839l1 -1v-139h-840z" />
    <glyph glyph-name="radical" unicode="&#x221a;" horiz-adv-x="1014" 
d="M181 0l-164 359l74 35l85 -185l728 1470h150v-60h-72z" />
    <glyph glyph-name="infinity" unicode="&#x221e;" horiz-adv-x="1014" 
d="M439 755q-15 103 -74 133q-46 22 -84 22q-12 0 -23 -2q-49 -10 -92.5 -44.5t-65.5 -84.5q-20 -46 -20 -90v-8q2 -48 27.5 -89t71.5 -58q29 -11 61 -11q16 0 33 3q47 10 90.5 43.5t75.5 185.5zM466 687q12 -96 94 -153q69 -48 123 -48q11 0 21 2q62 12 117.5 52t84.5 101
q26 54 26 108v11q-2 60 -35.5 108.5t-91.5 68.5q-37 13 -76 13q-22 0 -44 -4q-67 -9 -127 -62t-92 -197zM450 827q9 35 21 69q34 88 95 137t128 49t128 -48t95 -135t34 -182t-34 -182t-95 -135t-128 -48t-128 49t-95 136q-12 35 -21 70q-5 -21 -12 -41q-27 -73 -74 -113
t-99 -40t-100 41t-73.5 113.5t-25.5 149.5q0 76 25.5 149t73.5 114t100 41t99 -40t74 -112q7 -21 12 -42z" />
    <glyph glyph-name="integral" unicode="&#x222b;" horiz-adv-x="665" 
d="M-12 -281q-60 0 -60 29v159h36q1 -43 34.5 -64.5t63.5 -21.5h1q82 0 115 162q32 162 40 316l70 734l8 62q27 238 135 429.5t234 191.5q60 0 60 -29v-159h-36q-1 43 -35 64.5t-63 21.5q-71 0 -116 -155.5t-49 -363.5l-73 -767q-20 -231 -130.5 -420t-234.5 -189z" />
    <glyph glyph-name="approxequal" unicode="&#x2248;" horiz-adv-x="1014" 
d="M923 1053v-156q-63 -72 -122 -97.5t-116 -25.5q-60 0 -177.5 48.5t-176.5 48.5q-51 0 -107.5 -28t-129.5 -112v156q64 73 123 99t114 26q64 0 181.5 -49.5t172.5 -49.5q52 0 108.5 28t129.5 112zM923 705v-156q-63 -72 -122 -97.5t-116 -25.5q-60 0 -177.5 48.5
t-176.5 48.5q-51 0 -107.5 -28t-129.5 -112v156q64 73 123 99t114 26q64 0 181.5 -49.5t172.5 -49.5q52 0 108.5 28t129.5 112z" />
    <glyph glyph-name="lessequal" unicode="&#x2264;" horiz-adv-x="1014" 
d="M927 1074l-625 -359l625 -355v-167l-840 481v83l840 484v-167zM87 1v140h839l1 -1v-139h-840z" />
    <glyph glyph-name="greaterequal" unicode="&#x2265;" horiz-adv-x="1014" 
d="M87 1241l840 -484v-83l-840 -481v167l625 355l-625 359v167zM87 2v140h839l1 -1v-139h-840z" />
    <glyph glyph-name="uniF001" unicode="&#xf001;" horiz-adv-x="2002" 
d="M1845 731v-146q0 -61 -37 -103.5t-96 -42.5h-805l335 -336q43 -41 43 -103t-43 -103l-86 -87q-42 -42 -103 -42q-59 0 -104 42l-744 745q-42 42 -42 103q0 59 42 104l744 743q43 43 104 44q59 0 103 -44l86 -84q43 -43 43 -104t-43 -104l-335 -335h805q59 0 96 -43
t37 -104z" />
    <glyph glyph-name="uniF002" unicode="&#xf002;" horiz-adv-x="2002" 
d="M1842 658q0 -62 -42 -104l-744 -744q-45 -42 -104 -42q-58 0 -103 42l-86 86q-43 43 -43 104t43 104l335 335h-804q-59 0 -96.5 43t-37.5 103v146q0 61 37 104t97 43h804l-335 336q-43 41 -43 102.5t43 102.5l86 86q43 43 103 44q61 0 104 -44l744 -744q42 -40 42 -103z
" />
    <glyph glyph-name="uniF003" unicode="&#xf003;" horiz-adv-x="2002" 
d="M1891 646q0 -58 -42 -103l-86 -86q-43 -43 -104 -43q-62 0 -103 43l-336 335v-805q0 -59 -42.5 -96t-103.5 -37h-146q-61 0 -104 37t-43 96v805l-336 -335q-41 -43 -102.5 -43t-102.5 43l-86 86q-43 43 -43 103q0 61 43 104l744 744q40 42 103 42q62 0 104 -42l744 -744
q42 -45 42 -104z" />
    <glyph glyph-name="uniF004" unicode="&#xf004;" horiz-adv-x="2002" 
d="M1891 745q0 -61 -42 -103l-744 -745q-45 -42 -104 -43q-61 0 -103 43l-744 745q-43 41 -43 103q0 61 43 104l85 85q45 42 104 43q61 0 102 -43l336 -336v805q0 59 43.5 102.5t103.5 43.5h146q59 0 102.5 -43.5t43.5 -102.5v-805l336 336q42 42 103 43q59 0 104 -43
l86 -85q42 -45 42 -104z" />
    <glyph glyph-name="uniF005" unicode="&#xf005;" horiz-adv-x="2002" 
d="M1222 -42l-745 744q-42 42 -42 103t42 104l745 744q42 42 103.5 42t103.5 -42l86 -86q42 -42 42 -103.5t-42 -103.5l-556 -555l556 -555q42 -43 42 -103.5t-42 -103.5l-86 -85q-42 -42 -103.5 -42t-103.5 42z" />
    <glyph glyph-name="uniF006" unicode="&#xf006;" horiz-adv-x="2002" 
d="M1559 805q0 -59 -42 -104l-745 -744q-42 -42 -103 -42.5t-103 42.5l-87 85q-42 45 -42 104q0 61 42 103l555 556l-555 554q-42 45 -42 104q0 61 42 103l87 85q41 43 102.5 43.5t103.5 -43.5l745 -744q42 -41 42 -102z" />
    <glyph glyph-name="uniF007" unicode="&#xf007;" horiz-adv-x="2002" 
d="M1891 365.5q0 -60.5 -42 -102.5l-86 -86q-43 -43 -104 -43q-62 0 -103 43l-555 554l-556 -554q-41 -43 -102.5 -43t-102.5 43l-86 86q-43 41 -43 103q0 61 43 104l744 744q42 42 103 42q59 0 104 -42l743 -744q43 -44 43 -104.5z" />
    <glyph glyph-name="uniF008" unicode="&#xf008;" horiz-adv-x="2002" 
d="M1891 951q0 -61 -42 -103l-744 -744q-43 -43 -104 -43q-62 0 -103 43l-744 744q-43 41 -43 103q0 61 43 104l85 86q45 42 104 42q61 0 102 -42l556 -556l555 556q42 42 103 42q59 0 104 -42l86 -86q42 -45 42 -104z" />
    <glyph glyph-name="uniF009" unicode="&#xf009;" horiz-adv-x="2002" 
d="M1330 1093v-1024q0 -30 -21.5 -51.5t-51 -21.5t-51.5 22l-512 512q-22 22 -22 51.5t22 51.5l512 512q22 22 51.5 22t51 -22t21.5 -52z" />
    <glyph glyph-name="uniF00A" unicode="&#xf00a;" horiz-adv-x="2002" 
d="M693.5 1145q21.5 22 51 22t51.5 -22l512 -512q22 -22 22 -51.5t-22 -51.5l-512 -512q-22 -22 -51.5 -22t-51 21.5t-21.5 51.5v1024q0 30 21.5 52z" />
    <glyph glyph-name="uniF00B" unicode="&#xf00b;" horiz-adv-x="2002" 
d="M1582 275.5q0 -29.5 -21.5 -51t-51.5 -21.5h-1024q-30 0 -51.5 21.5t-21.5 51t22 51.5l512 512q22 22 51.5 22t51.5 -22l512 -512q21 -22 21 -51.5z" />
    <glyph glyph-name="uniF00C" unicode="&#xf00c;" horiz-adv-x="2002" 
d="M1561 737l-512 -512q-22 -22 -51.5 -22t-51.5 22l-512 512q-22 22 -22 51.5t21.5 51t51.5 21.5h1024q30 0 51.5 -21.5t21.5 -51t-21 -51.5z" />
    <glyph glyph-name="uniF00D" unicode="&#xf00d;" horiz-adv-x="2000" 
d="M1582 482q0 -30 -21 -51l-512 -512q-22 -22 -52 -22t-51 22l-512 512q-22 22 -22 51.5t21.5 51t51.5 21.5h1024q30 0 51.5 -21.5t21.5 -51.5zM1582 921q0 -30 -21.5 -51.5t-51.5 -21.5h-1024q-30 0 -51.5 21.5t-21.5 51.5t22 51l512 512q22 22 51.5 22t51.5 -22l512 -512
q21 -21 21 -51z" />
    <glyph glyph-name="uniF00E" unicode="&#xf00e;" horiz-adv-x="2002" 
d="M1331 1044q0 -15 -12 -27l-449 -449l449 -449q11 -11 11.5 -26t-11.5 -26l-57 -58q-11 -11 -26 -11t-27 11l-532 533q-11 11 -11.5 26t11.5 27l532 532q11 11 26.5 11.5t26.5 -11.5l57 -57q12 -11 12 -26z" />
    <glyph glyph-name="uniF00F" unicode="&#xf00f;" horiz-adv-x="2002" 
d="M677 1070l57 57q11 12 26.5 11.5t26.5 -11.5l532 -532q12 -12 11.5 -27t-11.5 -26l-532 -533q-12 -11 -27 -11t-26 11l-57 58q-12 11 -11.5 26t11.5 26l449 449l-449 449q-12 12 -12 27t12 26z" />
    <glyph glyph-name="uniF010" unicode="&#xf010;" horiz-adv-x="2002" 
d="M1574 292q0 -15 -12 -26l-57 -57q-11 -11 -26 -11.5t-27 11.5l-449 449l-449 -449q-11 -11 -26 -11.5t-26 11.5l-58 57q-11 11 -11 26t11 27l533 532q11 11 26 11.5t27 -11.5l532 -532q12 -12 12 -27z" />
    <glyph glyph-name="uniF011" unicode="&#xf011;" horiz-adv-x="2002" 
d="M1562 741l-532 -532q-12 -12 -27 -11.5t-26 11.5l-533 532q-11 12 -11 27t11 26l58 57q11 12 26 11.5t26 -11.5l449 -449l449 449q12 12 27 11.5t26 -11.5l57 -57q12 -11 12 -26t-12 -27z" />
    <glyph glyph-name="uniF012" unicode="&#xf012;" horiz-adv-x="2002" 
d="M1115 93q0 -15 -12 -26l-57 -58q-11 -11 -26 -11t-27 11l-532 533q-11 11 -11.5 26t11.5 27l532 532q11 11 26.5 11.5t26.5 -11.5l57 -57q11 -11 11.5 -26t-11.5 -27l-449 -449l449 -449q12 -11 12 -26zM1553 93q0 -15 -11 -26l-57 -58q-11 -11 -26 -11t-27 11l-532 533
q-11 11 -11.5 26t11.5 27l532 532q11 11 26 11.5t27 -11.5l57 -57q11 -11 11 -26t-11 -27l-449 -449l449 -449q11 -11 11 -26z" />
    <glyph glyph-name="uniF013" unicode="&#xf013;" horiz-adv-x="2002" 
d="M1110 568q0 -15 -11 -26l-533 -533q-11 -11 -26 -11t-27 11l-57 58q-11 11 -11 26t11 26l449 449l-449 449q-11 11 -11 26.5t11 26.5l57 57q11 11 26.5 11.5t26.5 -11.5l533 -532q11 -12 11 -27zM1549 568q0 -15 -12 -26l-532 -533q-11 -11 -26 -11t-27 11l-57 58
q-11 11 -11 26t11 26l449 449l-449 449q-11 11 -11 26.5t11 26.5l57 57q11 11 26 11.5t27 -11.5l532 -532q12 -12 12 -27z" />
    <glyph glyph-name="uniF014" unicode="&#xf014;" horiz-adv-x="2002" 
d="M1570 96q0 -15 -12 -26l-57 -57q-11 -11 -26 -11.5t-27 11.5l-449 449l-449 -449q-11 -11 -26 -11.5t-26 11.5l-58 57q-11 11 -11 26t11 26l533 533q11 11 26 11t27 -11l532 -533q12 -11 12 -26zM1570 535q0 -15 -12 -26l-57 -58q-11 -11 -26 -11t-27 11l-449 450
l-449 -450q-11 -11 -26 -11t-26 11l-58 58q-11 11 -11 26t11 26l533 533q11 11 26 11t27 -11l532 -533q12 -11 12 -26z" />
    <glyph glyph-name="uniF015" unicode="&#xf015;" horiz-adv-x="2002" 
d="M1558 984l-532 -533q-12 -11 -27 -11t-26 11l-533 533q-11 11 -11 26t11 26l58 57q11 12 26 11.5t26 -11.5l449 -449l449 449q12 12 27 11.5t26 -11.5l57 -57q12 -11 12 -26t-12 -26zM1558 545l-532 -533q-12 -11 -27 -11t-26 11l-533 533q-11 11 -11 26t11 26l58 58
q11 11 26 11t26 -11l449 -450l449 450q12 11 27 11t26 -11l57 -58q12 -11 12 -26t-12 -26z" />
    <glyph glyph-name="uniF016" unicode="&#xf016;" horiz-adv-x="2002" 
d="M1586 658v147q0 30 -22 51.5t-51 21.5h-574l216 216q22 22 22 51.5t-22 51.5l-104 104q-21 21 -51.5 20.5t-51.5 -20.5l-414 -414l-104 -104q-21 -21 -20.5 -51.5t20.5 -51.5l104 -104l414 -414q21 -21 51.5 -20.5t51.5 20.5l104 104q21 21 21 52t-21 51l-216 216h574
q30 0 51.5 21.5t21.5 51.5zM1878 731.5q0 -238.5 -117.5 -440.5t-319 -319.5t-440.5 -117.5t-441 117.5t-319.5 319.5t-117.5 440.5t117.5 440.5t319.5 319.5t441 117.5t440.5 -117.5t319 -319.5t117.5 -440.5z" />
    <glyph glyph-name="uniF017" unicode="&#xf017;" horiz-adv-x="2002" 
d="M1592 731.5q0 30.5 -21 51.5l-104 104l-414 414q-21 21 -51.5 20.5t-51.5 -20.5l-104 -104q-21 -21 -20.5 -52t20.5 -51l216 -216h-573q-30 0 -51.5 -22t-21.5 -51v-147q0 -30 21.5 -51.5t51.5 -21.5h573l-216 -216q-22 -22 -21.5 -51.5t21.5 -51.5l104 -104
q21 -21 52 -20.5t51 20.5l414 414l104 104q21 21 21 51.5zM1878 731.5q0 -238.5 -117.5 -440.5t-319 -319.5t-440.5 -117.5t-441 117.5t-319.5 319.5t-117.5 440.5t117.5 440.5t319.5 319.5t441 117.5t440.5 -117.5t319 -319.5t117.5 -440.5z" />
    <glyph glyph-name="uniF018" unicode="&#xf018;" horiz-adv-x="2002" 
d="M1590 732.5q0 30.5 -20 51.5l-414 414l-104 104q-21 21 -51.5 20.5t-51.5 -20.5l-104 -104l-413 -414q-21 -21 -21 -51.5t21 -51.5l104 -104q21 -21 51.5 -20.5t50.5 20.5l216 216v-574q0 -30 22 -51.5t52 -21.5h146q30 0 51.5 22t21.5 51v574l216 -216q22 -22 51.5 -22
t51.5 22l104 104q20 21 20 51.5zM1878 731.5q0 -238.5 -117.5 -440.5t-319 -319.5t-440.5 -117.5t-441 117.5t-319.5 319.5t-117.5 440.5t117.5 440.5t319.5 319.5t441 117.5t440.5 -117.5t319 -319.5t117.5 -440.5z" />
    <glyph glyph-name="uniF019" unicode="&#xf019;" horiz-adv-x="2002" 
d="M1590 730q0 31 -20 52l-104 104q-21 21 -51.5 20.5t-51.5 -20.5l-216 -216v573q0 30 -21.5 52t-51.5 22h-146q-30 0 -52 -22t-22 -52v-573l-216 216q-22 22 -51.5 21.5t-50.5 -21.5l-104 -104q-21 -21 -21 -52t21 -51l413 -414l104 -104q21 -21 52 -20.5t51 20.5l104 104
l414 414q20 20 20 51zM1878 731.5q0 -238.5 -117.5 -440.5t-319 -319.5t-440.5 -117.5t-441 117.5t-319.5 319.5t-117.5 440.5t117.5 440.5t319.5 319.5t441 117.5t440.5 -117.5t319 -319.5t117.5 -440.5z" />
    <glyph glyph-name="uniF01A" unicode="&#xf01a;" horiz-adv-x="2002" 
d="M964 329q-14 0 -28 11l-364 365q-10 10 -10 26t10 27l366 365q10 10 26 11q15 0 25.5 -11t10.5 -26v-219h403q15 0 25.5 -11t10.5 -26v-219q0 -15 -10.5 -26t-25.5 -11h-403v-219q0 -16 -10 -26.5t-26 -10.5zM1000.5 146q118.5 0 226.5 46.5t187 125t125.5 186.5
t46.5 227t-46.5 227t-125.5 187t-187 125t-226.5 46t-226.5 -46t-187 -125t-125.5 -187t-46.5 -227t46.5 -227t125.5 -186.5t187 -125t226.5 -46.5zM1000.5 -146q-238.5 0 -440.5 117.5t-319.5 319t-117.5 440.5t117.5 441t319.5 319.5t440.5 117.5t440.5 -117.5
t319.5 -319.5t117.5 -441t-117.5 -440.5t-319.5 -319t-440.5 -117.5z" />
    <glyph glyph-name="uniF01B" unicode="&#xf01b;" horiz-adv-x="2002" 
d="M1037 1134q14 0 28 -11l364 -365q10 -10 10 -26t-10 -27l-366 -365q-10 -10 -26 -11q-15 0 -25.5 11t-10.5 26v219h-403q-15 0 -25.5 11t-10.5 26v219q0 15 10.5 26t25.5 11h403v219q0 16 10 26.5t26 10.5zM1000.5 1317q-118.5 0 -226.5 -46.5t-187 -125t-125.5 -186.5
t-46.5 -227t46.5 -227t125.5 -187t187 -125t226.5 -46t226.5 46t187 125t125.5 187t46.5 227t-46.5 227t-125.5 186.5t-187 125t-226.5 46.5zM1000.5 1609q238.5 0 440.5 -117.5t319.5 -319t117.5 -440.5t-117.5 -441t-319.5 -319.5t-440.5 -117.5t-440.5 117.5
t-319.5 319.5t-117.5 441t117.5 440.5t319.5 319t440.5 117.5z" />
    <glyph glyph-name="uniF01C" unicode="&#xf01c;" horiz-adv-x="2002" 
d="M1403 768q0 -15 -11 -26t-26 -11h-219v-402q0 -15 -11 -25.5t-26 -10.5h-219q-15 0 -26 10.5t-11 25.5v402h-219q-16 0 -26.5 10.5t-10.5 26.5q0 14 12 27l364 365q10 10 26.5 10t26.5 -10l366 -366q10 -10 10 -26zM1586 731.5q0 118.5 -46.5 226.5t-125 187
t-186.5 125.5t-227 46.5t-227 -46.5t-187 -125.5t-125 -187t-46 -226.5t46 -226.5t125 -187t187 -125.5t227 -46.5t227 46.5t186.5 125.5t125 187t46.5 226.5zM1878 731.5q0 -238.5 -117.5 -440.5t-319 -319.5t-440.5 -117.5t-441 117.5t-319.5 319.5t-117.5 440.5
t117.5 440.5t319.5 319.5t441 117.5t440.5 -117.5t319 -319.5t117.5 -440.5z" />
    <glyph glyph-name="uniF01D" unicode="&#xf01d;" horiz-adv-x="2002" 
d="M1403 695q0 -14 -11 -28l-365 -364q-10 -10 -26 -10t-27 10l-365 366q-10 10 -11 26q0 15 11 25.5t26 10.5h219v403q0 15 11 25.5t26 10.5h219q15 0 26 -10.5t11 -25.5v-403h219q16 0 26.5 -10t10.5 -26zM1586 731.5q0 118.5 -46.5 226.5t-125 187t-186.5 125.5
t-227 46.5t-227 -46.5t-187 -125.5t-125 -187t-46 -226.5t46 -226.5t125 -187t187 -125.5t227 -46.5t227 46.5t186.5 125.5t125 187t46.5 226.5zM1878 731.5q0 -238.5 -117.5 -440.5t-319 -319.5t-440.5 -117.5t-441 117.5t-319.5 319.5t-117.5 440.5t117.5 440.5
t319.5 319.5t441 117.5t440.5 -117.5t319 -319.5t117.5 -440.5z" />
    <glyph glyph-name="uniF01E" unicode="&#xf01e;" horiz-adv-x="2002" 
d="M1536 149h35v715h-35q-39 0 -75 12.5t-71.5 43t-53.5 49.5t-56 61q-2 3 -3.5 5t-4.5 5.5t-5 5.5q-80 91 -125 162q-16 24 -42 75q-1 3 -12 25t-21 40.5t-22.5 40t-24 34t-20.5 12.5q-79 0 -129 -34t-50 -108q0 -48 17 -94.5t37.5 -76t37 -61.5t16.5 -54h-643
q-56 0 -99.5 -43t-43.5 -100q0 -58 42.5 -100.5t100.5 -42.5h369q-16 -19 -27.5 -53t-11.5 -62q0 -77 59 -133q-21 -36 -20.5 -77t20 -82t53.5 -58q-5 -27 -4 -63q0 -95 53.5 -140.5t151.5 -45.5q94 0 204 35.5t216.5 71t186.5 35.5zM1858 221q0 29 -21.5 50.5t-50.5 21.5
t-50.5 -21.5t-21.5 -50.5t21.5 -50.5t50.5 -21.5t50.5 21.5t21.5 50.5zM2000 864v-715q0 -59 -42 -100.5t-100 -41.5h-322q-65 0 -249 -66q-212 -77 -354 -77q-159 0 -257 86.5t-97 242.5l1 6q-68 85 -67 198q0 25 3 48q-37 64 -41 133h-189q-117 0 -201.5 85t-84.5 202
q0 115 85 199.5t201 84.5h417q-24 68 -24 144q0 136 90.5 210.5t230.5 74.5q42 0 77 -19.5t61.5 -55t45.5 -70.5t41.5 -81t37.5 -69q39 -61 111 -144q2 -2 15.5 -18t21.5 -24.5t22.5 -24.5t26.5 -25t25.5 -20t26.5 -15.5t24 -4.5h322q59 0 100.5 -41.5t41.5 -101.5z" />
    <glyph glyph-name="uniF01F" unicode="&#xf01f;" horiz-adv-x="2002" 
d="M650.5 113.5q106.5 -35.5 217 -71t203.5 -35.5q98 0 151.5 45.5t53.5 140.5q1 36 -3 63q33 17 52.5 58t20 82t-20.5 77q59 56 59 133q0 28 -11.5 62t-27.5 53h369q59 0 101.5 42.5t42.5 100.5q0 57 -44 100t-100 43h-643q0 22 17 54t37.5 61.5t37 76t16.5 94.5
q0 74 -50 108t-129 34q-9 0 -20.5 -12.5t-24 -34t-22.5 -40t-21 -40.5t-12 -25q-26 -51 -42 -75q-44 -71 -125 -162q-1 -2 -4 -5.5t-5 -5.5t-4 -5q-38 -42 -55.5 -61t-53.5 -49.5t-72 -43t-75 -12.5h-35v-715h35q80 0 186.5 -35.5zM214.5 149q28.5 0 50 21.5t21.5 50.5
t-21.5 50.5t-50 21.5t-50 -21.5t-21.5 -50.5t21.5 -50.5t50 -21.5zM41.5 965.5q41.5 41.5 101.5 41.5h321q12 0 24.5 4.5t26 15.5t25.5 20t26.5 25t22.5 24.5t21.5 24.5t15.5 18q72 83 111 144q15 23 37.5 69t41.5 81t45.5 70.5t61.5 55t77 19.5q140 0 230.5 -74.5
t90.5 -210.5q0 -76 -24 -144h417q116 0 201 -84.5t85 -199.5q0 -117 -84.5 -202t-201.5 -85h-188q-4 -69 -42 -133q3 -23 3 -48q1 -113 -67 -198l1 -6q1 -156 -97 -242.5t-257 -86.5q-142 0 -354 77q-184 66 -249 66h-321q-59 0 -101 41.5t-42 100.5v715q0 60 41.5 101.5z
" />
    <glyph glyph-name="uniF020" unicode="&#xf020;" horiz-adv-x="2002" 
d="M1593 -123q0 30 -22 51.5t-51.5 21.5t-51 -21.5t-21.5 -51.5t21.5 -51.5t51 -21.5t51.5 21.5t22 51.5zM1739 750q0 216 -191 216q-30 0 -64 -6q-18 34 -59.5 54.5t-84 20.5t-79.5 -21q-57 61 -136 61q-29 0 -63.5 -11.5t-53.5 -28.5v378q0 59 -43.5 102.5t-103.5 43.5
q-58 0 -102 -44.5t-44 -101.5v-658q-23 0 -55.5 17t-62.5 37.5t-77.5 37.5t-96.5 17q-77 0 -112 -50.5t-35 -132.5q0 -27 159 -102q50 -27 74 -43q73 -46 166 -128q93 -81 121 -115q65 -79 65 -160v-37h732v37q0 82 36.5 190.5t73 221t36.5 205.5zM1885 756q0 -152 -78 -368
q-67 -187 -68 -255v-329q0 -61 -43 -104t-103 -43h-732q-61 0 -103.5 43t-42.5 104v329q0 11 -5 24.5t-16 27t-20.5 25.5t-25.5 27.5t-24.5 23.5t-24.5 21.5t-20 16.5q-85 74 -147 114q-24 15 -71 37.5t-82.5 42t-72 46.5t-56.5 63t-20 79q0 143 76.5 236.5t216.5 93.5
q78 0 146 -26v428q0 119 87 205.5t204 86.5q120 0 207 -86t87 -206v-193q71 -5 136 -43q24 3 49 4q115 0 204 -69q159 1 250.5 -97t91.5 -259z" />
    <glyph glyph-name="uniF021" unicode="&#xf021;" horiz-adv-x="2002" 
d="M422 1485q0 -30 22 -51.5t51.5 -21.5t51 21.5t21.5 51.5t-21.5 51.5t-51 21.5t-51.5 -21.5t-22 -51.5zM276 612q0 -216 191 -216q30 0 64 6q18 -34 59.5 -54.5t84 -20.5t79.5 21q57 -61 136 -61q29 0 63.5 11.5t53.5 28.5v-378q0 -59 43.5 -102.5t103.5 -43.5
q58 0 102 44.5t44 101.5v658q23 0 55.5 -17t62.5 -37.5t77.5 -37.5t96.5 -17q77 0 112 50.5t35 132.5q0 27 -159 102q-50 27 -74 43q-73 46 -166 128q-93 81 -121 115q-65 79 -65 160v37h-732v-37q0 -82 -36.5 -190.5t-73 -221t-36.5 -205.5zM130 606q0 152 78 368
q67 187 68 255v329q0 61 43 104t103 43h732q61 0 103.5 -43t42.5 -104v-329q0 -11 5 -24.5t16 -27t20.5 -25.5t25.5 -27.5t24.5 -23.5t24.5 -21.5t20 -16.5q85 -74 147 -114q24 -15 71 -37.5t82.5 -42t72 -46.5t56.5 -63t20 -79q0 -143 -76.5 -236.5t-216.5 -93.5
q-78 0 -146 26v-428q0 -119 -87 -205.5t-204 -86.5q-120 0 -207 86t-87 206v193q-71 5 -136 43q-24 -3 -49 -4q-115 0 -204 69q-159 -1 -250.5 97t-91.5 259z" />
    <glyph glyph-name="uniF022" unicode="&#xf022;" horiz-adv-x="2002" 
d="M2006 724q0 -29 -22 -50l-286 -287q-21 -22 -50 -21.5t-50.5 21.5t-21.5 50v143h-1146v-143q0 -29 -21.5 -50t-50.5 -21t-50 21l-286 287q-22 21 -22 50t22 50l286 286q21 22 50 22t50.5 -21t21.5 -51v-143h1146v143q0 30 21.5 51t50.5 21t50 -22l286 -286q22 -21 22 -50
z" />
    <glyph glyph-name="uniF023" unicode="&#xf023;" horiz-adv-x="2002" 
d="M1364 1339.5q0 -29.5 -22 -51t-52 -21.5h-146v-1171h146q30 0 52 -21.5t22 -51.5t-22 -51l-293 -293q-22 -22 -51.5 -22t-51.5 22l-292 293q-22 22 -22 51.5t22 51t51 21.5h147v1171h-147q-30 0 -51.5 21.5t-21.5 51t22 51.5l292 293q22 22 52 21.5t51 -21.5l293 -293
q22 -22 22 -51.5z" />
    <glyph glyph-name="uniF024" unicode="&#xf024;" horiz-adv-x="2002" 
d="M2003 391v-214q0 -15 -11 -26t-26 -11h-1537v-214q0 -14 -10.5 -25t-25.5 -11q-14 0 -26 12l-357 357q-10 9 -10 25t10 26l358 357q9 10 25 10q15 0 25.5 -10.5t10.5 -25.5v-214h1537q15 0 26 -11t11 -25zM2003 999q0 -16 -10 -26l-358 -357q-10 -10 -25 -10t-26 10
t-11 25v215h-1537q-14 0 -25 10.5t-11 24.5v215q0 15 11 25.5t25 10.5h1537v215q0 15 10.5 25t26.5 10q13 0 26 -11l357 -357q10 -9 10 -25z" />
    <glyph glyph-name="uniF025" unicode="&#xf025;" horiz-adv-x="2002" 
d="M1257 1682h219q15 0 26 -11t11 -26v-1572h219q15 0 26 -11t11 -26q0 -14 -12 -27l-365 -365q-10 -10 -26 -10t-26 10l-366 366q-10 10 -10 26q0 15 11 26t26 11h219v1572q0 15 11 26t26 11zM635 1682q16 0 26 -10l366 -366q10 -10 10 -26q0 -15 -10.5 -26t-25.5 -11h-220
v-1572q0 -15 -10.5 -26t-25.5 -11h-220q-15 0 -25.5 11t-10.5 26v1572h-220q-16 0 -26 10.5t-10 26.5q0 14 11 27l365 365q10 10 26 10z" />
    <glyph glyph-name="uniF026" unicode="&#xf026;" horiz-adv-x="2002" 
d="M815.5 746q-14.5 0 -26.5 12l-379 379l-165 -165q-22 -22 -51.5 -21.5t-51 22t-21.5 51.5v512q0 30 21.5 51.5t51.5 21.5h512q30 0 51.5 -21.5t21.5 -51.5t-22 -52l-164 -164l379 -380q11 -11 11.5 -26t-11.5 -26l-130 -130q-12 -12 -26.5 -12zM1803 -146h-512
q-30 0 -51.5 21.5t-21.5 51t22 51.5l164 165l-379 379q-11 11 -11.5 26t11.5 27l130 130q11 11 26 11t27 -11l379 -379l165 164q22 22 51.5 22t51 -22t21.5 -51v-512q0 -30 -21.5 -51.5t-51.5 -21.5z" />
    <glyph glyph-name="uniF027" unicode="&#xf027;" horiz-adv-x="2002" 
d="M984 548.5q0 -14.5 -12 -26.5l-379 -379l165 -165q22 -22 21.5 -51.5t-22 -51t-51.5 -21.5h-512q-30 0 -51.5 21.5t-21.5 51.5v512q0 30 21.5 51.5t51.5 21.5t52 -22l164 -164l380 379q11 11 26 11.5t26 -11.5l130 -130q12 -12 12 -26.5zM1876 1536v-512
q0 -30 -21.5 -51.5t-51 -21.5t-51.5 22l-165 164l-379 -379q-11 -11 -26 -11.5t-27 11.5l-130 130q-11 11 -11 26t11 27l379 379l-164 165q-22 22 -22 51.5t22 51t51 21.5h512q30 0 51.5 -21.5t21.5 -51.5z" />
    <glyph glyph-name="uniF028" unicode="&#xf028;" horiz-adv-x="2002" 
d="M1072 732h512q30 0 51.5 -22t21.5 -51.5t-22 -51.5l-164 -164l379 -380q11 -11 11 -26t-11 -26l-130 -131q-11 -11 -26 -11t-27 11l-379 380l-165 -165q-22 -22 -51.5 -22t-51 22t-21.5 52v512q0 30 21.5 51.5t51.5 21.5zM304 1595q15 0 26 -12l379 -379l165 164
q22 22 51.5 22t51.5 -21.5t22 -51.5v-512q0 -30 -22 -51.5t-52 -21.5h-512q-30 0 -51.5 21.5t-21.5 51.5t22 51l165 165l-380 379q-11 11 -11 26t11 27l130 130q12 12 27 12z" />
    <glyph glyph-name="uniF029" unicode="&#xf029;" horiz-adv-x="2002" 
d="M999 805v512q0 30 22 51.5t51.5 21.5t51.5 -22l164 -164l380 379q11 11 26 11t26 -11l131 -130q11 -11 11 -26t-11 -27l-380 -379l165 -165q22 -22 22 -51.5t-22 -51t-52 -21.5h-512q-30 0 -51.5 21.5t-21.5 51.5zM136 37q0 15 12 26l379 379l-164 165q-22 22 -22 51.5
t21.5 51.5t51.5 22h512q30 0 51.5 -22t21.5 -52v-512q0 -30 -21.5 -51.5t-51.5 -21.5t-51 22l-165 165l-379 -380q-11 -11 -26 -11t-27 11l-130 130q-12 12 -12 27z" />
    <glyph glyph-name="uniF02A" unicode="&#xf02a;" horiz-adv-x="2002" 
d="M262.5 1550q13.5 0 23.5 -11l348 -348l151 150q20 21 47 21t47.5 -20t20.5 -47v-470q0 -27 -20.5 -46.5t-47.5 -19.5h-470q-27 0 -47 19.5t-20 47t21 46.5l151 151l-348 348q-10 10 -10 23.5t10 24.5l119 120q11 11 24.5 11zM109 13.5q0 13.5 10 23.5l348 348l-150 151
q-21 20 -21 47t20 47.5t47 20.5h470q27 0 47 -20.5t20 -47.5v-470q0 -27 -20 -47t-47.5 -20t-46.5 21l-151 151l-348 -348q-10 -10 -23.5 -10t-24.5 10l-120 119q-10 11 -10 24.5zM1660 1539l119 -120q11 -11 11 -24.5t-11 -23.5l-348 -348l151 -151q21 -19 21 -46.5
t-20 -47t-47 -19.5h-470q-27 0 -47 19.5t-20 46.5v470q0 27 20 47t47 20t47 -21l151 -150l348 348q10 11 23.5 11t24.5 -11zM1779 -11l-120 -119q-11 -10 -24.5 -10t-23.5 10l-348 348l-151 -151q-19 -21 -46.5 -21t-47 20t-19.5 47v470q0 27 19.5 47.5t46.5 20.5h470
q27 0 47 -20.5t20 -47.5t-21 -47l-150 -151l348 -348q11 -10 11 -23.5t-11 -24.5z" />
    <glyph glyph-name="uniF02B" unicode="&#xf02b;" horiz-adv-x="2002" 
d="M745.5 759q-13.5 0 -23.5 10l-348 348l-151 -150q-20 -21 -47 -21t-47 20t-20 47v470q0 27 20 47t47 20h470q27 0 47 -20t20 -47.5t-21 -46.5l-151 -151l348 -348q11 -10 11 -23.5t-11 -24.5l-119 -120q-11 -10 -24.5 -10zM900 496.5q0 -13.5 -11 -23.5l-348 -348
l150 -151q21 -20 21 -47t-20 -47t-47 -20h-470q-27 0 -46.5 20t-19.5 47v470q0 27 19.5 47t47 20t46.5 -21l151 -151l348 348q10 11 23.5 11t24.5 -11l120 -119q11 -11 11 -24.5zM1128 769l-119 120q-10 11 -10 24.5t10 23.5l348 348l-151 151q-21 19 -21 46.5t20 47.5
t47 20h470q27 0 47.5 -20t20.5 -47v-470q0 -27 -20.5 -47t-47.5 -20t-47 21l-151 150l-348 -348q-10 -10 -23.5 -10t-24.5 10zM1009 521l120 119q11 11 24.5 11t23.5 -11l348 -348l151 151q19 21 46.5 21t47.5 -20t20 -47v-470q0 -27 -20 -47t-47 -20h-470q-27 0 -47 20
t-20 47t21 47l150 151l-348 348q-10 10 -10 23.5t10 24.5z" />
    <glyph glyph-name="uniF02C" unicode="&#xf02c;" horiz-adv-x="2002" 
d="M1589 1137l-405 -406l405 -405l165 164q33 35 80 16q45 -19 44 -67v-512q0 -30 -21.5 -51.5t-51.5 -21.5h-512q-48 0 -67 45t16 79l164 165l-405 406l-406 -406l165 -165q35 -34 16 -79q-19 -46 -68 -45h-512q-30 0 -51.5 21.5t-21.5 51.5v512q0 48 46 67q45 19 79 -16
l164 -164l406 405l-406 406l-164 -164q-22 -22 -52 -22q-14 0 -27 6q-46 19 -46 67v512q0 30 21.5 51.5t51.5 21.5h512q48 0 68 -46q19 -45 -16 -78l-165 -165l406 -406l405 406l-164 165q-35 34 -16 78q19 46 67 46h512q30 0 51.5 -21.5t21.5 -51.5v-512q0 -48 -44 -67
q-15 -6 -29 -6q-30 0 -51 22z" />
    <glyph glyph-name="uniF02D" unicode="&#xf02d;" horiz-adv-x="2000" 
d="M920 1590q42 -18 42 -54v-1584q-7 -54 -54 -54h-743q-55 9 -55 48q49 121 768 1626q22 18 42 18zM1095 1590q39 0 157 -290q600 -1241 641 -1360q-18 -42 -54 -42h-744q-54 8 -54 54v1584q8 54 54 54zM1138 1324v-1329h628v6q-622 1309 -622 1323h-6z" />
    <glyph glyph-name="uniF02E" unicode="&#xf02e;" horiz-adv-x="2000" 
d="M153 704q17 43 54 43h1583q55 -8 55 -55v-743q-10 -54 -49 -54q-121 48 -1625 767q-18 22 -18 42zM153 880q0 38 290 157q1240 600 1359 640q43 -17 43 -54v-743q-8 -55 -55 -55h-1583q-54 8 -54 55zM419 922h1329v628h-6q-1309 -622 -1323 -622v-6z" />
    <glyph glyph-name="uniF02F" unicode="&#xf02f;" horiz-adv-x="2000" 
d="M807 1590q42 -18 42 -54v-1584q-7 -54 -54 -54h-743q-55 9 -55 48q49 121 768 1626q22 18 42 18zM1963 -102h-1020q-30 0 -35 35v479q0 24 27 35q77 -26 876 -413q187 -76 187 -101q0 -30 -35 -35zM1827 -36q-9 0 -853 401h-4v-405h857v4zM1308 1346h449q26 0 45 -19.5
t19 -45.5t-19 -45l-144 -144l332 -333q10 -9 10 -22t-10 -23l-114 -115q-10 -9 -23 -9t-23 9l-332 333l-145 -145q-19 -19 -45 -19t-44.5 19.5t-18.5 45.5v449q0 26 18.5 45t44.5 19z" />
    <glyph glyph-name="uniF030" unicode="&#xf030;" horiz-adv-x="2000" 
d="M1232 1572q719 -1505 768 -1626q0 -39 -55 -48h-743q-47 0 -54 54v1584q0 36 42 54q20 0 42 -18zM-1 -67q0 25 187 101q799 387 876 413q27 -11 27 -35v-479q-5 -35 -35 -35h-1020q-35 5 -35 35zM170 -40h857v405h-4q-844 -401 -853 -401v-4zM733.5 1327
q18.5 -19 18.5 -45v-449q0 -26 -18.5 -45.5t-44.5 -19.5t-45 19l-145 145l-332 -333q-10 -9 -23 -9t-23 9l-114 115q-10 10 -10 23t10 22l332 333l-144 144q-19 19 -19 45t19 45.5t45 19.5h449q26 0 44.5 -19z" />
    <glyph glyph-name="uniF031" unicode="&#xf031;" horiz-adv-x="2000" 
d="M994 1719h10q138 0 192 -162v-5q60 46 121 46h11q144 0 197 -172v-71q70 40 106 40h20q149 0 198 -182v-936q0 -268 -289 -480q-161 -101 -303 -101h-329q-395 0 -713 475q-66 132 -66 208v414q0 149 182 198h142v409q0 149 182 198h25q62 0 122 -46q0 95 146 162
q28 5 46 5zM877 1491v-591q-12 -31 -40 -31q-41 0 -41 51v450q-13 147 -121 147q-104 0 -121 -142v-880q-13 -30 -41 -30h-10q-30 11 -30 50v395h-96q-147 0 -147 -147v-339q0 -285 410 -566q142 -81 334 -81h227q391 0 551 399q16 82 16 157v835q-14 146 -122 146
q-104 0 -121 -141v-385q0 -40 -41 -40h-10q-30 11 -30 50v557q0 122 -76 152l-45 10q-108 0 -122 -147v-470q-13 -31 -40 -31q-41 0 -41 51v571q-14 147 -121 147q-122 -19 -122 -147z" />
    <glyph glyph-name="uniF032" unicode="&#xf032;" horiz-adv-x="2001" 
d="M862 1717q151 -17 162 -198v-262l57 5q117 3 182 -124q149 41 227 -78h31q202 -26 202 -190v-443q0 -121 -135 -569q-30 -132 -36 -158h-838q-31 0 -31 31v111q0 196 -167 441q-107 162 -237 382q-13 147 124 189q105 28 233 -47v727q25 192 226 183zM729 1503v-949h-15
q-160 218 -280 205q-72 -27 -46 -88q183 -294 268.5 -428t119.5 -322v-95q5 -31 31 -31h668q70 260 155 616v427q-12 127 -112 135q-37 3 -43 -28v-107q-22 -44 -47 0v111q0 111 -109 111q-108 0 -105 -210h-34v36v158q-5 115 -109 120q-97 -11 -93 -120v-163q-21 -34 -47 0
v622q5 94 -91 109q-111 1 -111 -109z" />
    <glyph glyph-name="uniF033" unicode="&#xf033;" 
 />
    <glyph glyph-name="uniF034" unicode="&#xf034;" 
 />
    <glyph glyph-name="uniF035" unicode="&#xf035;" 
 />
    <glyph glyph-name="uniF036" unicode="&#xf036;" 
 />
    <glyph glyph-name="uniF037" unicode="&#xf037;" 
 />
    <glyph glyph-name="uniF038" unicode="&#xf038;" horiz-adv-x="1755" 
 />
    <glyph glyph-name="uniF039" unicode="&#xf039;" 
 />
    <glyph glyph-name="uniF03A" unicode="&#xf03a;" 
 />
    <glyph glyph-name="uniF03B" unicode="&#xf03b;" 
 />
    <glyph glyph-name="uniF03C" unicode="&#xf03c;" 
 />
    <glyph glyph-name="uniF03D" unicode="&#xf03d;" 
 />
    <glyph glyph-name="uniF03E" unicode="&#xf03e;" 
 />
    <glyph glyph-name="uniF03F" unicode="&#xf03f;" 
 />
    <glyph glyph-name="uniF040" unicode="&#xf040;" 
 />
    <glyph glyph-name="uniF041" unicode="&#xf041;" horiz-adv-x="2002" 
d="M1515 658v147q0 30 -22 51.5t-51 21.5h-293v292q0 30 -21.5 51.5t-51.5 21.5h-146q-30 0 -52 -21.5t-22 -51.5v-292h-292q-30 0 -51.5 -22t-21.5 -51v-147q0 -30 21.5 -51.5t51.5 -21.5h292v-292q0 -30 22 -52t52 -22h146q30 0 51.5 22t21.5 52v292h293q30 0 51.5 21.5
t21.5 51.5z" />
    <glyph glyph-name="uniF042" unicode="&#xf042;" horiz-adv-x="2002" 
d="M1515 658v147q0 30 -22 51.5t-51 21.5h-878q-30 0 -51.5 -22t-21.5 -51v-147q0 -30 21.5 -51.5t51.5 -21.5h878q30 0 51.5 21.5t21.5 51.5z" />
    <glyph glyph-name="uniF043" unicode="&#xf043;" horiz-adv-x="2002" 
d="M1438 473q0 30 -22 52l-206 206l206 207q22 22 22 52q0 31 -22 52l-102 103q-22 22 -53 22q-30 0 -51 -22l-207 -207l-207 207q-22 22 -52 22q-31 0 -52 -22l-103 -103q-22 -22 -22 -52t22 -52l207 -207l-207 -206q-22 -22 -22 -52q0 -31 22 -52l103 -103q22 -22 52 -22
t52 22l207 207l207 -207q22 -22 51 -22q31 0 53 22l102 103q22 21 22 52z" />
    <glyph glyph-name="uniF044" unicode="&#xf044;" horiz-adv-x="2002" 
d="M1592 917q0 32 -20 52l-104 103q-22 22 -51.5 22t-51.5 -22l-466 -465l-259 258q-22 22 -51.5 22t-50.5 -22l-104 -103q-21 -21 -21 -52t21 -52l413 -413q22 -22 52 -22q31 0 52 22l621 620q20 21 20 52z" />
    <glyph glyph-name="uniF045" unicode="&#xf045;" horiz-adv-x="2002" 
d="M1149 183v219q0 15 -11 26t-26 11h-219q-15 0 -26 -11t-11 -26v-219q0 -15 11 -26t26 -11h219q15 0 26 11t11 26zM1442 951q0 111 -67 196.5t-165.5 127.5t-207 42t-206.5 -42t-165 -127.5t-67 -196.5v-12.5v-15t1 -13t3.5 -13t6.5 -9.5t10 -8t15 -2h220q16 0 26 10
t10 26q0 14 13 31q22 35 58 57t76 22q45 0 95 -24.5t50 -65.5q0 -38 -30.5 -66.5t-72.5 -50.5t-85 -47.5t-73.5 -72.5t-30.5 -112v-12.5v-15t1.5 -13t3.5 -13t6 -9t10.5 -8t15.5 -2.5h219q19 0 27.5 12t9.5 28t15.5 37.5t42.5 36.5q69 38 80 45q71 50 113 123.5t42 156.5z
" />
    <glyph glyph-name="uniF046" unicode="&#xf046;" horiz-adv-x="2002" 
d="M1295 183v73q0 16 -10 26.5t-26 10.5h-110v548q0 16 -10.5 26.5t-26.5 10.5h-365q-16 0 -26.5 -10.5t-10.5 -26.5v-73q0 -16 10.5 -26.5t26.5 -10.5h109v-438h-109q-16 0 -26.5 -10.5t-10.5 -26.5v-73q0 -16 10.5 -26.5t26.5 -10.5h512q16 0 26 10.5t10 26.5zM1149 1061
v219q0 16 -10.5 26.5t-26.5 10.5h-219q-16 0 -26.5 -10.5t-10.5 -26.5v-219q0 -16 10.5 -26.5t26.5 -10.5h219q16 0 26.5 10.5t10.5 26.5z" />
    <glyph glyph-name="uniF047" unicode="&#xf047;" horiz-adv-x="2002" 
d="M1149 184v217q0 16 -10.5 27t-24.5 11h-220q-15 0 -26.5 -11.5t-11.5 -26.5v-217q0 -15 11.5 -26.5t26.5 -11.5h220q15 0 25 11t10 27zM1147 577l20 710q0 14 -11 20q-11 9 -28 10h-251q-16 0 -27 -10q-11 -7 -12 -20l20 -710q0 -11 11 -19.5t27 -8.5h212q16 0 27 8.5
t12 19.5z" />
    <glyph glyph-name="uniF048" unicode="&#xf048;" horiz-adv-x="2002" 
d="M1142 176v212q0 16 -10 26.5t-25 10.5h-215q-14 0 -24.5 -10.5t-10.5 -26.5v-212q0 -15 10.5 -26t24.5 -11h215q15 0 25 11t10 26zM1140 593l21 513q0 13 -12 21q-15 13 -26 12h-246q-13 0 -27 -12q-10 -8 -11 -23l19 -511q0 -11 11.5 -18t26.5 -7h206q16 0 26.5 7
t11.5 18z" />
    <glyph glyph-name="uniF049" unicode="&#xf049;" horiz-adv-x="2000" 
d="M199 1310l200 200l601 -600l600 600l200 -200l-600 -600l600 -601l-200 -200l-600 600l-601 -600l-200 200l600 601z" />
    <glyph glyph-name="uniF04A" unicode="&#xf04a;" 
 />
    <glyph glyph-name="uniF04B" unicode="&#xf04b;" 
 />
    <glyph glyph-name="uniF04C" unicode="&#xf04c;" 
 />
    <glyph glyph-name="uniF04D" unicode="&#xf04d;" 
 />
    <glyph glyph-name="uniF04E" unicode="&#xf04e;" 
 />
    <glyph glyph-name="uniF04F" unicode="&#xf04f;" 
 />
    <glyph glyph-name="uniF050" unicode="&#xf050;" 
 />
    <glyph glyph-name="uniF051" unicode="&#xf051;" horiz-adv-x="2002" 
d="M1515 658v147q0 30 -22 51.5t-51 21.5h-293v292q0 30 -21.5 51.5t-51.5 21.5h-146q-30 0 -52 -21.5t-22 -51.5v-292h-292q-30 0 -51.5 -22t-21.5 -51v-147q0 -30 21.5 -51.5t51.5 -21.5h292v-292q0 -30 22 -52t52 -22h146q30 0 51.5 22t21.5 52v292h293q30 0 51.5 21.5
t21.5 51.5zM1880 731.5q0 -238.5 -117.5 -440.5t-319 -319.5t-440.5 -117.5t-441 117.5t-319.5 319.5t-117.5 440.5t117.5 440.5t319.5 319.5t441 117.5t440.5 -117.5t319 -319.5t117.5 -440.5z" />
    <glyph glyph-name="uniF052" unicode="&#xf052;" horiz-adv-x="2002" 
d="M1515 658v147q0 30 -22 51.5t-51 21.5h-878q-30 0 -51.5 -22t-21.5 -51v-147q0 -30 21.5 -51.5t51.5 -21.5h878q30 0 51.5 21.5t21.5 51.5zM1880 731.5q0 -238.5 -117.5 -440.5t-319 -319.5t-440.5 -117.5t-441 117.5t-319.5 319.5t-117.5 440.5t117.5 440.5t319.5 319.5
t441 117.5t440.5 -117.5t319 -319.5t117.5 -440.5z" />
    <glyph glyph-name="uniF053" unicode="&#xf053;" horiz-adv-x="2002" 
d="M1438 473q0 30 -22 52l-206 206l206 207q22 22 22 52q0 31 -22 52l-102 103q-22 22 -53 22q-30 0 -51 -22l-207 -207l-207 207q-22 22 -52 22q-31 0 -52 -22l-103 -103q-22 -22 -22 -52t22 -52l207 -207l-207 -206q-22 -22 -22 -52q0 -31 22 -52l103 -103q22 -22 52 -22
t52 22l207 207l207 -207q22 -22 51 -22q31 0 53 22l102 103q22 21 22 52zM1880 731.5q0 -238.5 -117.5 -440.5t-319 -319.5t-440.5 -117.5t-441 117.5t-319.5 319.5t-117.5 440.5t117.5 440.5t319.5 319.5t441 117.5t440.5 -117.5t319 -319.5t117.5 -440.5z" />
    <glyph glyph-name="uniF054" unicode="&#xf054;" horiz-adv-x="2002" 
d="M1592 917q0 32 -20 52l-104 103q-22 22 -51.5 22t-51.5 -22l-466 -465l-259 258q-22 22 -51.5 22t-50.5 -22l-104 -103q-21 -21 -21 -52t21 -52l413 -413q22 -22 52 -22q31 0 52 22l621 620q20 21 20 52zM1880 731.5q0 -238.5 -117.5 -440.5t-319 -319.5t-440.5 -117.5
t-441 117.5t-319.5 319.5t-117.5 440.5t117.5 440.5t319.5 319.5t441 117.5t440.5 -117.5t319 -319.5t117.5 -440.5z" />
    <glyph glyph-name="uniF055" unicode="&#xf055;" horiz-adv-x="2002" 
d="M1149 183v219q0 15 -11 26t-26 11h-219q-15 0 -26 -11t-11 -26v-219q0 -15 11 -26t26 -11h219q15 0 26 11t11 26zM1442 951q0 111 -67 196.5t-165.5 127.5t-207 42t-206.5 -42t-165 -127.5t-67 -196.5v-12.5v-15t1 -13t3.5 -13t6.5 -9.5t10 -8t15 -2h220q16 0 26 10
t10 26q0 14 13 31q22 35 58 57t76 22q45 0 95 -24.5t50 -65.5q0 -38 -30.5 -66.5t-72.5 -50.5t-85 -47.5t-73.5 -72.5t-30.5 -112v-12.5v-15t1.5 -13t3.5 -13t6 -9t10.5 -8t15.5 -2.5h219q19 0 27.5 12t9.5 28t15.5 37.5t42.5 36.5q69 38 80 45q71 50 113 123.5t42 156.5z
M1880 731.5q0 -238.5 -117.5 -440.5t-319 -319.5t-440.5 -117.5t-441 117.5t-319.5 319.5t-117.5 440.5t117.5 440.5t319.5 319.5t441 117.5t440.5 -117.5t319 -319.5t117.5 -440.5z" />
    <glyph glyph-name="uniF056" unicode="&#xf056;" horiz-adv-x="2002" 
d="M1295 183v73q0 16 -10 26.5t-26 10.5h-110v548q0 16 -10.5 26.5t-26.5 10.5h-365q-16 0 -26.5 -10.5t-10.5 -26.5v-73q0 -16 10.5 -26.5t26.5 -10.5h109v-438h-109q-16 0 -26.5 -10.5t-10.5 -26.5v-73q0 -16 10.5 -26.5t26.5 -10.5h512q16 0 26 10.5t10 26.5zM1149 1061
v219q0 16 -10.5 26.5t-26.5 10.5h-219q-16 0 -26.5 -10.5t-10.5 -26.5v-219q0 -16 10.5 -26.5t26.5 -10.5h219q16 0 26.5 10.5t10.5 26.5zM1880 731.5q0 -238.5 -117.5 -440.5t-319 -319.5t-440.5 -117.5t-441 117.5t-319.5 319.5t-117.5 440.5t117.5 440.5t319.5 319.5
t441 117.5t440.5 -117.5t319 -319.5t117.5 -440.5z" />
    <glyph glyph-name="uniF057" unicode="&#xf057;" horiz-adv-x="2002" 
d="M1003 1609q239 0 440.5 -117.5t319 -319.5t117.5 -440.5t-117.5 -440.5t-319 -319.5t-440.5 -117.5t-441 117.5t-319.5 319.5t-117.5 440.5t117.5 440.5t319.5 319.5t441 117.5zM1149 184v217q0 16 -10.5 27t-24.5 11h-220q-15 0 -26.5 -11.5t-11.5 -26.5v-217
q0 -15 11.5 -26.5t26.5 -11.5h220q15 0 25 11t10 27zM1147 577l20 710q0 14 -11 20q-11 9 -28 10h-251q-16 0 -27 -10q-11 -7 -12 -20l20 -710q0 -11 11 -19.5t27 -8.5h212q16 0 27 8.5t12 19.5z" />
    <glyph glyph-name="uniF058" unicode="&#xf058;" horiz-adv-x="2002" 
d="M1142 176v212q0 16 -10 26.5t-25 10.5h-215q-14 0 -24.5 -10.5t-10.5 -26.5v-212q0 -15 10.5 -26t24.5 -11h215q15 0 25 11t10 26zM1140 593l21 513q0 13 -12 21q-15 13 -26 12h-246q-13 0 -27 -12q-10 -8 -11 -23l19 -511q0 -11 11.5 -18t26.5 -7h206q16 0 26.5 7
t11.5 18zM1125 1636l857 -1571q39 -70 -3 -141q-19 -32 -51.5 -51t-70.5 -19h-1714q-39 0 -71.5 19t-51.5 51q-41 71 -2 141l857 1571q18 34 52 54t73 20t72.5 -20t52.5 -54z" />
    <glyph glyph-name="uniF059" unicode="&#xf059;" horiz-adv-x="2000" 
d="M1876 731.5q0 -238.5 -117.5 -440.5t-319 -319.5t-440.5 -117.5t-441 117.5t-319.5 319.5t-117.5 440.5t117.5 440.5t319.5 319.5t441 117.5t440.5 -117.5t319 -319.5t117.5 -440.5z" />
    <glyph glyph-name="uniF05A" unicode="&#xf05a;" horiz-adv-x="2000" 
d="M1584 731.5q0 118.5 -46.5 226.5t-125 187t-186.5 125.5t-227 46.5t-227 -46.5t-187 -125.5t-125 -187t-46 -226.5t46 -226.5t125 -187t187 -125.5t227 -46.5t227 46.5t186.5 125.5t125 187t46.5 226.5zM1876 731.5q0 -238.5 -117.5 -440.5t-319 -319.5t-440.5 -117.5
t-441 117.5t-319.5 319.5t-117.5 440.5t117.5 440.5t319.5 319.5t441 117.5t440.5 -117.5t319 -319.5t117.5 -440.5z" />
    <glyph glyph-name="uniF05B" unicode="&#xf05b;" horiz-adv-x="2000" 
d="M1574 1030v552h64q24 0 44 18t20 46t-20 46t-44 18h-1280q-24 0 -44 -18t-20 -46t20 -46t44 -18h64v-552q0 -60 44 -96l276 -248l-276 -248q-44 -36 -44 -96v-552h-64q-24 0 -44 -18t-20 -46t20 -46t44 -18h1280q28 0 46 18t18 46t-20 46t-44 18h-64v552q0 60 -44 96
l-276 248l276 248q44 36 44 96zM1446 1030l-384 -344l384 -344v-552h-896v552l384 344l-384 344v552h896v-552zM1318 1214v112h-640v-112l320 -284zM678 158v-240h640v240l-160 144h-320z" />
    <glyph glyph-name="uniF05C" unicode="&#xf05c;" horiz-adv-x="2000" 
d="M1582 348q24 38 -8 74l-1064 1264q-28 36 -70 20t-42 -60v-1672q0 -44 44 -60q8 -4 20 -4q32 0 52 28l284 384l200 -568q20 -52 72 -78t106 -6t80 72t6 104l-196 560l448 -88q44 -8 68 30z" />
    <glyph glyph-name="uniF05D" unicode="&#xf05d;" 
 />
    <glyph glyph-name="uniF05E" unicode="&#xf05e;" 
 />
    <glyph glyph-name="uniF05F" unicode="&#xf05f;" 
 />
    <glyph glyph-name="uniF060" unicode="&#xf060;" 
 />
    <glyph glyph-name="play" unicode="&#xf061;" horiz-adv-x="2002" 
d="M1775 696l-1518 -843q-26 -15 -45 -3.5t-19 40.5v1683q0 30 19 41t45 -4l1518 -843q26 -15 26 -35.5t-26 -35.5z" />
    <glyph glyph-name="pause" unicode="&#xf062;" horiz-adv-x="2002" 
d="M1876 1536v-1609q0 -30 -21.5 -51.5t-51.5 -21.5h-585q-30 0 -51.5 21.5t-21.5 51.5v1609q0 30 21.5 51.5t51.5 21.5h585q30 0 51.5 -21.5t21.5 -51.5zM852 1536v-1609q0 -30 -21.5 -51.5t-51.5 -21.5h-585q-30 0 -51.5 21.5t-21.5 51.5v1609q0 30 21.5 51.5t51.5 21.5
h585q30 0 51.5 -21.5t21.5 -51.5z" />
    <glyph glyph-name="stop" unicode="&#xf063;" horiz-adv-x="2002" 
d="M1876 1536v-1609q0 -30 -21.5 -51.5t-51.5 -21.5h-1609q-30 0 -51.5 21.5t-21.5 51.5v1609q0 30 21.5 51.5t51.5 21.5h1609q30 0 51.5 -21.5t21.5 -51.5z" />
    <glyph glyph-name="stepbackward" unicode="&#xf064;" horiz-adv-x="2002" 
d="M1531 1594q22 22 36.5 15t14.5 -36v-1683q0 -30 -14.5 -36.5t-36.5 15.5l-812 811q-10 10 -14 22v-775q0 -30 -22 -51.5t-52 -21.5h-146q-30 0 -51.5 21.5t-21.5 51.5v1609q0 30 21.5 51.5t51.5 21.5h146q30 0 52 -21.5t22 -51.5v-775q5 13 14 22z" />
    <glyph glyph-name="stepforward" unicode="&#xf065;" horiz-adv-x="2002" 
d="M1275 783q9 -9 14 -22v775q0 30 22 51.5t52 21.5h146q30 0 51.5 -21.5t21.5 -51.5v-1609q0 -30 -21.5 -51.5t-51.5 -21.5h-146q-30 0 -52 21.5t-22 51.5v775q-4 -12 -14 -22l-812 -811q-22 -22 -36.5 -15.5t-14.5 36.5v1683q0 29 14.5 36t36.5 -15z" />
    <glyph glyph-name="fastbackward" unicode="&#xf066;" horiz-adv-x="2002" 
d="M1950 1594q22 22 36 15t14 -36v-1683q0 -30 -14.5 -36.5t-35.5 15.5l-792 811q-9 10 -14 22v-812q0 -30 -14 -36.5t-36 15.5l-792 811q-9 10 -13 22v-775q0 -30 -21.5 -51.5t-50.5 -21.5h-143q-29 0 -50 21.5t-21 51.5v1609q0 30 21 51.5t50 21.5h143q29 0 50.5 -21.5
t21.5 -51.5v-775q5 13 13 22l792 811q22 22 36 15t14 -36v-812q5 13 14 22z" />
    <glyph glyph-name="fasforward" unicode="&#xf067;" horiz-adv-x="2002" 
d="M845 783q9 -9 14 -22v812q0 29 14 36t36 -15l792 -811q8 -9 13 -22v775q0 30 21.5 51.5t50.5 21.5h143q29 0 50 -21.5t21 -51.5v-1609q0 -30 -21 -51.5t-50 -21.5h-143q-29 0 -50.5 21.5t-21.5 51.5v775q-4 -12 -13 -22l-792 -811q-22 -22 -36 -15.5t-14 36.5v812
q-5 -12 -14 -22l-792 -811q-21 -22 -35.5 -15.5t-14.5 36.5v1683q0 29 14 36t36 -15z" />
    <glyph glyph-name="previous" unicode="&#xf068;" horiz-adv-x="2002" 
d="M1831 1594q22 22 37 15t15 -36v-1683q0 -30 -15 -36.5t-37 15.5l-811 811q-9 10 -15 22v-812q0 -30 -15 -36.5t-36 15.5l-812 811q-22 22 -22 51.5t22 51.5l812 811q22 22 36.5 15t14.5 -36v-812q6 13 15 22z" />
    <glyph glyph-name="next" unicode="&#xf069;" horiz-adv-x="2002" 
d="M983 783q9 -9 15 -22v812q0 29 14.5 36t36.5 -15l812 -811q22 -22 22 -51.5t-22 -51.5l-812 -811q-21 -22 -36 -15.5t-15 36.5v812q-6 -12 -15 -22l-811 -811q-22 -22 -37 -15.5t-15 36.5v1683q0 29 15 36t37 -15z" />
    <glyph glyph-name="eject" unicode="&#xf06a;" horiz-adv-x="2002" 
d="M136 637l811 811q22 22 52 22t51 -22l812 -811q22 -22 15 -37t-37 -15h-1682q-30 0 -37 15t15 37zM1803 0h-1609q-30 0 -51.5 21.5t-21.5 51.5v293q0 30 22 51.5t51 21.5h1609q30 0 52 -22t22 -51v-293q0 -30 -22 -51.5t-52 -21.5z" />
    <glyph glyph-name="headphone" unicode="&#xf06b;" horiz-adv-x="2002" 
d="M1950 643q0 -190 -69 -359l-23 -56l-211 -38q-25 -95 -103.5 -156t-178.5 -61v-36q0 -16 -10.5 -26.5t-26.5 -10.5h-73q-16 0 -26.5 10.5t-10.5 26.5v658q0 16 10.5 26t26.5 10h73q16 0 26.5 -10t10.5 -26v-37q81 0 148.5 -40.5t105.5 -108.5l78 13q33 109 33 221
q0 169 -100.5 318.5t-270 239t-360.5 89.5t-360.5 -89.5t-270.5 -239t-101 -318.5q0 -112 34 -221l77 -13q39 69 106.5 109t148.5 40v37q0 16 10.5 26t26.5 10h73q16 0 26 -10t10 -26v-658q0 -16 -10 -26.5t-26 -10.5h-73q-16 0 -26.5 10.5t-10.5 26.5v36q-101 0 -179 61
t-103 156l-212 38l-22 56q-69 169 -69 359q0 173 76.5 332.5t204.5 277t304 187t366 69.5t366 -69.5t304 -187t204.5 -277t76.5 -332.5z" />
    <glyph glyph-name="microphone" unicode="&#xf06c;" horiz-adv-x="2000" 
d="M373 596v217q0 37 26 63t63 26t63.5 -26t26.5 -63v-217q0 -182 132 -311.5t318 -129.5q185 0 316.5 129.5t131.5 311.5v217q0 37 26.5 63t63.5 26t63.5 -26t26.5 -63v-217q0 -231 -153.5 -403.5t-381.5 -207.5v-87h280q37 0 64 -26t27 -62q0 -37 -26.5 -63t-64.5 -26
h-740q-37 0 -63 26t-26 63q0 36 26 62t63 26h281v86q-151 20 -275.5 106t-196 219.5t-71.5 286.5zM669 606v766q0 136 97.5 232t235.5 96q137 0 234 -96t97 -232v-766q0 -136 -97 -232t-234 -96q-138 0 -235.5 96t-97.5 232z" />
    <glyph glyph-name="volumeoff" unicode="&#xf06d;" horiz-adv-x="2000" 
d="M1852 1429l-1628 -1602q-26 -26 -64 -26t-63 26q-26 25 -26 62t26 62l1627 1604q26 25 64 25t64 -25q26 -26 26 -63t-26 -63zM1563.5 310.5q-71.5 -133.5 -196 -219.5t-275.5 -106v-86h280q37 0 63.5 -26t26.5 -62q0 -37 -26.5 -63t-63.5 -26h-741q-37 0 -63.5 26
t-26.5 63q0 36 26.5 62t63.5 26h280v87q-140 22 -256 98l130 129q100 -57 221 -57q185 0 316.5 129.5t131.5 311.5v217q0 37 26.5 63t63.5 26q38 0 64.5 -26t26.5 -63v-217q0 -153 -71.5 -286.5zM1241.5 375q-97.5 -96 -235.5 -96q-64 0 -127 26l460 452v-150
q0 -136 -97.5 -232zM673 686v687q0 136 97.5 232t235.5 96t235.5 -96t97.5 -232v-31zM404 421q-27 89 -27 176v217q0 37 26.5 63t64.5 26q37 0 63 -26t26 -63v-217q0 -4 0.5 -12t0.5 -12z" />
    <glyph glyph-name="volumedown" unicode="&#xf06e;" horiz-adv-x="2002" 
d="M1438 1353v-1243q0 -30 -22 -51.5t-51.5 -21.5t-51.5 21l-380 381h-300q-30 0 -51.5 21.5t-21.5 51.5v439q0 30 21.5 51.5t51.5 21.5h300l380 381q22 22 51.5 21.5t51.5 -22t22 -51.5z" />
    <glyph glyph-name="uniF06F" unicode="&#xf06f;" horiz-adv-x="2002" 
d="M639 439h-6q-30 0 -51.5 21.5t-21.5 51.5v439q0 30 21.5 51.5t51.5 21.5h300l380 381q22 22 51.5 21.5t51.5 -22t22 -51.5v-115zM1438 638v-528q0 -30 -22 -51.5t-51.5 -21.5t-51.5 21l-227 228zM594 217l983 983l123 -123l-983 -983z" />
    <glyph glyph-name="uniF070" unicode="&#xf070;" horiz-adv-x="2002" 
d="M928 1353v-1243q0 -30 -22 -51.5t-51.5 -21.5t-51.5 21l-380 381h-300q-30 0 -51.5 21.5t-21.5 51.5v439q0 30 21.5 51.5t51.5 21.5h300l380 381q22 22 51.5 21.5t51.5 -22t22 -51.5zM1367 731.5q0 -86.5 -49 -161.5t-129 -107q-11 -6 -28 -6q-30 0 -51.5 21t-21.5 52
q0 24 13.5 40.5t33 28.5t39 26.5t33 41t13.5 65t-13.5 65t-33 40.5t-39 26t-33 29t-13.5 41q0 31 21.5 52t51.5 21q17 0 28 -6q80 -31 129 -106.5t49 -162zM1659 731.5q0 -174.5 -97 -322.5t-257 -216q-15 -6 -29 -6q-31 0 -52.5 22t-21.5 52q0 45 45 67q64 33 86 50
q85 62 132.5 155t47.5 198.5t-47.5 198.5t-132.5 155q-23 17 -86 50q-45 23 -45 67q0 30 21.5 51.5t51.5 21.5q15 0 30 -5q160 -67 257 -215.5t97 -323zM1952 731.5q0 -262.5 -145.5 -482.5t-386.5 -324q-15 -6 -29 -6q-30 0 -52 21.5t-22 51.5q0 41 45 67q8 5 25.5 12.5
t25.5 11.5q53 29 94 59q141 104 219.5 259.5t78.5 330t-78.5 330t-219.5 259.5q-41 30 -94 58q-8 5 -25.5 12.5t-25.5 11.5q-45 26 -45 68q0 30 22 51.5t52 21.5q15 0 29 -6q241 -104 386.5 -324t145.5 -482.5z" />
    <glyph glyph-name="uniF071" unicode="&#xf071;" horiz-adv-x="2002" 
d="M1218 1353v-1243q0 -30 -22 -51.5t-51.5 -21.5t-51.5 21l-380 381h-300q-30 0 -51.5 21.5t-21.5 51.5v439q0 30 21.5 51.5t51.5 21.5h300l380 381q22 22 51.5 21.5t51.5 -22t22 -51.5zM1657 731.5q0 -86.5 -49 -161.5t-129 -107q-11 -6 -28 -6q-30 0 -51.5 21t-21.5 52
q0 24 13.5 40.5t33 28.5t39 26.5t33 41t13.5 65t-13.5 65t-33 40.5t-39 26t-33 29t-13.5 41q0 31 21.5 52t51.5 21q17 0 28 -6q80 -31 129 -106.5t49 -162z" />
    <glyph glyph-name="uniF072" unicode="&#xf072;" horiz-adv-x="2000" 
d="M1836 1058q-22 24 -56 24t-54 -24l-224 -220l-220 220q-24 24 -56 24t-54 -24t-22 -56t24 -56l220 -220l-220 -220q-24 -24 -24 -56t22 -56t54 -24t56 24l220 220l224 -220q20 -24 54 -24t56 24t22 56t-24 56l-220 220l220 220q24 24 24 56t-22 56zM1018 1353v-1243
q0 -30 -22 -51.5t-51.5 -21.5t-51.5 21l-380 381h-300q-30 0 -51.5 21.5t-21.5 51.5v439q0 30 21.5 51.5t51.5 21.5h300l380 381q22 22 51.5 21.5t51.5 -22t22 -51.5z" />
    <glyph glyph-name="uniF073" unicode="&#xf073;" horiz-adv-x="2000" 
d="M1858 997q59 0 100.5 -42t41.5 -101.5t-42 -101.5t-100 -42v-427q0 -58 -42.5 -101t-101.5 -43q-466 388 -906 425q-65 -21 -101.5 -74t-34.5 -112.5t45 -102.5q-23 -37 -26 -73t7 -65t37.5 -62t53.5 -55.5t69 -56.5q-33 -64 -125 -92.5t-188.5 -13t-146.5 61.5
q-8 26 -33.5 98t-36 105.5t-25.5 99.5t-17 112.5t4 109.5t24 124h-135q-74 0 -126.5 52.5t-52.5 126.5v214q0 73 52.5 125.5t126.5 52.5h535q485 0 1000 429q58 0 101 -42.5t43 -100.5v-428zM1714 323v1064q-439 -337 -856 -383v-301q419 -46 856 -380z" />
    <glyph glyph-name="uniF074" unicode="&#xf074;" horiz-adv-x="2000" 
d="M1017 -258q0 18 -18 18q-67 0 -116 49t-49 116q0 18 -18 18t-18 -18q0 -83 58.5 -142t142.5 -59q18 0 18 18zM257 71h1484q-187 207 -281.5 470.5t-94.5 553.5q0 293 -366 293t-366 -293q0 -290 -94.5 -553.5t-281.5 -470.5zM1950 71q0 -59 -43.5 -102.5t-103.5 -43.5
h-512q0 -121 -85.5 -207t-206.5 -86t-207 86t-86 207h-512q-59 0 -102.5 43.5t-43.5 102.5q217 184 328 454.5t111 569.5q0 189 109.5 300t301.5 133q-9 21 -9 43q0 46 32 77.5t78 31.5t78 -32t32 -77q0 -22 -10 -43q192 -23 302 -133.5t110 -299.5q0 -299 111 -569.5
t328 -454.5z" />
    <glyph glyph-name="uniF075" unicode="&#xf075;" horiz-adv-x="2000" 
d="M1857 643q-170 263 -426 394q69 -116 69 -251q0 -206 -147 -353t-353 -147t-353 146.5t-147 353.5q0 135 68 251q-256 -131 -425 -394q148 -229 372 -364.5t485 -135.5t485 135.5t372 364.5zM1054 1071.5q0 22.5 -16 38t-38 15.5q-140 0 -239.5 -100t-99.5 -239
q0 -22 15.5 -38t37.5 -16t37.5 16t15.5 38q0 96 68.5 163.5t164.5 67.5q22 0 38 16t16 38.5zM2000 642.5q0 -38.5 -23 -77.5q-156 -256 -419.5 -410.5t-557.5 -154.5t-557.5 155.5t-420.5 409.5q-22 39 -22 77.5t22 77.5q157 255 420.5 410.5t557.5 155.5t557.5 -155.5
t419.5 -410.5q23 -39 23 -77.5z" />
    <glyph glyph-name="uniF076" unicode="&#xf076;" horiz-adv-x="2000" 
d="M617 221l87 157q-97 70 -151.5 176.5t-54.5 226.5q0 134 68 250q-255 -131 -424 -393q186 -287 475 -417zM1050 1064.5q0 22.5 -15.5 38t-37.5 15.5q-140 0 -239 -99.5t-99 -237.5q0 -23 15.5 -38.5t37.5 -15.5t37.5 15.5t15.5 38.5q0 95 68 162.5t164 67.5
q22 0 37.5 15.5t15.5 38zM1454 1277q0 -8 -1 -10q-117 -209 -350.5 -629.5t-352.5 -630.5l-54 -99q-11 -17 -31 -18q-14 0 -149 78q-18 11 -18 31q0 14 49 97q-159 72 -293 192.5t-232 272.5q-22 34 -22 76.5t22 76.5q171 262 423.5 413.5t551.5 151.5q99 0 200 -20l60 108
q10 18 31 18q6 0 20.5 -6.5t34.5 -17t36.5 -21t35 -20.5t21.5 -13q18 -12 18 -30zM1495 781q0 -155 -88 -282.5t-232 -183.5l311 559q9 -50 9 -93zM1993 637.5q0 -38.5 -22 -76.5q-44 -71 -121 -161q-166 -192 -386 -297.5t-467 -105.5l82 147q236 20 436.5 152t335.5 342
q-127 199 -314 327l70 124q106 -71 203.5 -170t160.5 -205q22 -38 22 -76.5z" />
    <glyph glyph-name="uniF077" unicode="&#xf077;" horiz-adv-x="2000" 
d="M1502 549h-129q-30 0 -52 22.5t-22 52.5v150q0 31 22.5 53t51.5 22h129q-38 126 -132.5 220.5t-220.5 132.5v-129q0 -30 -22 -52t-53 -22h-149q-31 0 -53.5 22t-22.5 52v129q-126 -38 -220.5 -132.5t-132.5 -220.5h129q30 0 52 -22.5t22 -52.5v-150q0 -31 -22 -53
t-52 -22h-129q38 -126 132.5 -220.5t220.5 -132.5v129q0 30 22.5 52t53.5 22h149q31 0 53 -22.5t22 -51.5v-129q126 38 220.5 132.5t132.5 220.5zM1898 774v-150q0 -31 -22 -53t-53 -22h-167q-43 -189 -180.5 -326t-326.5 -181v-167q0 -31 -22 -53t-53 -22h-149
q-31 0 -53.5 22t-22.5 53v167q-189 43 -326 180.5t-180 326.5h-168q-31 0 -53 22.5t-22 52.5v150q0 31 22 53t53 22h168q43 189 180 326t326 181v167q0 31 22.5 53t53.5 22h149q31 0 53 -22t22 -53v-167q189 -43 326.5 -180.5t180.5 -326.5h167q31 0 53 -22t22 -53z" />
    <glyph glyph-name="uniF078" unicode="&#xf078;" 
 />
    <glyph glyph-name="uniF079" unicode="&#xf079;" 
 />
    <glyph glyph-name="uniF07A" unicode="&#xf07a;" 
 />
    <glyph glyph-name="uniF07B" unicode="&#xf07b;" 
 />
    <glyph glyph-name="uniF07C" unicode="&#xf07c;" 
 />
    <glyph glyph-name="uniF07D" unicode="&#xf07d;" 
 />
    <glyph glyph-name="uniF07E" unicode="&#xf07e;" 
 />
    <glyph glyph-name="uniF07F" unicode="&#xf07f;" 
 />
    <glyph glyph-name="uniF080" unicode="&#xf080;" 
 />
    <glyph glyph-name="uniF081" unicode="&#xf081;" horiz-adv-x="2000" 
d="M0 227q0 7 1 13.5t2 14.5l63 510q53 -100 147 -166q95 -64 205 -64q139 0 247 84q110 86 145 217q-40 -115 -139 -188q-98 -73 -224 -73q-158 0 -270 112q-111 111 -111 272q0 158 111 269q112 112 270 112q169 0 286 -126h533q117 126 286 126q158 0 270 -112
q111 -111 111 -269q0 -160 -112 -272t-269 -112q-121 0 -221 71q-97 70 -137 184q36 -126 143 -207q108 -80 242 -80q110 0 205 65q96 67 149 168l63 -521q1 -8 2 -14.5t1 -13.5q0 -95 -69 -160q-67 -67 -168 -67q-42 0 -80.5 14t-72.5 38.5t-62.5 59t-49.5 76.5l-261 516
h-473l-261 -516q-19 -37 -47 -69.5t-68 -61.5q-77 -57 -150 -57h-2q-99 0 -166 67q-69 66 -69 160zM212 895h128l66 64l-66 62h-128v-126zM384 724h126v128l-63 66l-63 -66v-128zM384 1064l63 -64l63 64v129h-126v-129zM490 959l63 -64h129v126h-129zM830 959q0 -21 20 -21
h107q11 0 16.5 6.5t5.5 14t-5.5 14t-16.5 6.5h-107q-20 0 -20 -20zM1149 938q20 0 20 21q0 20 -20 20h-107q-11 0 -16.5 -6.5t-5.5 -14t5.5 -14t16.5 -6.5h107zM1410 887q30 0 50 21t20 51t-20 50.5t-50 20.5q-29 0 -49.5 -21t-20.5 -50t20.5 -50.5t49.5 -21.5zM1480 818
q0 -30 21 -50.5t51 -20.5t51 20.5t21 50.5q0 29 -21 49t-51 20t-51 -20t-21 -49zM1480 1099q0 -29 21 -49t51 -20t51 20t21 49q0 30 -21 51t-51 21t-51 -21t-21 -51zM1644 1009q-20 -20 -20 -50t20 -51t48.5 -21t49.5 21q22 22 22 50.5t-22 49.5q-22 22 -50 22t-48 -21z" />
    <glyph glyph-name="uniF082" unicode="&#xf082;" horiz-adv-x="2000" 
d="M573 786q-85 185 -84 424h-293v-109q0 -89 108 -185.5t269 -129.5zM1805 1101v109h-292q0 -239 -85 -424q161 33 269 129.5t108 185.5zM1952 1247v-146q0 -81 -47.5 -163.5t-128 -149t-198 -111.5t-246.5 -51q-48 -62 -108 -108q-43 -39 -60 -83t-17 -102
q0 -62 35 -104.5t111 -42.5q86 0 153 -52t67 -131v-73q0 -16 -10.5 -26t-26.5 -10h-951q-16 0 -26 10t-10 26v73q0 79 67 131t152 52q77 0 112 42.5t35 104.5q0 58 -17 102t-60 83q-61 47 -109 108q-129 6 -246 51t-197.5 111.5t-128 148.5t-47.5 164v146q0 46 32 78t78 32
h329v109q0 75 53.5 129t129.5 54h658q75 0 129 -53.5t54 -129.5v-109h329q46 0 78 -32t32 -78z" />
    <glyph glyph-name="uniF083" unicode="&#xf083;" horiz-adv-x="2000" 
d="M1185 206v818h-366v-818q0 -29 21 -44.5t52 -15.5h219q31 0 52.5 15.5t21.5 44.5zM663 1170h223l-144 184q-27 35 -79 36q-46 0 -77.5 -32t-31.5 -78t31.5 -78t77.5 -32zM1450 1280q0 46 -32 78t-78 32q-51 0 -79 -36l-143 -184h222q46 0 78 32t32 78zM1879 987v-365
q0 -16 -11 -25.5t-30.5 -12t-37 -2.5t-39.5 1.5t-28 1.5v-475q0 -46 -32 -78t-78 -32h-1243q-46 0 -78 32t-32 78v475q-6 0 -28 -1.5t-39 -1.5t-36.5 2.5t-31 12t-11.5 25.5v365q0 15 11 26t26 11h502q-106 0 -181 75t-75 181t75 181t181 75q123 0 192 -88l147 -189l146 189
q69 88 192 88q106 0 181 -75t75 -181t-75 -181t-181 -75h503q15 0 25.5 -11t10.5 -26z" />
    <glyph glyph-name="uniF084" unicode="&#xf084;" 
 />
    <glyph glyph-name="uniF085" unicode="&#xf085;" 
 />
    <glyph glyph-name="uniF086" unicode="&#xf086;" 
 />
    <glyph glyph-name="uniF087" unicode="&#xf087;" 
 />
    <glyph glyph-name="uniF088" unicode="&#xf088;" 
 />
    <glyph glyph-name="uniF089" unicode="&#xf089;" 
 />
    <glyph glyph-name="uniF08A" unicode="&#xf08a;" 
 />
    <glyph glyph-name="uniF08B" unicode="&#xf08b;" 
 />
    <glyph glyph-name="uniF08C" unicode="&#xf08c;" 
 />
    <glyph glyph-name="uniF08D" unicode="&#xf08d;" 
 />
    <glyph glyph-name="uniF08E" unicode="&#xf08e;" horiz-adv-x="2000" 
d="M1996 1178v222h-276l-222 166h-641q-120 0 -167 -111q-24 -55 -24 -111h720l222 -166h112v-887h-112l-222 -167l-720 -1q0 -54 24 -110q47 -110 167 -110h641l222 166h276v222h-110v887h110zM1498 1107q0 27 -24 49q-22 22 -50 22h-804q-37 0 -73 84q-36 82 -72 82h-402
q-27 0 -51 -22q-22 -22 -22 -49v-966q0 -28 22 -50q24 -22 51 -22h1351q28 0 50 22q24 22 24 50v800z" />
    <glyph glyph-name="uniF08F" unicode="&#xf08f;" horiz-adv-x="2000" 
d="M1737 1696h6q62 0 62 -85q0 -16 -25 -103q37 -21 37 -54v-6l-6 -43q-11 0 -74 30q-130 -127 -209 -127h-13l-6 12q92 45 179 140q-55 65 -55 97q34 139 104 139zM1682 1611v-18q10 -24 49 -48h19v6q0 72 -56 72q-12 -2 -12 -12zM1743 1260h7l160 -79v-12
q-93 -170 -99 -170q-50 25 -111 61h-12q-12 0 -68 -128h-6q-25 0 -160 85q0 11 80 164h6l136 -55q32 54 67 134zM853 1241q157 -48 191 -48h49q7 0 87 18v-12q-68 -79 -160 -79q-74 10 -204 55q-32 -6 -61 -6v12q40 60 98 60zM1355 1372q76 0 111 -128q0 -124 -154 -145
q-85 0 -92 109q27 164 135 164zM1263 1263v-43q14 -30 61 -30h62q9 0 19 18v24q-44 67 -87 67h-18q-25 -12 -37 -36zM1069 1053h6v-6q99 -547 99 -776v-48q0 -99 -87 -285h-6q-45 0 -49 18q12 104 12 140v66q0 232 -80 655q0 73 105 236zM1743 890q143 0 247 -382
q12 -80 12 -158v-339q0 -9 -18 -18h-536q-11 0 -31 -97q-202 -297 -364 -297q-129 0 -400 200v6q25 30 25 42h12q121 -85 234 -85q165 0 413 291q24 32 24 67v24q0 58 -98 194q0 28 43 218h6q123 -115 123 -303v-18h475v103q-15 85 -31 85q-80 -103 -179 -103
q-172 16 -172 164v6q0 170 141 363q40 37 74 37zM444 987q203 -87 203 -109q-52 -86 -99 -182h-6q-203 82 -203 109q80 160 105 182zM1651 593v-6q0 -49 49 -49h19q80 21 80 67q-49 54 -56 54h-49q-43 -29 -43 -66zM838 778h6q105 -135 105 -328v-194q0 -290 -197 -363
q-164 -49 -271 -49h-56q-283 30 -283 73q-142 78 -142 230q0 217 197 509q56 -10 56 -36q-136 -218 -136 -327v-43q0 -135 259 -182q1 -6 61 -6h87q224 0 326 146q12 20 12 36v73q-19 88 -92 236q0 28 68 225z" />
    <glyph glyph-name="uniF090" unicode="&#xf090;" horiz-adv-x="2000" 
d="M1804 1560h6q53 -31 53 -81q0 -58 -26 -100q39 -48 39 -69v-19l-6 -31h-20q-48 31 -60 31q-135 -125 -165 -125q-36 -6 -59 -6h-13v6q166 117 185 150q-56 52 -60 94q29 150 126 150zM1738 1479q0 -7 -7 -19q15 -40 53 -56h20v6q0 69 -53 69h-13zM888 1319
q159 -43 198 -43l99 19v-13q-59 -69 -132 -69q-24 0 -198 44l-46 -6l-7 12q41 56 86 56zM1361 1191q99 0 125 -137q-39 -150 -158 -150q-95 0 -106 113q0 140 139 174zM1810 1135q152 -57 152 -81q-66 -108 -66 -119h-13q-125 60 -145 82q61 117 72 118zM1043 1125
q92 -623 92 -856v-25q0 -118 -92 -244h-13q0 13 -7 13l7 12v94q0 226 -80 843q75 163 93 163zM1268 1060v-25q17 -31 53 -31h80q9 0 19 19v25q-54 68 -99 68q-42 0 -53 -56zM1579 1054q35 0 159 -75l-60 -125h-7q-151 55 -151 81q59 108 59 119zM455 800q34 0 145 -69
q0 -10 -59 -125q-34 0 -152 75q0 33 66 119zM1757 779q177 0 232 -368q13 -64 13 -200v-156q0 -38 -40 -38h-482q-11 0 -33 -100q-87 -161 -297 -287q-100 -44 -159 -44h-26q-105 0 -390 106v13q10 25 20 25q169 -32 231 -32h39q225 0 450 250q79 100 79 156v44
q0 113 -139 269q43 137 60 137q158 -125 158 -368h436q0 12 7 12l-7 13v12q0 106 -20 106q-139 -31 -158 -31q-139 0 -159 156v7q0 219 146 306q39 4 39 12zM1665 554v-43q13 -25 39 -38h53q80 11 80 31q-59 106 -126 106q-46 -18 -46 -56zM800 586q83 -75 83 -336v-95
q0 -260 -207 -337q-132 -45 -308 -45h-6q-362 0 -362 258q0 172 142 415h12q12 -2 12 -11v-6q-89 -195 -89 -274v-62q35 -168 231 -168q0 -6 65 -6q375 12 439 202v73q0 125 -83 235q57 157 71 157z" />
    <glyph glyph-name="uniF091" unicode="&#xf091;" horiz-adv-x="2002" 
d="M878 1117l-195 -515q83 -1 175.5 -2t136.5 -1.5t60 -0.5l33 2q-37 109 -105 275q-60 152 -105 242zM73 -146h-24l2 90q25 8 92 21q102 18 125 35q23 18 55 78l271 704l320 827h86h60l13 -24l234 -548q118 -277 142 -340q45 -117 110 -268q30 -66 74 -188q27 -77 74 -170
q25 -56 40 -65q25 -22 79 -27q54 -7 118 -30q7 -45 7 -66q0 -16 -1 -29q-91 0 -220 9q-106 9 -216 9q-90 0 -154 -2l-229 -13l-66 -2q0 51 5 89l149 32q64 15 78 26q14 14 14 31t-7 37l-54 130l-105 261l-514 2q-33 -74 -119 -313q-26 -73 -26 -96q0 -35 19 -49
q30 -24 118 -37q3 0 15 -2.5t34.5 -5.5t46.5 -7q1 -32 1 -66q0 -19 -2 -31q-75 0 -399 23l-55 -9q-93 -16 -191 -16z" />
    <glyph glyph-name="uniF092" unicode="&#xf092;" horiz-adv-x="2002" 
d="M827 17q87 -37 160 -36q150 0 247 46.5t140 129.5q43 80 43 206q0 130 -47 206q-66 107 -161 144q-91 37 -282 37q-85 0 -116 -12v-164l-1 -198l4 -309q-1 -17 13 -50zM811 870q49 -8 125 -8q200 0 301.5 74t101.5 256q0 128 -97 214q-96 86 -291 85q-59 0 -149 -14
q0 -50 2 -88q8 -139 7 -319l-1 -112q0 -49 1 -88zM193 -146l2 107q51 10 78 14q88 14 141 35q19 31 24 59q10 75 10 221l-2 568q-6 293 -11 462q-1 99 -12 125q-1 5 -14 13q-21 14 -79 17q-34 2 -130 15l-5 95l297 7l435 15l51 1q6 0 16 0.5t16 0.5q1 0 24.5 -0.5t46.5 -0.5
h85q101 0 218 -31q49 -15 110 -44q65 -33 116 -87q50 -54 74 -119t24 -140q0 -80 -36.5 -146t-108.5 -120q-30 -23 -171 -88q202 -47 305 -167q105 -121 105 -269q0 -87 -33 -184q-24 -71 -81 -134q-75 -82 -160 -124q-83 -41 -232 -68q-94 -17 -226 -13l-226 5
q-96 2 -340 -13q-38 -3 -311 -12z" />
    <glyph glyph-name="uniF093" unicode="&#xf093;" horiz-adv-x="2002" 
d="M414 -144l19 97q5 1 88 23q87 22 133 45q33 42 47 115l31 159l64 306l13 73q9 50 19.5 96.5t18.5 77t14.5 53t10.5 34.5t4 14l33 179l18 72l25 154l9 57v44q-47 25 -164 32q-32 2 -44 4l22 118l362 -16q45 -2 84 -2q75 0 244 10q38 2 78 5t41 3q-2 -22 -7 -43
q-8 -33 -14 -59q-63 -22 -125 -35q-73 -18 -115 -35q-14 -35 -28 -101q-10 -50 -15 -94q-50 -227 -75 -349l-70 -356l-43 -180l-49 -269l-14 -51q-2 -8 1 -31q73 -17 136 -24q41 -6 75 -12q-1 -33 -8 -66q-8 -35 -10 -47q-21 0 -26 -1q-27 -2 -48 -2q-10 0 -32 3
q-22 5 -166 20l-226 2q-47 1 -199 -13q-85 -8 -112 -10z" />
    <glyph glyph-name="uniF094" unicode="&#xf094;" horiz-adv-x="2002" 
d="M176 1501q-42 2 -52 4l-3 101q15 1 46 1q69 0 128 -5q151 -8 189 -8q98 0 192 4q133 5 167 5q64 0 99 3l-2 -16l3 -73v-11q-69 -10 -142 -10q-69 0 -90 -29q-15 -16 -15 -150q0 -15 0.5 -37.5t0.5 -29.5l1 -261l16 -320q7 -142 58 -231q40 -67 110 -105q101 -54 202 -54
q119 0 219 32q64 21 113 58q55 41 74 73q41 64 61 131q24 83 24 261q0 90 -4 146.5t-12.5 140.5t-15.5 182l-5 67q-6 77 -27 101q-39 40 -88 39l-115 -3l-16 4l3 98h96l234 -11q87 -3 224 11l21 -2q7 -43 6 -58q0 -8 -4 -36q-51 -14 -96 -15q-83 -13 -90 -19
q-17 -17 -18 -47q0 -8 2 -31t2 -35q9 -22 25 -453q7 -223 -17 -347q-17 -87 -47 -140q-43 -74 -128 -140q-86 -65 -208 -102q-125 -38 -291 -38q-191 0 -325 53q-136 54 -205 139q-70 87 -94 223q-18 91 -19 271v381q0 215 -19 243q-29 42 -168 45zM1876 -110v73
q0 16 -10 26.5t-26 10.5h-1682q-16 0 -26.5 -10.5t-10.5 -26.5v-73q0 -16 10.5 -26t26.5 -10h1682q16 0 26 10t10 26z" />
    <glyph glyph-name="uniF095" unicode="&#xf095;" horiz-adv-x="2002" 
d="M1966 731q15 0 25.5 -10t10.5 -26v-73q0 -16 -10.5 -26.5t-25.5 -10.5h-1930q-15 0 -25.5 10.5t-10.5 26.5v73q0 16 10.5 26t25.5 10h1930zM540 805q-32 40 -57 91q-54 111 -54 215q0 207 150 353q148 145 439 145q55 0 186 -22q74 -14 198 -54q11 -43 23 -135
q16 -141 16 -209q0 -21 -5 -52l-14 -3l-94 7l-15 2q-56 170 -116 234q-98 104 -234 104q-127 0 -203 -67q-76 -66 -75 -167q0 -83 74 -160q73 -77 311 -148q78 -23 194 -75q64 -32 106 -59h-830zM1106 512h459q8 -45 8 -105q0 -127 -46 -242q-25 -63 -79 -119
q-41 -40 -121 -93q-89 -55 -172 -75q-89 -24 -226 -24q-127 0 -218 26l-157 46q-63 18 -80 32q-9 9 -10 25v15q0 123 -2 178q-1 34 0 78l2 42v50l115 3q16 -39 33 -81.5t25.5 -64t13.5 -30.5q39 -65 90 -108q48 -41 117 -65q66 -25 148 -25q71 0 154 31q86 30 137 98
q53 70 53 147q0 96 -91 180q-38 33 -153 81z" />
    <glyph glyph-name="uniF096" unicode="&#xf096;" horiz-adv-x="2002" 
d="M93 1608l61 -31q23 -6 241 -6h149l22 4l131 1l246 -1h335l39 -2q16 -1 32 8t24 18l8 9l48 1q17 0 32 -1v-119.5t1 -150.5l1 -114l-1 -66q0 -37 -5 -59q-45 -17 -78 -20q-29 49 -61 146q-9 27 -18 71.5t-13.5 75t-6.5 33.5q-15 17 -31 21q-8 2 -48.5 2.5t-118 -1
t-127.5 -1.5q-39 0 -76 -5q-11 -111 -9 -156l1 -174v-379l3 -410l-1 -168q-1 -53 13 -97q56 -29 101 -37q2 0 20.5 -5.5t50.5 -15t49 -13.5q34 -9 58 -21q6 -51 5 -57q0 -11 -3 -33q-16 -1 -39 -1q-126 0 -214 11q-82 9 -272 9q-101 0 -266 -16q-55 -5 -80 -4q-2 25 -2 29
l-1 30v10q24 38 90 56q159 43 182 58q10 24 13 64q9 219 7 494l-6 490q-1 71 -0.5 135.5t0.5 117t-2 65t-7 16.5q-7 6 -16 7q-43 7 -169 7q-49 0 -114 -15.5t-84 -27.5q-15 -10 -25 -37.5t-25 -86t-27 -96.5q-7 -22 -22.5 -36.5t-23.5 -14.5q-50 31 -64 50v340v98zM1943 146
q38 0 48 -21t-12 -51l-144 -185q-23 -30 -56.5 -30t-55.5 30l-144 185q-23 30 -13 51t48 21h91v1171h-91q-38 0 -48 21t13 51l144 185q23 30 56 29.5t56 -29.5l144 -185q23 -30 12.5 -51t-48.5 -21h-91v-1171h91z" />
    <glyph glyph-name="uniF097" unicode="&#xf097;" horiz-adv-x="2002" 
d="M215 1608l61 -31q23 -6 241 -6h149l22 4l131 1l510 -1h363l39 -2q16 -1 32 8t24 18l8 9l48 1q17 0 32 -1v-119.5t1 -150.5l1 -114l-1 -66q0 -37 -4 -59q-45 -17 -78 -20q-29 49 -62 146q-9 27 -17.5 71.5t-13 75t-6.5 33.5q-15 17 -31 21q-8 2 -67 2.5t-158.5 -1
t-146.5 -1.5q-107 0 -145 -5q-11 -111 -9 -156l1 -174v60l4 -410l-2 -168q-1 -53 13 -98q56 -29 102 -36q2 0 20.5 -6t50.5 -15t49 -13q34 -9 57 -21q6 -51 6 -57q0 -11 -4 -33q-16 -1 -39 -1q-126 0 -213 11q-82 9 -272 9q-94 0 -267 -15q-51 -6 -80 -5q-2 25 -2 29l-1 30
v10q24 38 90 56q159 43 182 57q10 24 14 64q7 157 6 495l-5 51q0 303 -3 317q-2 13 -6 17q-7 6 -16 7q-43 7 -170 7q-57 0 -192.5 -16t-151.5 -27q-15 -10 -25 -37.5t-25 -86t-27 -96.5q-7 -22 -22.5 -36.5t-23.5 -14.5q-50 31 -64 50v340v98zM1842 129q30 -23 30 -56
t-30 -56l-185 -144q-30 -23 -51 -12.5t-21 48.5v91h-1170v-91q0 -38 -21.5 -48.5t-50.5 12.5l-186 144q-30 23 -29.5 56t29.5 56l186 144q30 23 51 12.5t21 -47.5v-92h1170v92q0 38 21 48t51 -13z" />
    <glyph glyph-name="uniF098" unicode="&#xf098;" horiz-adv-x="2002" 
d="M1997 219v-146q0 -30 -21 -51.5t-50 -21.5h-1855q-29 0 -50 21.5t-21 51.5v146q0 30 21 52t50 22h1855q29 0 50 -22t21 -52zM1569 658v-146q0 -30 -21 -51.5t-50 -21.5h-1427q-29 0 -50 21.5t-21 51.5v146q0 30 21 51.5t50 21.5h1427q29 0 50 -21.5t21 -51.5zM1855 1097
v-146q0 -30 -21.5 -51.5t-50.5 -21.5h-1712q-29 0 -50 21.5t-21 51.5v146q0 30 21 51.5t50 21.5h1712q30 0 51 -21.5t21 -51.5zM1427 1536v-146q0 -30 -21.5 -51.5t-50.5 -21.5h-1284q-29 0 -50 21.5t-21 51.5v146q0 30 21 51.5t50 21.5h1284q30 0 51 -21.5t21 -51.5z" />
    <glyph glyph-name="uniF099" unicode="&#xf099;" horiz-adv-x="2002" 
d="M2002 219v-146q0 -30 -21 -51.5t-50 -21.5h-1860q-29 0 -50 21.5t-21 51.5v146q0 30 21 52t50 22h1860q29 0 50 -22t21 -52zM1573 658v-146q0 -30 -21 -51.5t-50 -21.5h-1001q-30 0 -51 21.5t-21 51.5v146q0 30 21 51.5t51 21.5h1001q29 0 50 -21.5t21 -51.5zM1859 1097
v-146q0 -30 -21.5 -51.5t-49.5 -21.5h-1574q-29 0 -50 21.5t-21 51.5v146q0 30 21.5 51.5t49.5 21.5h1574q29 0 50 -21.5t21 -51.5zM1430 1536v-146q0 -30 -21.5 -51.5t-49.5 -21.5h-716q-29 0 -50 21.5t-21 51.5v146q0 30 21.5 51.5t49.5 21.5h716q29 0 50 -21.5t21 -51.5z
" />
    <glyph glyph-name="uniF09A" unicode="&#xf09a;" horiz-adv-x="2002" 
d="M21 271q21 22 50 22h1855q29 0 50 -22t21 -52v-146q0 -30 -21 -51.5t-50 -21.5h-1855q-29 0 -50 21.5t-21 51.5v146q0 30 21 52zM449 709.5q21 21.5 50 21.5h1427q29 0 50 -21.5t21 -51.5v-146q0 -30 -21 -51.5t-50 -21.5h-1427q-29 0 -50 21.5t-21 51.5v146
q0 30 21 51.5zM163 1148.5q21 21.5 51 21.5h1712q29 0 50 -21.5t21 -51.5v-146q0 -30 -21 -51.5t-50 -21.5h-1712q-29 0 -50.5 21.5t-21.5 51.5v146q0 30 21 51.5zM591 1587.5q21 21.5 51 21.5h1284q29 0 50 -21.5t21 -51.5v-146q0 -30 -21 -51.5t-50 -21.5h-1284
q-29 0 -50.5 21.5t-21.5 51.5v146q0 30 21 51.5z" />
    <glyph glyph-name="uniF09B" unicode="&#xf09b;" horiz-adv-x="2002" 
d="M2002 219v-146q0 -30 -21 -51.5t-50 -21.5h-1860q-29 0 -50 21.5t-21 51.5v146q0 30 21 52t50 22h1860q29 0 50 -22t21 -52zM2002 658v-146q0 -30 -21 -51.5t-50 -21.5h-1860q-29 0 -50 21.5t-21 51.5v146q0 30 21 51.5t50 21.5h1860q29 0 50 -21.5t21 -51.5zM2002 1097
v-146q0 -30 -21 -51.5t-50 -21.5h-1860q-29 0 -50 21.5t-21 51.5v146q0 30 21 51.5t50 21.5h1860q29 0 50 -21.5t21 -51.5zM2002 1536v-146q0 -30 -21 -51.5t-50 -21.5h-1860q-29 0 -50 21.5t-21 51.5v146q0 30 21 51.5t50 21.5h1860q29 0 50 -21.5t21 -51.5z" />
    <glyph glyph-name="uniF09C" unicode="&#xf09c;" horiz-adv-x="2002" 
d="M429 141.5q0 -89.5 -62.5 -152t-152 -62.5t-152 62.5t-62.5 152t62.5 152t152 62.5t152 -62.5t62.5 -152zM429 714q0 -90 -62.5 -152.5t-152 -62.5t-152 62.5t-62.5 152.5t62.5 152.5t152 62.5t152 -62.5t62.5 -152.5zM2003 249v-214q0 -15 -10.5 -26t-25.5 -11h-1359
q-14 0 -25 11t-11 26v214q0 15 11 25.5t25 10.5h1359q15 0 25.5 -10.5t10.5 -25.5zM429 1286.5q0 -89.5 -62.5 -152t-152 -62.5t-152 62.5t-62.5 152t62.5 152t152 62.5t152 -62.5t62.5 -152zM2003 821v-214q0 -15 -10.5 -25.5t-25.5 -10.5h-1359q-14 0 -25 10.5t-11 25.5
v214q0 15 11 25.5t25 10.5h1359q15 0 25.5 -10.5t10.5 -25.5zM2003 1393v-214q0 -15 -10.5 -25.5t-25.5 -10.5h-1359q-14 0 -25 10.5t-11 25.5v214q0 15 11 26t25 11h1359q15 0 25.5 -11t10.5 -26z" />
    <glyph glyph-name="uniF09D" unicode="&#xf09d;" horiz-adv-x="2002" 
d="M426 -96q0 -89 -60.5 -141t-151.5 -52q-119 0 -192 74l63 98q55 -50 119 -50q32 0 56 16.5t24 47.5q0 71 -117 63l-29 62q9 11 36.5 48.5t47.5 60.5t42 44v1q-18 0 -54.5 -1.5t-54.5 -1.5v-59h-118v170h371v-98l-105 -129q56 -13 89.5 -55t33.5 -98zM429 605v-178h-405
q-7 40 -7 61q0 57 26.5 104t63 75.5t74 52.5t63 49t25.5 51q0 28 -16 42.5t-43 14.5q-52 0 -91 -64l-95 66q26 57 79.5 89t117.5 32q82 0 138 -46.5t56 -126.5q0 -55 -38 -101.5t-83.5 -72.5t-84 -56.5t-39.5 -58.5h142v67h117zM2004 248v-214q0 -15 -10.5 -25.5
t-25.5 -10.5h-1359q-15 0 -25.5 10.5t-10.5 25.5v214q0 16 10 26t26 10h1359q15 0 25.5 -10.5t10.5 -25.5zM430 1253v-111h-375v111h120q0 46 0.5 136.5t0.5 135.5v14h-2q-9 -19 -56 -61l-79 85l151 142h119v-452h121zM2004 821v-215q0 -14 -10.5 -25t-25.5 -11h-1359
q-15 0 -25.5 11t-10.5 25v215q0 15 10 25.5t26 10.5h1359q15 0 25.5 -11t10.5 -25zM2004 1393v-214q0 -15 -10.5 -26t-25.5 -11h-1359q-15 0 -25.5 11t-10.5 26v214q0 15 10.5 25.5t25.5 10.5h1359q15 0 25.5 -10.5t10.5 -25.5z" />
    <glyph glyph-name="uniF09E" unicode="&#xf09e;" horiz-adv-x="2002" 
d="M429 1134v-659q0 -15 -10.5 -25.5t-25.5 -10.5q-16 0 -25 10l-322 329q-10 10 -10 26.5t10 26.5l322 329q9 10 25 10q15 0 25.5 -10.5t10.5 -25.5zM2002 256v-219q0 -15 -11 -26t-25 -11h-1930q-14 0 -25 11t-11 26v219q0 15 11 26t25 11h1930q14 0 25 -11t11 -26z
M2002 695v-220q0 -15 -11 -25.5t-25 -10.5h-1215q-15 0 -25.5 11t-10.5 25v220q0 15 10.5 25.5t25.5 10.5h1215q14 0 25 -10.5t11 -25.5zM2002 1134v-220q0 -15 -11 -25.5t-25 -10.5h-1215q-15 0 -25.5 10.5t-10.5 25.5v220q0 15 10.5 25.5t25.5 10.5h1215q14 0 25 -10.5
t11 -25.5zM2002 1573v-220q0 -15 -11 -25.5t-25 -10.5h-1930q-14 0 -25 10.5t-11 25.5v220q0 15 11 25.5t25 10.5h1930q14 0 25 -10.5t11 -25.5z" />
    <glyph glyph-name="uniF09F" unicode="&#xf09f;" horiz-adv-x="2002" 
d="M393 805q0 -16 -10 -27l-321 -329q-10 -10 -26 -10q-14 0 -25 11t-11 25v659q0 15 11 25.5t25 10.5q16 0 26 -10l321 -329q10 -10 10 -26zM2002 256v-219q0 -15 -11 -26t-25 -11h-1930q-14 0 -25 11t-11 26v219q0 15 11 26t25 11h1930q14 0 25 -11t11 -26zM2002 695v-220
q0 -15 -11 -25.5t-25 -10.5h-1215q-15 0 -25.5 11t-10.5 25v220q0 15 10.5 25.5t25.5 10.5h1215q14 0 25 -10.5t11 -25.5zM2002 1134v-220q0 -15 -11 -25.5t-25 -10.5h-1215q-15 0 -25.5 10.5t-10.5 25.5v220q0 15 10.5 25.5t25.5 10.5h1215q14 0 25 -10.5t11 -25.5z
M2002 1573v-220q0 -15 -11 -25.5t-25 -10.5h-1930q-14 0 -25 10.5t-11 25.5v220q0 15 11 25.5t25 10.5h1930q14 0 25 -10.5t11 -25.5z" />
    <glyph glyph-name="uniF0A0" unicode="&#xf0a0;" horiz-adv-x="2002" 
d="M1496 -260h-100v1722h-228v-1722h-100v819q-64 -18 -146 -18q-216 0 -317.5 125t-101.5 376q0 260 109 387t341 127h543v-1816z" />
    <glyph glyph-name="uniF0A1" unicode="&#xf0a1;" horiz-adv-x="2002" 
d="M503 1556h543q232 0 341 -127t109 -387q0 -251 -101.5 -376t-317.5 -125q-82 0 -146 18v-819h-100v1722h-228v-1722h-100v1816z" />
    <glyph glyph-name="uniF0A2" unicode="&#xf0a2;" horiz-adv-x="2002" 
d="M416 0h1171v878h-476q-46 0 -78 32t-32 77v476h-585v-1463zM1148 1024h341l-341 342v-342zM1733 878v-915q0 -46 -32 -77.5t-78 -31.5h-1243q-46 0 -78 32t-32 77v1536q0 46 32 78t78 32h621q46 0 101 -23t87 -55l466 -466q32 -32 55 -86.5t23 -100.5z" />
    <glyph glyph-name="uniF0A3" unicode="&#xf0a3;" horiz-adv-x="2002" 
d="M416 0h1171v878h-476q-46 0 -78 32t-32 77v476h-585v-1463zM1148 1024h341l-341 342v-342zM1733 878v-915q0 -46 -32 -77.5t-78 -31.5h-1243q-46 0 -78 32t-32 77v1536q0 46 32 78t78 32h621q46 0 101 -23t87 -55l466 -466q32 -32 55 -86.5t23 -100.5zM2000 1500v-200
h-200v-200h-200v200h-200v200h200v200h200v-200h200z" />
    <glyph glyph-name="uniF0A4" unicode="&#xf0a4;" horiz-adv-x="2002" 
d="M1440 402v-73q0 -16 -10 -26t-26 -10h-805q-16 0 -26 10t-10 26v73q0 16 10 26.5t26 10.5h805q16 0 26 -10.5t10 -26.5zM1440 695v-73q0 -16 -10 -26.5t-26 -10.5h-805q-16 0 -26 10.5t-10 26.5v73q0 16 10 26t26 10h805q16 0 26 -10t10 -26zM416 0h1171v878h-476
q-46 0 -78 32t-32 77v476h-585v-1463zM1148 1024h341l-341 342v-342zM1733 878v-915q0 -46 -32 -77.5t-78 -31.5h-1243q-46 0 -78 32t-32 77v1536q0 46 32 78t78 32h621q46 0 101 -23t87 -55l466 -466q32 -32 55 -86.5t23 -100.5z" />
    <glyph glyph-name="uniF0A5" unicode="&#xf0a5;" horiz-adv-x="2002" 
d="M1801 256v805q0 46 -32 77.5t-77 31.5h-805q-46 0 -78 32t-32 78v73q0 46 -32 78t-77 32h-366q-46 0 -78 -32t-32 -78v-1097q0 -46 32 -78t78 -32h1390q46 0 77.5 32t31.5 78zM1948 1061v-805q0 -105 -75.5 -180.5t-180.5 -75.5h-1390q-105 0 -180.5 75.5t-75.5 180.5
v1097q0 105 75.5 180.5t180.5 75.5h366q105 0 180.5 -75.5t75.5 -180.5v-36h768q105 0 180.5 -75.5t75.5 -180.5z" />
    <glyph glyph-name="uniF0A6" unicode="&#xf0a6;" horiz-adv-x="2002" 
d="M2000 1500v-200h-200v-200h-200v200h-200v200h200v200h200v-200h200zM1801 1000h147v-744q0 -105 -75.5 -180.5t-180.5 -75.5h-1390q-105 0 -180.5 75.5t-75.5 180.5v1097q0 105 75.5 180.5t180.5 75.5h366q105 0 180.5 -75.5t75.5 -180.5v-36h376v-147h-413
q-46 0 -78 32t-32 78v73q0 46 -32 78t-77 32h-366q-46 0 -78 -32t-32 -78v-1097q0 -46 32 -78t78 -32h1390q46 0 77.5 32t31.5 78v744z" />
    <glyph glyph-name="uniF0A7" unicode="&#xf0a7;" horiz-adv-x="2002" 
d="M1869 635q0 36 -55 36h-1143q-42 0 -89 -22.5t-75 -54.5l-309 -381q-19 -25 -19 -42q0 -37 56 -37h1142q42 0 90.5 23.5t74.5 55.5l309 381q18 23 18 41zM671 807h807v168q0 42 -29.5 71t-71.5 29h-604q-43 0 -72.5 29.5t-29.5 71.5v67q0 42 -29 71.5t-71 29.5h-336
q-42 0 -71.5 -29.5t-29.5 -71.5v-896l269 331q46 56 121.5 92.5t146.5 36.5zM2004 635q0 -65 -48 -126l-310 -381q-45 -56 -121.5 -92t-147.5 -36h-1142q-96 0 -165.5 69.5t-69.5 165.5v1008q0 96 69.5 165.5t165.5 69.5h336q97 0 166.5 -69.5t69.5 -165.5v-33h570
q96 0 165.5 -69.5t69.5 -165.5v-168h202q57 0 104 -26t71 -75q15 -34 15 -71z" />
    <glyph glyph-name="uniF0A8" unicode="&#xf0a8;" horiz-adv-x="2002" 
d="M564 0h878v439h-878v-439zM1588 0h146v1024q0 16 -11.5 44t-22.5 39l-321 322q-11 11 -39 22.5t-45 11.5v-476q0 -46 -32 -77.5t-77 -31.5h-659q-46 0 -77.5 32t-31.5 77v476h-147v-1463h147v475q0 46 32 78t77 32h951q46 0 78 -32t32 -78v-475zM1149 1061v365
q0 15 -11 26t-26 11h-219q-15 0 -26 -11t-11 -26v-365q0 -15 11 -26t26 -11h219q15 0 26 11t11 26zM1880 1024v-1061q0 -46 -32 -77.5t-77 -31.5h-1536q-46 0 -78 32t-32 77v1536q0 46 32 78t78 32h1060q46 0 101 -23t87 -55l320 -320q32 -32 54.5 -86.5t22.5 -100.5z" />
    <glyph glyph-name="uniF0A9" unicode="&#xf0a9;" horiz-adv-x="1997" 
d="M1893 1278q45 0 76 -31.5t31 -76.5v-1356q0 -45 -31 -76t-76 -31h-1071q-44 0 -75.5 31t-31.5 76v321h-606q-45 0 -76 31.5t-31 76.5v749q0 45 22.5 98t53.5 84l455 456q31 31 84.5 53t97.5 22h465q44 0 75.5 -31t31.5 -75v-366q76 45 142 45h464zM1287 1040l-334 -334
h334v334zM573 1468l-334 -334h334v334zM791 747l352 352v464h-428v-464q0 -45 -31 -76t-75 -31h-465v-713h571v285q0 44 22.5 98t53.5 85zM1858 -150v1284h-429v-463q0 -45 -31 -76t-76 -31h-463v-714h999z" />
    <glyph glyph-name="uniF0AA" unicode="&#xf0aa;" horiz-adv-x="2002" 
d="M927 732q0 30 21.5 51.5t51 21.5t51.5 -21.5t22 -51.5t-22 -51.5t-51.5 -21.5t-51 21.5t-21.5 51.5zM1000 1075l455 579q23 32 64 29q40 -6 58 -40l73 -146q8 -15 8 -33q0 -19 -9 -36l-442 -788l75 -126q5 -9 6 -14q56 16 111 12q88 -8 168.5 -64t140.5 -151
q96 -151 96 -317q0 -155 -89 -254q-96 -103 -236 -90q-87 8 -168.5 64t-141.5 150q-96 151 -96 318q0 95 35 172q-15 10 -25 25l-83 140l-84 -140q-10 -15 -25 -25q35 -78 36 -172q0 -167 -96 -318q-61 -94 -142 -150t-168 -64q-67 -6 -129 17.5t-107 72.5q-90 97 -90 254
q0 166 96 317q59 95 140.5 151t169.5 64q55 5 111 -12q1 5 5 14l76 126l-442 788q-9 16 -10 36q0 18 8 33l74 146q18 34 58 40q41 3 64 -29zM703 297q-48 53 -123.5 24t-134.5 -121q-67 -105 -67 -220q0 -85 41 -129q48 -53 123.5 -24t133.5 121q67 105 68 220q0 84 -41 129
zM1554 200q-58 93 -133.5 121t-123.5 -24q-41 -45 -41 -129q0 -114 67 -220q58 -93 133.5 -121.5t123.5 24.5q41 45 41 129q0 115 -67 220zM853 403l67 110h-13q-41 0 -64 37l-9 16l-54 -90l30 -30q3 -3 12.5 -11t13.5 -14q2 -2 4 -4.5t3 -3.5zM1109 659l37 110l-658 841
l-73 -146l492 -878h129l110 -183l9 10q2 2 7 8q5 5 14 13t13 12l30 30zM1585 1464l-73 146l-467 -594l158 -203q3 -2 8 -15z" />
    <glyph glyph-name="uniF0AB" unicode="&#xf0ab;" horiz-adv-x="2002" 
d="M857 -137h998v712h-464q-45 0 -75.5 31.5t-30.5 75.5v463h-428v-1282zM1142 1466v72q0 14 -10.5 24.5t-24.5 10.5h-785q-14 0 -24.5 -11t-10.5 -24v-72q0 -15 10.5 -25t24.5 -10h785q14 0 24.5 10t10.5 25zM1427 718h333l-333 333v-333zM1997 575v-748q0 -45 -31 -76
t-76 -31h-1069q-45 0 -76 31t-31 76v178h-605q-45 0 -76 31.5t-31 76.5v1496q0 45 31 75.5t76 30.5h1211q45 0 76 -31t31 -75v-365q24 -15 40 -32l454 -454q31 -31 53.5 -84.5t22.5 -98.5zM700 1250h-400v-150h400v150zM700 940h-400v-150h400v150zM700 630h-400v-150h400
v150zM700 320h-400v-150h400v150z" />
    <glyph glyph-name="uniF0AC" unicode="&#xf0ac;" horiz-adv-x="2002" 
d="M1797 1418q19 -47 -16 -80l-563 -563v-848q0 -48 -45 -68q-15 -6 -28 -5q-31 0 -52 21l-292 293q-22 22 -22 51v556l-563 563q-35 33 -16 80q19 45 67 45h1463q48 0 67 -45z" />
    <glyph glyph-name="uniF0AD" unicode="&#xf0ad;" horiz-adv-x="2002" 
d="M169 1530q47 19 80 -16l149 -147q122 115 279 178.5t325 63.5q179 0 341 -69.5t280 -187.5t187.5 -280t69.5 -340.5t-69.5 -340.5t-187.5 -280t-280.5 -187.5t-340.5 -69.5q-204 0 -384 86.5t-304 243.5t-169 357q-3 15 8 30q11 14 29 14h227q26 0 34 -26
q58 -185 212 -299t347 -114q119 0 227 46.5t187 125.5t125 187t46 226.5t-46 226.5t-125 187t-187 125.5t-227 46.5q-230 0 -399 -157l158 -158q35 -34 16 -79t-67 -45h-512q-30 0 -51.5 21.5t-21.5 51.5v512q0 48 44 67z" />
    <glyph glyph-name="uniF0AE" unicode="&#xf0ae;" horiz-adv-x="2002" 
d="M1880 1463v-512q0 -30 -21.5 -51.5t-51.5 -21.5h-512q-48 0 -67 45t16 79l158 158q-169 157 -399 157q-119 0 -227 -46.5t-187 -125.5t-125 -187t-46 -226.5t46 -226.5t125 -187t187 -125.5t227 -46.5q193 0 347 114t212 299q8 26 34 26h227q18 0 29 -14q11 -15 8 -30
q-45 -200 -169 -357t-304 -243.5t-384 -86.5q-178 0 -340.5 69.5t-280.5 187.5t-187.5 280t-69.5 340.5t69.5 340.5t187.5 280t280 187.5t341 69.5q168 0 325 -63.5t279 -178.5l149 147q33 35 80 16q44 -19 44 -67z" />
    <glyph glyph-name="uniF0AF" unicode="&#xf0af;" horiz-adv-x="2002" 
d="M1359 804.5q0 211.5 -150.5 362t-362 150.5t-361.5 -150.5t-150 -362t150 -361.5t361.5 -150t362 150t150.5 361.5zM1944 -146.5q0 -60.5 -43 -103.5t-104 -43q-62 0 -102 44l-392 391q-205 -142 -456 -142q-163 0 -312.5 63.5t-257.5 171.5t-171.5 257t-63.5 312.5
t63.5 312.5t171.5 257t257 171.5t312.5 63.5t312.5 -63.5t257 -171.5t171.5 -257t63.5 -312q0 -251 -142 -456l392 -392q43 -43 43 -103.5z" />
    <glyph glyph-name="uniF0B0" unicode="&#xf0b0;" horiz-adv-x="1901" 
d="M1212 841v-73q0 -15 -10.5 -26t-25.5 -11h-256v-256q0 -15 -11 -25.5t-26 -10.5h-73q-15 0 -26 11t-11 25v256h-256q-15 0 -25.5 11t-10.5 26v73q0 15 11 26t25 11h256v256q0 15 11 25.5t26 10.5h73q15 0 26 -10.5t11 -25.5v-256h256q15 0 25.5 -11t10.5 -26zM1359 804.5
q0 211.5 -150.5 362t-362 150.5t-361.5 -150.5t-150 -362t150 -361.5t361.5 -150t362 150t150.5 361.5zM1944 -146.5q0 -60.5 -43 -103.5t-104 -43q-62 0 -102 44l-392 391q-205 -142 -456 -142q-163 0 -312.5 63.5t-257.5 171.5t-171.5 257t-63.5 312.5t63.5 312.5
t171.5 257t257 171.5t312.5 63.5t312.5 -63.5t257 -171.5t171.5 -257t63.5 -312q0 -251 -142 -456l392 -392q43 -43 43 -103.5z" />
    <glyph glyph-name="uniF0B1" unicode="&#xf0b1;" horiz-adv-x="1901" 
d="M1212 841v-73q0 -15 -10.5 -26t-25.5 -11h-659q-15 0 -25.5 11t-10.5 26v73q0 15 11 26t25 11h659q15 0 25.5 -11t10.5 -26zM1359 804.5q0 211.5 -150.5 362t-362 150.5t-361.5 -150.5t-150 -362t150 -361.5t361.5 -150t362 150t150.5 361.5zM1944 -146.5
q0 -60.5 -43 -103.5t-104 -43q-62 0 -102 44l-392 391q-205 -142 -456 -142q-163 0 -312.5 63.5t-257.5 171.5t-171.5 257t-63.5 312.5t63.5 312.5t171.5 257t257 171.5t312.5 63.5t312.5 -63.5t257 -171.5t171.5 -257t63.5 -312q0 -251 -142 -456l392 -392
q43 -43 43 -103.5z" />
    <glyph glyph-name="uniF0B2" unicode="&#xf0b2;" horiz-adv-x="2002" 
d="M487 0h1024v293h-1024v-293zM487 731h1024v439h-183q-46 0 -78 32t-32 78v183h-731v-732zM1803 658.5q0 29.5 -21.5 51t-51 21.5t-51.5 -21.5t-22 -51t22 -51.5t51.5 -22t51 22t21.5 51.5zM1950 658v-475q0 -15 -11 -26t-26 -11h-256v-183q0 -46 -32 -77.5t-78 -31.5
h-1097q-46 0 -77.5 32t-31.5 77v183h-256q-15 0 -26 11t-11 26v475q0 90 64.5 155t154.5 65h74v621q0 46 32 78t77 32h768q46 0 101 -23t87 -55l173 -173q32 -32 55 -87t23 -101v-292h73q90 0 155 -65t65 -155z" />
    <glyph glyph-name="uniF0B3" unicode="&#xf0b3;" horiz-adv-x="2002" 
d="M665 1026q0 -83 -58 -141.5t-141 -58.5t-141 58.5t-58 141.5t58 141.5t141 58.5t141 -58.5t58 -141.5zM1731 626v-466h-1464v200l332 332l166 -165l533 532zM1830 1359h-1663q-14 0 -24 -10t-10 -24v-1264q0 -14 10 -24t24 -10h1663q14 0 24 10t10 24v1264q0 14 -10 24
t-24 10zM1997 1325v-1264q0 -69 -48.5 -118t-118.5 -49h-1663q-69 0 -118 48.5t-49 118.5v1264q0 68 48.5 117t118.5 49h1663q69 0 118 -49t49 -117z" />
    <glyph glyph-name="uniF0B4" unicode="&#xf0b4;" horiz-adv-x="2002" 
d="M401 -2v133q0 28 -20 47.5t-47 19.5h-134q-27 0 -47 -19.5t-20 -47.5v-133q0 -27 20.5 -47t46.5 -20h134q28 0 47.5 20t19.5 47zM401 399v133q0 28 -20 47.5t-47 19.5h-134q-27 0 -47 -19.5t-20 -47.5v-133q0 -28 20.5 -47.5t46.5 -19.5h134q28 0 47.5 19.5t19.5 47.5z
M401 800v133q0 27 -20 47t-47 20h-134q-27 0 -47 -20t-20 -47v-133q0 -28 20.5 -48t46.5 -20h134q28 0 47.5 20t19.5 48zM1469 -2v534q0 28 -19.5 47.5t-46.5 19.5h-802q-27 0 -47 -19.5t-20 -47.5v-534q0 -27 20 -47t47 -20h802q27 0 46.5 20t19.5 47zM401 1200v134
q0 27 -20 47t-47 20h-134q-27 0 -47 -20.5t-20 -46.5v-134q0 -28 20.5 -47.5t46.5 -19.5h134q28 0 47.5 19.5t19.5 47.5zM1870 -2v133q0 28 -19.5 47.5t-46.5 19.5h-134q-27 0 -47 -19.5t-20 -47.5v-133q0 -27 20 -47t47 -20h134q27 0 46.5 20t19.5 47zM1469 800v534
q0 27 -19.5 47t-46.5 20h-802q-27 0 -47 -20.5t-20 -46.5v-534q0 -28 20 -48t47 -20h802q27 0 46.5 20t19.5 48zM1870 399v133q0 28 -19.5 47.5t-46.5 19.5h-134q-27 0 -47 -19.5t-20 -47.5v-133q0 -28 20 -47.5t47 -19.5h134q27 0 46.5 19.5t19.5 47.5zM1870 800v133
q0 27 -19.5 47t-46.5 20h-134q-27 0 -47 -20t-20 -47v-133q0 -28 20 -48t47 -20h134q27 0 46.5 20t19.5 48zM1870 1200v134q0 27 -19.5 47t-46.5 20h-134q-27 0 -47 -20.5t-20 -46.5v-134q0 -28 20 -47.5t47 -19.5h134q27 0 46.5 19.5t19.5 47.5zM2004 1367v-1403
q0 -68 -49 -117.5t-118 -49.5h-1670q-68 0 -117.5 49.5t-49.5 117.5v1403q0 68 49 117.5t118 49.5h1670q68 0 117.5 -49.5t49.5 -117.5z" />
    <glyph glyph-name="uniF0B5" unicode="&#xf0b5;" horiz-adv-x="2002" 
d="M1997 1576v-1342q0 -60 -44 -106.5t-111.5 -72.5t-134.5 -38.5t-126 -12.5t-125.5 12.5t-134 38.5t-112 72.5t-44.5 107t44.5 107t112 72t134 38t126.5 12.5q136 0 249 -47v644l-999 -284v-849q0 -60 -44 -106.5t-111.5 -73t-134.5 -39t-126 -12.5t-125.5 12.5t-134 39
t-112 73t-44.5 106t44.5 106.5t112 72.5t134 38t125.5 12.5q137 0 250 -46v1159q0 36 25 67t63 43l1083 307q15 5 36 4q52 0 88 -33.5t36 -81.5z" />
    <glyph glyph-name="uniF0B6" unicode="&#xf0b6;" horiz-adv-x="2002" 
d="M617 -7v231q0 17 -10.5 28t-27.5 11h-386q-17 0 -28 -11t-11 -28v-231q0 -17 11 -28t28 -11h386q17 0 27.5 11t10.5 28zM617 456v230q0 17 -10.5 28t-27.5 11h-386q-17 0 -28 -11t-11 -28v-230q0 -17 11 -28t28 -11h386q17 0 27.5 11t10.5 28zM1233 -7v231q0 17 -10.5 28
t-27.5 11h-385q-17 0 -28 -11t-11 -28v-231q0 -17 11 -28t28 -11h385q17 0 27.5 11t10.5 28zM617 918v231q0 17 -10.5 28t-27.5 11h-386q-17 0 -28 -11t-11 -28v-231q0 -16 11 -27.5t28 -11.5h386q17 0 27.5 11.5t10.5 27.5zM1233 456v230q0 17 -10.5 28t-27.5 11h-385
q-17 0 -28 -11t-11 -28v-230q0 -17 11 -28t28 -11h385q17 0 27.5 11t10.5 28zM1850 -7v231q0 17 -10.5 28t-27.5 11h-386q-17 0 -27.5 -11t-10.5 -28v-231q0 -17 10.5 -28t27.5 -11h386q17 0 27.5 11t10.5 28zM1233 918v231q0 17 -10.5 28t-27.5 11h-385q-17 0 -28 -11
t-11 -28v-231q0 -16 11 -27.5t28 -11.5h385q17 0 27.5 11.5t10.5 27.5zM1850 456v230q0 17 -10.5 28t-27.5 11h-386q-17 0 -27.5 -11t-10.5 -28v-230q0 -17 10.5 -28t27.5 -11h386q17 0 27.5 11t10.5 28zM1850 918v231q0 17 -10.5 28t-27.5 11h-386q-17 0 -27.5 -11
t-10.5 -28v-231q0 -16 10.5 -27.5t27.5 -11.5h386q17 0 27.5 11.5t10.5 27.5zM2005 1303v-1310q0 -79 -57 -136t-136 -57h-1619q-79 0 -136 56.5t-57 136.5v1310q0 79 56.5 136t136.5 57h1619q79 0 136 -57t57 -136z" />
    <glyph glyph-name="uniF0B7" unicode="&#xf0b7;" horiz-adv-x="2000" 
d="M153 -84h345v272h-345v-272zM576 -84h383v272h-383v-272zM153 248h345v303h-345v-303zM576 248h383v303h-383v-303zM153 611h345v271h-345v-271zM1035 -84h384v272h-384v-272zM576 611h383v271h-383v-271zM1496 -84h345v272h-345v-272zM1035 248h384v303h-384v-303z
M614 1063v273q0 12 -11.5 20.5t-26.5 8.5h-78q-16 0 -27 -9t-11 -20v-273q0 -12 12 -20.5t26 -8.5h78q16 0 27 8.5t11 20.5zM1496 248h345v303h-345v-303zM1035 611h384v271h-384v-271zM1496 611h345v271h-345v-271zM1535 1063v273q0 12 -12 20.5t-27 8.5h-77q-16 0 -27 -9
t-11 -20v-273q0 -12 11 -20.5t27 -8.5h77q15 0 27 8.5t12 20.5zM1995 1124v-1208q0 -48 -45.5 -84.5t-108.5 -36.5h-1688q-62 0 -107.5 36t-45.5 85v1208q0 49 45.5 85t107.5 36h154v91q0 62 56.5 106t134.5 44h78q79 0 135 -44t56 -106v-91h460v91q0 62 56.5 106t135.5 44
h77q78 0 135 -44t57 -106v-91h153q62 0 108 -36t46 -85z" />
    <glyph glyph-name="uniF0B8" unicode="&#xf0b8;" horiz-adv-x="2000" 
d="M1364 615v-73q0 -15 -10.5 -26t-25.5 -11h-439q-15 0 -26 11t-11 26v512q0 15 11 25.5t26 10.5h73q15 0 26 -10.5t11 -25.5v-403h329q15 0 25.5 -10.5t10.5 -25.5zM1584 651.5q0 118.5 -46.5 226.5t-125 187t-186.5 125.5t-227 46.5t-227 -46.5t-187 -125.5t-125 -187
t-46 -226.5t46 -226.5t125 -187t187 -125.5t227 -46.5t227 46.5t186.5 125.5t125 187t46.5 226.5zM1876 651.5q0 -238.5 -117.5 -440.5t-319 -319.5t-440.5 -117.5t-441 117.5t-319.5 319.5t-117.5 440.5t117.5 440.5t319.5 319.5t441 117.5t440.5 -117.5t319 -319.5
t117.5 -440.5z" />
    <glyph glyph-name="uniF0B9" unicode="&#xf0b9;" horiz-adv-x="2002" 
d="M533 528v-377h-266v377h266zM934 1030v-879h-268v879h268zM1334 779v-628h-267v628h267zM1734 1156v-1005h-267v1005h267zM1867 58v1191q0 13 -10 22.5t-24 9.5h-1666q-14 0 -24 -9.5t-10 -22.5v-1191q0 -13 10 -22.5t24 -9.5h1666q14 0 24 9.5t10 22.5zM2000 1249v-1191
q0 -64 -48.5 -110.5t-118.5 -46.5h-1666q-69 0 -118 46t-49 111v1191q0 64 49 110.5t118 46.5h1666q69 0 118 -46.5t49 -110.5z" />
    <glyph glyph-name="uniF0BA" unicode="&#xf0ba;" horiz-adv-x="2000" 
d="M914 647l602 -604q-59 -59 -127.5 -105.5t-145 -78.5t-159.5 -49t-170 -17q-141 0 -270 43.5t-235 121.5q-78 58 -142.5 133.5t-110.5 164t-71 187.5t-25 204q1 140 44 269t121 235q58 79 133 143.5t163.5 111t187.5 71.5t205 24v-854zM954 690v852q173 0 332 -68
q160 -68 273 -181t181 -272t68 -331h-854zM1084 604h854q0 -87 -17 -170t-49 -159.5t-78.5 -145t-105.5 -127.5z" />
    <glyph glyph-name="uniF0BB" unicode="&#xf0bb;" horiz-adv-x="2048" 
d="M170 -387v1708h172v-1536h1536v-172h-1708zM406 104v21h20v-21h-20zM406 446v21h20v-21h-20zM406 786v23h20v-23h-20zM406 1128v21h20v-21h-20zM426 227q0 32 27 49l395 396q17 26 49 26q31 0 47 -22l60 -60v21h20v-21h-20l170 -170v21h20v-21h-20l20 -22l582 582
q14 14 32 16.5t33.5 -4t26 -20.5t10.5 -33q0 -23 -18 -45l-623 -621q-18 -18 -43 -18q-29 0 -45 22l-143 143h-2v3l-107 104l-369 -369q-9 -9 -20 -12.5t-23 -3.5q-25 0 -42 17t-17 42zM492 104v21h20v-21h-20zM492 446v21h20v-21h-20zM492 786v23h20v-23h-20zM492 1128v21
h20v-21h-20zM575 104v21h23v-21h-23zM575 446v21h23v-21h-23zM575 786v23h23v-23h-23zM575 1128v21h23v-21h-23zM662 18v23h20v-23h-20zM662 -45h20v-21h-20v21zM662 104v21h20v-21h-20zM662 -131h20v-21h-20v21zM662 190v21h20v-21h-20zM662 274v23h20v-23h-20zM662 530v23
h20v-23h-20zM662 616v21h20v-21h-20zM662 702v21h20v-21h-20zM662 786v23h20v-23h-20zM662 872v21h20v-21h-20zM662 958v21h20v-21h-20zM662 1042v23h20v-23h-20zM662 1128v21h20v-21h-20zM662 1214v21h20v-21h-20zM748 104v21h20v-21h-20zM748 786v23h20v-23h-20zM748 1128
v21h20v-21h-20zM831 104v21h23v-21h-23zM831 446v21h23v-21h-23zM831 786v23h23v-23h-23zM831 1128v21h23v-21h-23zM918 104v21h20v-21h-20zM918 446v21h20v-21h-20zM918 786v23h20v-23h-20zM918 1128v21h20v-21h-20zM1004 18v23h20v-23h-20zM1004 -45h20v-21h-20v21z
M1004 104v21h20v-21h-20zM1004 -131h20v-21h-20v21zM1004 190v21h20v-21h-20zM1004 274v23h20v-23h-20zM1004 360v21h20v-21h-20zM1004 702v21h20v-21h-20zM1004 786v23h20v-23h-20zM1004 872v21h20v-21h-20zM1004 958v21h20v-21h-20zM1004 1042v23h20v-23h-20zM1004 1128
v21h20v-21h-20zM1004 1214v21h20v-21h-20zM1087 104v21h23v-21h-23zM1087 786v23h23v-23h-23zM1087 1128v21h23v-21h-23zM1174 104v21h20v-21h-20zM1174 786v23h20v-23h-20zM1174 1128v21h20v-21h-20zM1260 104v21h20v-21h-20zM1260 786v23h20v-23h-20zM1260 1128v21h20v-21
h-20zM1343 18v23h23v-23h-23zM1343 -45h23v-21h-23v21zM1343 104v21h23v-21h-23zM1343 -131h23v-21h-23v21zM1343 190v21h23v-21h-23zM1343 274v23h23v-23h-23zM1343 360v21h23v-21h-23zM1343 616v21h23v-21h-23zM1343 702v21h23v-21h-23zM1343 786v23h23v-23h-23zM1343 872
v21h23v-21h-23zM1343 958v21h23v-21h-23zM1343 1042v23h23v-23h-23zM1343 1128v21h23v-21h-23zM1343 1214v21h23v-21h-23zM1430 104v21h20v-21h-20zM1430 446v21h20v-21h-20zM1430 786v23h20v-23h-20zM1430 1128v21h20v-21h-20zM1516 104v21h20v-21h-20zM1516 446v21h20v-21
h-20zM1516 786v23h20v-23h-20zM1516 1128v21h20v-21h-20zM1599 104v21h23v-21h-23zM1599 446v21h23v-21h-23zM1599 1128v21h23v-21h-23zM1686 18v23h20v-23h-20zM1686 -45h20v-21h-20v21zM1686 104v21h20v-21h-20zM1686 -131h20v-21h-20v21zM1686 190v21h20v-21h-20z
M1686 274v23h20v-23h-20zM1686 360v21h20v-21h-20zM1686 446v21h20v-21h-20zM1686 530v23h20v-23h-20zM1686 616v21h20v-21h-20zM1686 702v21h20v-21h-20zM1686 958v21h20v-21h-20zM1686 1042v23h20v-23h-20zM1686 1128v21h20v-21h-20zM1686 1214v21h20v-21h-20zM1772 104
v21h20v-21h-20zM1772 446v21h20v-21h-20zM1772 786v23h20v-23h-20zM1772 1128v21h20v-21h-20z" />
    <glyph glyph-name="uniF0BC" unicode="&#xf0bc;" horiz-adv-x="2048" 
d="M170 -387v1708h172v-1536h1536v-172h-1708zM406 446v21h20v-21h-20zM406 786v23h20v-23h-20zM406 1128v21h20v-21h-20zM426 -129v356q0 32 27 49l395 396q17 26 49 26q31 0 47 -22l60 -60v21h20v-21h-20l170 -170v21h20v-21h-20l20 -22l582 582q14 14 32 16.5t33.5 -4
t26 -20.5t10.5 -33v-4l-2 -1090h-1450zM492 446v21h20v-21h-20zM492 786v23h20v-23h-20zM492 1128v21h20v-21h-20zM575 446v21h23v-21h-23zM575 786v23h23v-23h-23zM575 1128v21h23v-21h-23zM662 530v23h20v-23h-20zM662 616v21h20v-21h-20zM662 702v21h20v-21h-20zM662 786
v23h20v-23h-20zM662 872v21h20v-21h-20zM662 958v21h20v-21h-20zM662 1042v23h20v-23h-20zM662 1128v21h20v-21h-20zM662 1214v21h20v-21h-20zM748 786v23h20v-23h-20zM748 1128v21h20v-21h-20zM831 786v23h23v-23h-23zM831 1128v21h23v-21h-23zM918 786v23h20v-23h-20z
M918 1128v21h20v-21h-20zM1004 702v21h20v-21h-20zM1004 786v23h20v-23h-20zM1004 872v21h20v-21h-20zM1004 958v21h20v-21h-20zM1004 1042v23h20v-23h-20zM1004 1128v21h20v-21h-20zM1004 1214v21h20v-21h-20zM1087 786v23h23v-23h-23zM1087 1128v21h23v-21h-23zM1174 786
v23h20v-23h-20zM1174 1128v21h20v-21h-20zM1260 786v23h20v-23h-20zM1260 1128v21h20v-21h-20zM1343 616v21h23v-21h-23zM1343 702v21h23v-21h-23zM1343 786v23h23v-23h-23zM1343 872v21h23v-21h-23zM1343 958v21h23v-21h-23zM1343 1042v23h23v-23h-23zM1343 1128v21h23v-21
h-23zM1343 1214v21h23v-21h-23zM1430 786v23h20v-23h-20zM1430 1128v21h20v-21h-20zM1516 786v23h20v-23h-20zM1516 1128v21h20v-21h-20zM1599 1128v21h23v-21h-23zM1686 958v21h20v-21h-20zM1686 1042v23h20v-23h-20zM1686 1128v21h20v-21h-20zM1686 1214v21h20v-21h-20z
M1772 1128v21h20v-21h-20z" />
    <glyph glyph-name="uniF0BD" unicode="&#xf0bd;" horiz-adv-x="2001" 
d="M443 -68q-134 0 -224.5 90.5t-90.5 224.5q0 154 115 268l886 888q131 129 310 129q182 0 309 -125.5t127 -307.5q0 -181 -130 -312l-692 -691q-11 -11 -25 -12q-18 0 -53 35t-35 53q0 15 11 27l694 692q88 90 88 207q0 121 -86 204.5t-207 83.5q-120 0 -207 -87
l-888 -887q-72 -72 -72 -165q0 -73 48 -121t122 -48q94 0 165 72l664 664q27 30 28 68q0 33 -22 55t-55 22q-37 0 -67 -29l-469 -468q-11 -11 -25 -12q-18 0 -53.5 35.5t-35.5 53.5q0 14 11 25l469 469q70 72 170 72q94 0 159 -65t65 -159q0 -101 -72 -170l-664 -664
q-111 -115 -268 -115z" />
    <glyph glyph-name="uniF0BE" unicode="&#xf0be;" horiz-adv-x="2002" 
d="M562 91q46 0 77 32l238 238q32 32 32 77q0 48 -36 83q-3 -3 -21 -21.5t-25 -25t-22 -17.5t-29 -15t-31 -4q-46 0 -78 32t-32 78q0 17 4 31.5t15 29.5t17 21.5t24.5 24.5t21.5 21q-35 38 -83 38q-46 0 -78 -32l-237 -236q-31 -31 -30 -77q0 -46 29 -78l167 -168
q32 -32 77 -32zM1367 894q46 0 78 32l237 236q32 32 32 78q0 45 -31 77l-167 168q-32 32 -77 32q-46 0 -77 -32l-238 -237q-31 -31 -31 -78q0 -48 36 -82q3 3 20.5 21.5t24.5 24.5t22 17t29 15t32 4q46 0 77.5 -32t31.5 -78q0 -17 -4 -31.5t-14.5 -29t-17 -21.5t-25 -24.5
t-21.5 -21.5q35 -38 83 -38zM562 -128q-137 0 -232 97l-167 168q-95 95 -95 232q0 138 97 233l237 235q95 95 232 95q141 0 239 -100l100 100q-101 98 -100 238q0 137 96 233l237 238q96 96 233.5 96t231.5 -97l167 -168q95 -95 95 -232q0 -138 -97 -234l-237 -235
q-95 -95 -232 -95q-141 0 -238 101l-101 -101q101 -98 101 -238q0 -137 -96 -233l-238 -237q-96 -96 -233 -96z" />
    <glyph glyph-name="uniF0BF" unicode="&#xf0bf;" horiz-adv-x="2002" 
d="M1095 1149q-38 7 -80 7q-75 0 -140 -24q-2 19 -2 38q0 137 96 233l237 238q96 96 233.5 96t231.5 -97l167 -168q95 -95 95 -232q0 -138 -97 -234l-237 -235q-92 -92 -224 -95q21 56 21 121q0 52 -13 98q36 5 62 31l237 236q32 32 32 78q0 45 -31 77l-167 168
q-32 32 -77 32q-46 0 -77 -32l-238 -237q-31 -31 -31 -78q0 -11 2 -21zM908 451q51 -13 107 -13q60 0 114 15v-15q0 -137 -96 -233l-238 -237q-96 -96 -233 -96t-232 97l-167 168q-95 95 -95 232q0 138 97 233l237 235q95 95 232 95q13 0 26 -1q-26 -62 -26 -134
q0 -44 10 -83h-10q-46 0 -78 -32l-237 -236q-31 -31 -30 -77q0 -46 29 -78l167 -168q32 -32 77 -32q46 0 77 32l238 238q32 32 32 77q0 7 -1 13z" />
    <glyph glyph-name="uniF0C0" unicode="&#xf0c0;" horiz-adv-x="2002" 
d="M1572 679v-357q0 -133 -94 -227.5t-227 -94.5h-929q-133 0 -227.5 94.5t-94.5 227.5v929q0 133 94.5 227t227.5 94h786q16 0 25.5 -9.5t9.5 -25.5v-72q0 -16 -9.5 -25.5t-25.5 -9.5h-786q-74 0 -126.5 -53t-52.5 -126v-929q0 -74 52.5 -126.5t126.5 -52.5h929
q73 0 126 52.5t53 126.5v357q0 16 9.5 25.5t25.5 9.5h72q16 0 25.5 -9.5t9.5 -25.5zM2001 1644v-572q0 -29 -21 -50t-50 -21t-51 21l-196 197l-728 -728q-11 -11 -25.5 -11.5t-25.5 11.5l-128 127q-11 10 -11 25t11 26l728 728l-196 197q-22 21 -21.5 50t21.5 50t50 21h572
q29 0 50 -21t21 -50z" />
    <glyph glyph-name="uniF0C1" unicode="&#xf0c1;" horiz-adv-x="2002" 
d="M1572 679v-357q0 -133 -94 -227.5t-227 -94.5h-929q-133 0 -227.5 94.5t-94.5 227.5v929q0 133 94.5 227t227.5 94h786q16 0 25.5 -9.5t9.5 -25.5v-72q0 -16 -9.5 -25.5t-25.5 -9.5h-786q-74 0 -126.5 -53t-52.5 -126v-929q0 -74 52.5 -126.5t126.5 -52.5h929
q73 0 126 52.5t53 126.5v357q0 16 9.5 25.5t25.5 9.5h72q16 0 25.5 -9.5t9.5 -25.5zM545 551v571q0 30 21 51t50.5 21t50.5 -22l197 -196l728 728q10 10 25 10.5t26 -10.5l128 -127q10 -11 10 -25.5t-10 -26.5l-728 -728l196 -197q21 -21 20.5 -50t-21.5 -50t-50 -21h-572
q-29 0 -50 21t-21 51z" />
    <glyph glyph-name="uniF0C2" unicode="&#xf0c2;" horiz-adv-x="2002" 
d="M644 1243.5q0 60.5 -43 103.5t-103.5 43t-103.5 -43t-43 -103.5t43 -103.5t103.5 -43t103.5 43t43 103.5zM1863 585q0 -61 -42 -103l-561 -562q-45 -42 -104 -42q-61 0 -103 42l-817 818q-43 42 -73.5 115.5t-30.5 133.5v476q0 59 43.5 102.5t102.5 43.5h476
q61 0 134 -30t116 -74l817 -816q42 -45 42 -104z" />
    <glyph glyph-name="uniF0C3" unicode="&#xf0c3;" horiz-adv-x="2101" 
d="M494 1196.5q0 58.5 -41.5 100t-100 41.5t-100 -41.5t-41.5 -100t41.5 -100t100 -41.5t100 41.5t41.5 100zM1671 560q0 -58 -41 -99l-541 -542q-44 -41 -100 -41q-59 0 -100 41l-789 789q-41 41 -70.5 112t-29.5 129v459q0 57 42 99t99 42h459q59 0 129.5 -29t112.5 -71
l788 -788q41 -44 41 -101zM2095 560q0 -58 -41 -99l-541 -542q-44 -41 -101 -41q-39 0 -64.5 15.5t-58.5 49.5l518 518q41 41 41 99q0 57 -41 101l-789 788q-41 41 -112 70.5t-129 29.5h247q59 0 129 -29t113 -71l788 -788q41 -44 41 -101z" />
    <glyph glyph-name="uniF0C4" unicode="&#xf0c4;" horiz-adv-x="2002" 
d="M1599 1609q26 0 51 -10q38 -15 60 -47t22 -71v-1473q0 -39 -22.5 -71t-59.5 -47q-22 -9 -51 -9q-55 0 -95 37l-504 484l-504 -484q-41 -38 -94 -38q-26 0 -51 10q-38 15 -60 47t-22 71v1473q0 39 22.5 71t59.5 47q24 10 51 10h1197z" />
    <glyph glyph-name="uniF0C5" unicode="&#xf0c5;" horiz-adv-x="2000" 
d="M765 1267q-97 -96 -97 -235t97 -237q98 -98 236 -98q139 0 237 98t98 237t-98 235q-98 98 -237 98q-138 0 -236 -98zM1230 375h-3q-32 -11 -66 -20q-13 -2 -7 -1q-29 -7 -63 -11q-3 0 -7 -2q-4 0 -6 -1q-40 -4 -77 -4q-36 0 -75 4q-3 1 -7 1q-4 2 -7 2q-34 4 -62 11
q1 -1 -10 1q-32 9 -66 20q2 0 -2 0q-34 13 -68 28v0q-56 -420 -92 -707q-4 -40 4 -48q7 -7 42 -7q44 0 345 254q301 -254 344 -254q34 0 41 7q8 8 3 48q-38 264 -94 707q-34 -17 -67 -28zM1343 523q247 167 268 467h-195q-18 -188 -171 -297zM760 692q-154 109 -173 298
h-195q21 -301 270 -468zM661 1540q-249 -168 -269 -469h195q18 189 172 300zM1611 1071q-18 300 -266 468l-98 -169q152 -111 170 -299h194zM734 481q127 -61 267 -61q142 0 271 63l-98 169q-83 -37 -173 -37q-88 0 -169 36zM1176 1410l97 170q-129 64 -272 64
q-141 0 -269 -63l97 -169q83 37 172 37q91 0 175 -39z" />
    <glyph glyph-name="uniF0C6" unicode="&#xf0c6;" horiz-adv-x="2000" 
d="M1294 1024q0 121 -86 207t-207 86t-206.5 -86t-85.5 -207t85.5 -207t206.5 -86t207 86t86 207zM1586 1024q0 -125 -37 -205l-416 -884q-18 -38 -54.5 -59.5t-77.5 -21.5t-77 21.5t-53 59.5l-417 884q-38 80 -38 205q0 242 171.5 413.5t413.5 171.5t413.5 -171.5
t171.5 -413.5z" />
    <glyph glyph-name="uniF0C7" unicode="&#xf0c7;" horiz-adv-x="2000" 
d="M0 -107l237 551l388 76l377 -76l58 12l-234 545q-17 40 -24.5 77.5t-7.5 74.5q0 157 109 266q111 111 265 111q156 0 266 -111q111 -110 111 -266q0 -34 -7 -70.5t-23 -75.5l-217 -502l79 15l390 -76l237 -551l-513 100l-489 -100l-489 100zM126 -37l399 85l12 59l78 -78
l106 -22l-168 169l15 69l258 -258l104 -22l-349 349l16 68l405 -405v-26l476 97l49 -11l-58 59l-22 105l186 -186l107 -24l-317 317l-22 106l442 -445l35 -6l-36 94l-423 421l-34 8l-102 -20l-115 -267l-94 225l-72 -14v-16l-18 20l-104 20l122 -122v-84l-226 226l-107 22
l333 -333v-82l-390 391l7 34l-317 -70zM982 1153q0 -76 55 -131t131 -55q78 0 132 55q56 54 56 131q0 78 -56 133q-55 56 -132 56t-131 -56q-55 -56 -55 -133zM1525 456l263 -263l-52 134l-103 105z" />
    <glyph glyph-name="uniF0C8" unicode="&#xf0c8;" horiz-adv-x="2000" 
d="M306 1463q0 -82 -73 -126v-1447q0 -15 -11 -25.5t-26 -10.5h-73q-15 0 -26 10.5t-11 25.5v1447q-73 43 -73 126q0 61 43 103.5t103.5 42.5t103.5 -42.5t43 -103.5zM1988 1390v-872q0 -29 -14.5 -44.5t-44.5 -31.5q-246 -133 -422 -132q-70 0 -141.5 25t-124 54.5t-132 55
t-162.5 25.5q-219 0 -530 -167q-19 -10 -38 -10q-30 0 -51.5 21.5t-21.5 51.5v848q0 37 35 63q24 16 90 49q270 137 482 137q122 0 228 -33t250 -101q43 -22 101 -22q62 0 134.5 24t125.5 54t100.5 54t62.5 24q30 0 51.5 -21.5t21.5 -51.5z" />
    <glyph glyph-name="uniF0C9" unicode="&#xf0c9;" horiz-adv-x="2000" 
d="M639 359v-146h-146v146h146zM639 1237v-147h-146v147h146zM1517 1237v-147h-147v147h147zM346 67h439v438h-439v-438zM346 944h439v439h-439v-439zM1224 944h439v439h-439v-439zM931 651v-731h-731v731h731zM1517 66v-146h-147v146h147zM1809 66v-146h-146v146h146z
M1809 651v-438h-439v146h-146v-439h-146v731h439v-146h146v146h146zM931 1529v-731h-731v731h731zM1809 1529v-731h-731v731h731z" />
    <glyph glyph-name="uniF0CA" unicode="&#xf0ca;" horiz-adv-x="2000" 
d="M752 1525v-1609h-71v1609h71zM1576 1525v-1609h-71v1609h71zM1755 1525v-1609h-71v1609h71zM645 1525v-1609h-72v1609h72zM1433 1525v-1609h-287v1609h287zM1003 1525v-1609h-143v1609h143zM502 1525v-1609h-144v1609h144zM2006 1525v-1609h-143v1609h143zM287 1525
v-1609h-287v1609h287z" />
    <glyph glyph-name="uniF0CB" unicode="&#xf0cb;" horiz-adv-x="2000" 
d="M1997 731.5q0 -198.5 -133.5 -367.5t-363 -266.5t-501.5 -97.5q-79 0 -162 9q-221 -200 -512 -276q-55 -16 -128 -26q-19 -2 -34 10.5t-20 33.5v1q-3 5 0 14t2.5 11t5 11t6.5 10.5t8 9.5t9 10q7 9 34 39.5t38.5 43.5t34.5 45t36.5 58.5t30.5 67.5t28 87
q-174 102 -275 251.5t-101 320.5q0 149 79 284.5t213 233.5t319 156t388 58q272 0 501.5 -98t363 -266.5t133.5 -367z" />
    <glyph glyph-name="uniF0CC" unicode="&#xf0cc;" horiz-adv-x="2000" 
d="M1573 878q0 -159 -105 -294t-286.5 -213t-394.5 -78q-96 0 -198 18q-138 -101 -309 -146q-41 -10 -97 -19h-3q-13 0 -23 9.5t-13 23.5q-1 3 -1 7.5t0.5 8t2.5 7t3 5.5t3.5 6t4 6t5 6t4.5 5q6 7 26 28.5t29 33.5t25.5 33t28 44t22.5 50q-139 82 -218 202.5t-79 256.5
q0 159 105 293.5t286.5 213t395 78.5t395 -78.5t286.5 -213t105 -293.5zM2002 585q0 -137 -79 -256.5t-218 -201.5q11 -27 22.5 -50t28 -44.5t25.5 -33.5t29 -33.5t26 -28.5q1 -1 4.5 -5t5 -5.5t4 -5.5t3.5 -6.5t3 -6t2.5 -7t0.5 -7.5t-1 -7q-3 -16 -14.5 -25t-24.5 -8
q-56 8 -97 18q-172 46 -309 146q-101 -18 -198 -18q-303 0 -527 151q65 -5 99 -5q180 0 345 51.5t294 147.5q140 105 215 242.5t75 290.5q0 88 -26 173q144 -81 228 -203t84 -263z" />
    <glyph glyph-name="uniF0CD" unicode="&#xf0cd;" horiz-adv-x="2000" 
d="M1001 1317q-228 0 -426.5 -79.5t-315 -214.5t-116.5 -292q0 -128 80 -244t225 -200l97 -57l-30 -110q-26 -104 -78 -197q170 72 307 196l48 43l63 -7q78 -9 146 -9q228 0 426.5 79.5t315 214.5t116.5 291.5t-116.5 291.5t-315 214.5t-426.5 79.5zM2002 731.5
q0 -198.5 -134 -367.5t-364 -266.5t-503 -97.5q-78 0 -162 9q-221 -200 -513 -276q-55 -16 -129 -26h-4q-17 0 -30.5 12t-18.5 32v1q-3 5 0 14t2.5 11t4.5 11t6 10.5t8 9.5t9 10q8 9 35 39.5t38.5 43.5t34.5 45t36 58.5t30.5 67.5t28.5 87q-175 102 -276 251.5t-101 320.5
q0 199 134 367.5t364 266.5t503 98t503 -98t364 -266.5t134 -367z" />
    <glyph glyph-name="uniF0CE" unicode="&#xf0ce;" horiz-adv-x="2000" 
d="M786.5 1317q-170.5 0 -319 -59.5t-236.5 -161.5t-88 -218q0 -94 59 -181t167 -151l108 -64l-39 -96q38 23 69 45l49 35l60 -11q87 -16 171 -16q171 0 319 59.5t236 161t88 218t-88 218.5t-236.5 161.5t-319 59.5zM786.5 1463q213.5 0 395 -78.5t286.5 -213t105 -293.5
t-105 -294t-286.5 -213t-394.5 -78q-96 0 -198 18q-138 -101 -309 -146q-41 -10 -97 -19h-3q-13 0 -23 9.5t-13 23.5q-1 3 -1 7.5t0.5 8t2.5 7t3 5.5t3.5 6t4 6t5 6t4.5 5q6 7 26 28.5t29 33.5t25.5 33t28 44t22.5 50q-139 82 -218 202.5t-79 256.5q0 159 105 293.5
t286.5 213t395 78.5zM1705 127q11 -27 22.5 -50t28 -44.5t25.5 -33.5t29 -33.5t26 -28.5q1 -1 4.5 -5t5 -5.5t4 -5.5t3.5 -6.5t3 -6t2.5 -7t0.5 -7.5t-1 -7q-3 -16 -14.5 -25t-24.5 -8q-56 8 -97 18q-172 46 -309 146q-101 -18 -198 -18q-303 0 -527 151q65 -5 99 -5
q180 0 345 51.5t294 147.5q140 105 215 242.5t75 290.5q0 88 -26 173q144 -81 228 -203t84 -263q0 -137 -79 -256.5t-218 -201.5z" />
    <glyph glyph-name="uniF0CF" unicode="&#xf0cf;" horiz-adv-x="2000" 
d="M928 658v-439q0 -91 -64 -155t-156 -64h-439q-91 0 -155 64t-64 155v805q0 119 46.5 227t125 187t186.5 125t227 46h73q30 0 51.5 -21.5t21.5 -51.5v-146q0 -30 -21.5 -51.5t-51.5 -21.5h-73q-121 0 -206.5 -86t-85.5 -207v-37q0 -46 32 -77.5t77 -31.5h256
q91 0 155.5 -64.5t64.5 -155.5zM1952 658v-439q0 -91 -64 -155t-156 -64h-439q-91 0 -155 64t-64 155v805q0 119 46.5 227t125 187t186.5 125t227 46h73q30 0 51.5 -21.5t21.5 -51.5v-146q0 -30 -21.5 -51.5t-51.5 -21.5h-73q-121 0 -206.5 -86t-85.5 -207v-37
q0 -46 32 -77.5t77 -31.5h256q91 0 155.5 -64.5t64.5 -155.5z" />
    <glyph glyph-name="uniF0D0" unicode="&#xf0d0;" horiz-adv-x="2000" 
d="M928 1390v-805q0 -119 -46.5 -227t-125.5 -186.5t-187 -125t-226 -46.5h-74q-30 0 -51.5 21.5t-21.5 51.5v146q0 30 22 52t51 22h74q121 0 206.5 85.5t85.5 206.5v37q0 46 -32 77.5t-78 31.5h-256q-91 0 -155 64t-64 156v439q0 91 64 155t155 64h439q91 0 155.5 -64
t64.5 -155zM1952 1390v-805q0 -119 -46.5 -227t-125.5 -186.5t-187 -125t-226 -46.5h-74q-30 0 -51.5 21.5t-21.5 51.5v146q0 30 22 52t51 22h74q121 0 206.5 85.5t85.5 206.5v37q0 46 -32 77.5t-78 31.5h-256q-91 0 -155 64t-64 156v439q0 91 64 155t155 64h439
q91 0 155.5 -64t64.5 -155z" />
    <glyph glyph-name="uniF0D1" unicode="&#xf0d1;" horiz-adv-x="2002" 
d="M1948 549v-659q0 -15 -11 -25.5t-26 -10.5h-1828q-15 0 -26 10.5t-11 25.5v659q0 15 11 25.5t26 10.5h219q15 0 26 -11t11 -25v-403h1316v403q0 15 11 25.5t26 10.5h219q15 0 26 -10.5t11 -25.5zM1582 951q0 -30 -21.5 -51.5t-51.5 -21.5h-293v-512q0 -30 -21.5 -51.5
t-51.5 -21.5h-292q-30 0 -52 21.5t-22 51.5v512h-292q-30 0 -51.5 21.5t-21.5 51.5t21 51l512 512q22 22 52 22t51 -22l512 -512q22 -21 22 -51z" />
    <glyph glyph-name="uniF0D2" unicode="&#xf0d2;" horiz-adv-x="2002" 
d="M1948 549v-659q0 -15 -11 -25.5t-26 -10.5h-1828q-15 0 -26 10.5t-11 25.5v659q0 15 11 25.5t26 10.5h219q15 0 26 -11t11 -25v-403h1316v403q0 15 11 25.5t26 10.5h219q15 0 26 -10.5t11 -25.5zM1560 827l-512 -512q-21 -22 -51 -22t-52 22l-512 512q-21 21 -21 51
t21.5 51.5t51.5 21.5h292v512q0 30 22 51.5t52 21.5h292q30 0 51.5 -21.5t21.5 -51.5v-512h293q30 0 51.5 -21.5t21.5 -51.5t-22 -51z" />
    <glyph glyph-name="uniF0D3" unicode="&#xf0d3;" horiz-adv-x="2000" 
d="M0 473q0 155 90 279q90 123 233 171q29 147 145 243q116 98 270 98q109 0 199.5 -50.5t149.5 -137.5q102 82 230 82q154 0 262 -108q107 -107 107 -261q0 -9 -1 -22.5t-4 -33.5q137 -17 229 -121q92 -103 92 -243q0 -154 -107 -262q-108 -107 -262 -107h-1158
q-198 0 -337 138q-138 139 -138 335zM634 509l370 -369l369 369h-237v420h-263v-420h-239z" />
    <glyph glyph-name="uniF0D4" unicode="&#xf0d4;" horiz-adv-x="2000" 
d="M0 473q0 155 90 279q90 123 233 171q29 147 145 243q116 98 270 98q109 0 199.5 -50.5t149.5 -137.5q102 82 230 82q154 0 262 -108q107 -107 107 -261q0 -9 -1 -22.5t-4 -33.5q137 -17 229 -121q92 -103 92 -243q0 -154 -107 -262q-108 -107 -262 -107h-1158
q-198 0 -337 138q-138 139 -138 335zM873 560v-420h263v420h237l-369 369l-370 -369h239z" />
    <glyph glyph-name="uniF0D5" unicode="&#xf0d5;" horiz-adv-x="2002" 
d="M1474 731.5q0 -29.5 -22 -51.5l-621 -622q-22 -22 -51.5 -21.5t-51.5 22t-22 51.5v329h-512q-30 0 -51.5 21.5t-21.5 51.5v439q0 30 21.5 51.5t51.5 21.5h512v329q0 30 22 51.5t51.5 21.5t51.5 -21l621 -622q22 -22 22 -51.5zM1876 1134v-805q0 -136 -96.5 -232.5
t-232.5 -96.5h-365q-15 0 -26 11t-11 26q0 5 -1 23t-0.5 30t3.5 26.5t11.5 22t23.5 7.5h365q75 0 129 54t54 129v805q0 75 -53.5 129t-129.5 54h-329h-12.5h-15t-13 1t-13 3t-9 6t-8 10.5t-2.5 15.5q0 5 -1 23t-0.5 30t3.5 27t11.5 22.5t23.5 7.5h365q136 0 232.5 -96.5
t96.5 -232.5z" />
    <glyph glyph-name="uniF0D6" unicode="&#xf0d6;" horiz-adv-x="2002" 
d="M833 110q0 -5 1.5 -23t1 -30t-3.5 -27t-11.5 -22.5t-23.5 -7.5h-366q-136 0 -232.5 96.5t-96.5 232.5v805q0 136 96.5 232.5t232.5 96.5h366q15 0 25.5 -11t10.5 -26q0 -5 1.5 -23t1 -30t-3.5 -27t-11.5 -22t-23.5 -7h-366q-75 0 -129 -54t-54 -129v-805q0 -75 54 -129
t129 -54h329h12.5h15t13.5 -1t13 -3.5t9 -6.5t8 -10t2 -15zM1894 731.5q0 -29.5 -22 -51.5l-621 -622q-22 -22 -52 -21.5t-51.5 22t-21.5 51.5v329h-512q-30 0 -51.5 21.5t-21.5 51.5v439q0 30 21.5 51.5t51.5 21.5h512v329q0 30 21.5 51.5t51.5 21.5t52 -21l621 -622
q22 -22 22 -51.5z" />
    <glyph glyph-name="uniF0D7" unicode="&#xf0d7;" horiz-adv-x="2000" 
d="M1696 1030h-567v340q4 121 -29 203t-103 82q-71 0 -112 -33t-45 -69v-31q-11 -133 -62 -244.5t-115.5 -177.5t-133 -113t-109.5 -64.5t-45 -17.5v-1001l59 -8q129 0 205 -25t119 -60.5t100 -70.5t191.5 -60.5t349.5 -25.5q121 0 219 31.5t160.5 78t105.5 125t66.5 145
t35 168t13.5 166t2 161.5q0 247 -92 374t-213 127zM125 -221q51 0 88 37t37 88v997q0 51 -37 88t-88 37t-88 -37t-37 -88v-997q0 -51 37 -88t88 -37z" />
    <glyph glyph-name="uniF0D8" unicode="&#xf0d8;" horiz-adv-x="2000" 
d="M1909 406q92 127 92 374q0 97 -2 161.5t-13.5 166t-35 168t-66.5 145t-105.5 125t-160.5 78t-219 31.5q-215 0 -349.5 -25.5t-191.5 -60.5t-100 -70.5t-119 -60.5t-205 -25l-59 -8v-1001q4 0 45 -17.5t109.5 -64.5t133 -113t115.5 -177.5t62 -244.5v-31q4 -36 45 -69
t112 -33q70 0 103 82t29 203v340h567q121 0 213 127zM0 1405v-997q0 -51 37 -88t88 -37t88 37t37 88v997q0 51 -37 88t-88 37t-88 -37t-37 -88z" />
    <glyph glyph-name="uniF0D9" unicode="&#xf0d9;" horiz-adv-x="2000" 
d="M1363 444l367 355l-506 75l-226 458l-227 -458l-506 -75l366 -355l-87 -505l454 238l452 -238zM1995 872q0 -27 -31 -58l-436 -424l103 -600q1 -8 2 -24q0 -60 -49 -60q-23 0 -48 15l-538 283l-539 -283q-26 -15 -48 -15q-25 0 -37.5 17.5t-12.5 42.5q0 7 2 24l104 600
l-437 424q-30 32 -30 58q0 44 67 55l602 87l270 546q23 49 58.5 49t58.5 -49l270 -546l602 -87q67 -11 67 -55z" />
    <glyph glyph-name="uniF0DA" unicode="&#xf0da;" horiz-adv-x="2000" 
d="M1363 444l367 355l-506 75l-226 458l-227 -458l-506 -75l366 -355l-87 -505l454 238l452 -238zM1995 872q0 -27 -31 -58l-436 -424l103 -600q1 -8 2 -24q0 -60 -49 -60q-23 0 -48 15l-538 283l-539 -283q-26 -15 -48 -15q-25 0 -37.5 17.5t-12.5 42.5q0 7 2 24l104 600
l-437 424q-30 32 -30 58q0 44 67 55l602 87l270 546q23 49 58.5 49t58.5 -49l270 -546l602 -87q67 -11 67 -55zM998 1609v-1605l-539 -283q-26 -15 -48 -15q-25 0 -37.5 17.5t-12.5 42.5q0 7 2 24l104 600l-437 424q-30 32 -30 58q0 44 67 55l602 87l270 546q23 49 59 49z
" />
    <glyph glyph-name="uniF0DB" unicode="&#xf0db;" horiz-adv-x="2000" 
d="M1995 872q0 -27 -31 -58l-436 -424l103 -600q1 -8 2 -24q0 -60 -49 -60q-23 0 -48 15l-538 283l-539 -283q-26 -15 -48 -15q-25 0 -37.5 17.5t-12.5 42.5q0 7 2 24l104 600l-437 424q-30 32 -30 58q0 44 67 55l602 87l270 546q23 49 58.5 49t58.5 -49l270 -546l602 -87
q67 -11 67 -55z" />
    <glyph glyph-name="uniF0DC" unicode="&#xf0dc;" horiz-adv-x="2000" 
d="M0 491v54l676 426v-191l-413 -266l413 -264v-192zM632 -241l569 1510h173l-568 -1510h-174zM1328 58v192l411 264l-411 266v191l674 -426v-54z" />
    <glyph glyph-name="uniF0DD" unicode="&#xf0dd;" horiz-adv-x="2000" 
d="M742 1114q-67 -103 -152 -305q-24 50 -41 80.5t-45.5 70.5t-57 63t-70 39.5t-90.5 16.5h-250q-16 0 -26 10t-10 26v213q0 16 10 26t26 10h250q278 0 456 -250zM1998 223q0 -16 -10 -26l-357 -356q-10 -10 -25 -11q-15 0 -26 10.5t-11 25.5v214q-36 0 -95 -0.5t-90 -1
t-81 1t-79 5t-71.5 11.5t-70.5 21t-64.5 32t-65.5 44.5t-61.5 59.5t-62.5 77q65 104 152 305q25 -50 41.5 -80.5t44.5 -70.5t57 -63t70.5 -39.5t91.5 -16.5h284v214q0 16 10.5 26t26.5 10q13 0 26 -12l356 -355q10 -9 10 -25zM1998 1221.5q0 -15.5 -10 -25.5l-357 -356
q-10 -10 -25 -11q-15 0 -26 10.5t-11 25.5v214h-284q-54 0 -97.5 -17t-77 -50.5t-57 -68.5t-49.5 -86q-36 -69 -88 -191q-32 -73 -55 -123.5t-60 -117t-71.5 -111t-82.5 -93t-100 -76.5t-119 -46.5t-142 -18.5h-250q-16 0 -26 10t-10 26v213q0 16 10 26t26 10h250
q53 0 96.5 17t77 50.5t56.5 68.5t51 86q36 69 87 191q32 73 55 123.5t60 117t71 111.5t82.5 93t100.5 76t119 46.5t143 18.5h284v214q0 16 10.5 26t26.5 10q13 0 26 -12l356 -355q10 -10 10 -25.5z" />
    <glyph glyph-name="uniF0DE" unicode="&#xf0de;" horiz-adv-x="2000" 
d="M593 302q-82 0 -142 60q-75 78 -155.5 52t-102.5 -134q-72 -337 15 -442q33 -44 82 -44l1250 -5q123 0 209.5 84.5t86.5 200.5v786v37q3 195 -49 246q-53 53 -139 19q-146 -63 -360 -22q-14 3 -27 7.5t-16.5 8l-3.5 3.5q0 7 26 26q100 93 100 221q0 124 -91.5 211.5
t-218.5 87.5t-219 -87.5t-92 -209.5t113 -230q14 -12 14 -16q-26 -10 -78 -22q-120 -18 -329 30q-158 38 -198 -8q-139 -138 -75 -456q33 -179 138 -179q49 0 108 60q72 66 154 68t136.5 -50t54.5 -125t-56 -125.5t-135 -52.5z" />
    <glyph glyph-name="uniF0DF" unicode="&#xf0df;" horiz-adv-x="2000" 
d="M593 302q-82 0 -142 60q-75 78 -155.5 52t-102.5 -134q-72 -337 15 -442q33 -44 82 -44l1250 -5q123 0 209.5 84.5t86.5 200.5v786v37q3 195 -49 246q-53 53 -139 19q-146 -63 -360 -22q-14 3 -27 7.5t-16.5 8l-3.5 3.5q0 7 26 26q100 93 100 221q0 124 -91.5 211.5
t-218.5 87.5t-219 -87.5t-92 -209.5t113 -230q14 -12 14 -16q-26 -10 -78 -22q-120 -18 -329 30q-158 38 -198 -8q-139 -138 -75 -456q33 -179 138 -179q49 0 108 60q72 66 154 68t136.5 -50t54.5 -125t-56 -125.5t-135 -52.5zM593 777q-127 0 -239 -108l-19 -19
q-15 26 -27 78q-44 240 38 345q18 0 93 -19q169 -41 270 -41q56 0 105 11q161 26 183 105q18 67 -56 138q-75 67 -75 139q0 75 56 127.5t135 52.5t135 -52.5t56 -127.5t-64 -128q-78 -74 -60 -149q23 -82 143 -105q247 -49 426 26q4 0 7.5 2l3.5 2q11 -26 11 -157v-823
q0 -68 -52.5 -116.5t-122.5 -48.5h-1239q-7 7 -15 24t-6 103.5t28 220.5q8 37 23 45q11 0 33 -27q94 -93 229 -93q127 0 218.5 88t91.5 209.5t-91.5 209.5t-218.5 88z" />
    <glyph glyph-name="uniF0E0" unicode="&#xf0e0;" horiz-adv-x="2000" 
d="M163 352.5q0 15.5 10 26.5l209 251l45 -56l159 -197q10 -13 8 -28t-15 -25q-22 -17 -46 0l-48 39q33 -124 129 -206.5t233 -112.5q12 -1 21 0t21.5 15t12.5 42v797q0 20 -12 32t-24 14l-11 2h-82q-40 0 -68.5 28t-28.5 68t28 68t69 28h82h3q4 1 7.5 2t9 3.5t10 6t8.5 8.5
t6.5 12.5t2.5 16.5v20q-63 28 -101.5 87t-38.5 131q0 97 69 166.5t167 69.5t168 -69.5t70 -166.5q0 -72 -39.5 -131t-102.5 -87v-21q0 -9 2.5 -16t7 -12t9 -8.5t9.5 -5.5t9 -3.5t7 -2.5h4h84q39 0 67.5 -28t28.5 -68q0 -39 -28.5 -67.5t-67.5 -28.5h-84q-5 0 -13 -1.5
t-21.5 -13.5t-13.5 -32v-798q0 -28 12.5 -42t22 -15t21.5 0q137 30 233.5 112.5t129.5 206.5l-48 -39q-13 -10 -27.5 -8t-25.5 13q-17 25 0 48l159 197l44 56l210 -251q10 -13 8.5 -31t-14.5 -29q-12 -10 -28 -10t-27 10l-61 52q-34 -210 -178.5 -366.5t-349.5 -209.5
q-2 -2 -4 -2q-29 -7 -50.5 -26t-28.5 -44q-8 -32 -34 -52.5t-60 -20.5q-33 0 -58.5 20.5t-33.5 52.5q-7 25 -28.5 44t-50.5 26q-3 0 -5 2q-205 53 -349.5 209.5t-178.5 366.5l-60 -52q-13 -11 -31 -9.5t-30 15.5q-10 12 -10 27.5zM881 1425q0 -39 21 -70v10q0 40 28 68
t68 28t68 -27.5t28 -68.5v-10q23 32 23 70q0 48 -35 82t-84 34t-83 -34t-34 -82z" />
    <glyph glyph-name="uniF0E1" unicode="&#xf0e1;" horiz-adv-x="1901" 
d="M1360 1091l335 335l-122 123l-335 -335zM1871 1426q0 -31 -21 -51l-1469 -1470q-21 -21 -52 -20.5t-51 20.5l-227 226q-21 21 -20.5 52t20.5 51l1470 1470q21 21 51.5 21t51.5 -21l226 -226q21 -21 21 -52zM327 1643l112 -34l-112 -34l-34 -112l-35 112l-112 34l112 34
l35 112zM727 1458l224 -68l-224 -69l-69 -224l-68 224l-224 69l224 68l68 224zM1790 912l112 -34l-112 -35l-35 -112l-34 112l-112 35l112 34l34 112zM1058 1643l112 -34l-112 -34l-34 -112l-34 112l-112 34l112 34l34 112z" />
    <glyph glyph-name="uniF0E2" unicode="&#xf0e2;" horiz-adv-x="2000" 
d="M55 -21q-55 -55 -55 -131.5t54.5 -131t131 -54.5t131.5 55l617 613l-266 266zM1591 1124l269 136l141 270l-133 133l-270 -141l-136 -269l-329 -325l133 -133zM1649 408l-9.5 2t-13.5 2q-63 0 -129 -23l-770 770q23 66 23 129q0 4 -2 13.5l-2 9.5q-7 149 -114.5 250.5
t-256.5 101.5q-82 0 -160 -39l250 -246q16 -20 27 -47q28 -74 -27 -133q-39 -35 -90 -35q-19 0 -43 8q-27 11 -47 27l-246 250q-39 -78 -39 -160q0 -149 101.5 -256.5t250.5 -114.5l9.5 -2t13.5 -2q63 0 129 23l770 -770q-23 -66 -23 -129q0 -4 2 -13.5l2 -9.5
q7 -149 114.5 -250.5t256.5 -101.5q82 0 160 39l-250 246q-16 20 -27 47q-28 74 27 133q39 35 90 35q19 0 43 -8q27 -11 47 -27l246 -250q39 78 39 160q0 149 -101.5 256.5t-250.5 114.5z" />
    <glyph glyph-name="uniF0E3" unicode="&#xf0e3;" horiz-adv-x="2000" 
d="M1632 154q19 0 43 -8q27 -12 47 -27l247 -251q39 78 39 161q0 149 -102 256.5t-251 115.5l-10 2t-13 2q-63 0 -130 -24l-773 773q24 67 24 130q0 3 -2 13l-2 10q-8 149 -115.5 251t-256.5 102q-83 0 -161 -39l251 -247q15 -20 27 -47q28 -75 -27 -134q-40 -35 -90 -35
q-20 0 -44 8q-27 12 -47 27l-247 251q-39 -78 -39 -160q0 -150 102 -257.5t251 -115.5l10 -2t14 -2q62 0 129 24l773 -773q-24 -67 -24 -129q0 -4 2 -14l2 -10q8 -149 115.5 -251t257.5 -102q82 0 160 39l-251 247q-15 20 -27 47q-28 75 27 134q40 35 91 35z" />
    <glyph glyph-name="uniF0E4" unicode="&#xf0e4;" horiz-adv-x="2000" 
d="M1000 833q124 0 212 -88t88 -212t-88 -212t-212 -88t-212 88t-88 212t88 212t212 88zM1734 1267q110 0 188 -78.5t78 -188.5v-934q0 -110 -78 -188t-188 -78h-1467q-110 0 -188.5 78t-78.5 188v934q0 110 78 188.5t189 78.5h233l53 141q20 51 72.5 88t108.5 37h533
q56 0 108.5 -37t71.5 -88l54 -141h233zM1000.5 66q192.5 0 329.5 137.5t137 330t-137 329.5t-329.5 137t-330 -137t-137.5 -329.5t137.5 -330t330 -137.5z" />
    <glyph glyph-name="uniF0E5" unicode="&#xf0e5;" horiz-adv-x="2000" 
d="M1981 1333q21 -8 21 -32v-1267q0 -23 -21 -32q-8 -2 -12 -2q-13 0 -24 9l-610 611v-320q0 -124 -88 -212t-212 -88h-735q-124 0 -212 88t-88 212v735q0 124 88 212t212 88h735q124 0 212 -88t88 -212v-321l610 612q16 15 36 7z" />
    <glyph glyph-name="uniF0E6" unicode="&#xf0e6;" horiz-adv-x="2000" 
d="M530 -49l108 108l-279 279l-108 -108v-128h152v-151h127zM1149 1050q0 26 -27 26q-11 0 -19 -8l-641 -642q-9 -9 -9 -20q0 -26 26 -26q12 0 20 8l642 642q8 9 8 20zM1085 1277l492 -492l-985 -985h-492v492zM1893 1163q0 -63 -44 -107l-196 -195l-492 492l196 195
q43 45 107 45q63 0 108 -45l277 -277q44 -47 44 -108z" />
    <glyph glyph-name="uniF0E7" unicode="&#xf0e7;" horiz-adv-x="2000" 
d="M1870 461q0 -6 -1 -8q-74 -314 -313.5 -509t-560.5 -195q-171 0 -331 64t-285 184l-151 -151q-23 -22 -53.5 -22t-52.5 22t-22 52v526q0 30 22 52t53 22h525q31 0 53 -22t22 -52.5t-22 -52.5l-161 -161q83 -77 188.5 -119t219.5 -42q157 0 293 76t217 210q14 18 63 136
q9 27 35 27h224q16 0 27 -10.5t11 -26.5zM1899 1399v-526q0 -30 -22 -52t-53 -22h-525q-31 0 -53 22t-22 52.5t23 52.5l162 161q-173 161 -409 161q-157 0 -293.5 -76t-217.5 -210q-14 -18 -62 -136q-9 -27 -35 -27h-234q-15 0 -25.5 10.5t-10.5 26.5v8q75 314 315 509
t563 195q171 0 332.5 -65t286.5 -183l153 151q23 22 53 22t52 -22t22 -52z" />
    <glyph glyph-name="uniF0E8" unicode="&#xf0e8;" horiz-adv-x="2000" 
d="M889 761v512q0 16 -10.5 26.5t-26.5 10.5t-26.5 -10.5t-10.5 -26.5v-512q0 -16 10.5 -26.5t26.5 -10.5t26.5 10.5t10.5 26.5zM1657 359q0 -30 -22 -51.5t-52 -21.5h-490l-58 -552q-2 -14 -12 -24t-24 -10h-1q-31 0 -36 31l-87 555h-462q-30 0 -51.5 21.5t-21.5 51.5
q0 141 89.5 253t203.5 112v586q-59 0 -103 43t-44 102.5t43.5 103t103.5 43.5h731q59 0 102.5 -43.5t43.5 -103t-43.5 -102.5t-102.5 -43v-586q113 0 203 -112t90 -253z" />
    <glyph glyph-name="uniF0E9" unicode="&#xf0e9;" horiz-adv-x="1901" 
d="M1320 1313h-951q-75 0 -129 -54t-54 -129v-951q0 -75 54 -129t129 -54h951q75 0 129 54t54 129v951q0 75 -54 129t-129 54zM1649 1130v-951q0 -136 -96.5 -232.5t-232.5 -96.5h-951q-136 0 -232.5 96.5t-96.5 232.5v951q0 136 96.5 232.5t232.5 96.5h951
q136 0 232.5 -96.5t96.5 -232.5z" />
    <glyph glyph-name="uniF0EA" unicode="&#xf0ea;" horiz-adv-x="2000" 
d="M1649 543v-364q0 -136 -96.5 -232.5t-232.5 -96.5h-951q-136 0 -232.5 96.5t-96.5 232.5v951q0 136 96.5 232.5t232.5 96.5h951q72 0 134 -28q17 -8 20 -27t-10 -33l-56 -56q-11 -11 -26 -11q-3 0 -11 2q-26 7 -51 7h-951q-75 0 -129 -54t-54 -129v-951q0 -75 54 -129
t129 -54h951q75 0 129 54t54 129v290q0 15 10 26l73 73q11 11 27 11q7 0 13 -3q23 -9 23 -33zM1903 1101l-930 -930q-27 -27 -65 -27t-65 27l-492 492q-27 27 -27 64.5t27 65.5l126 126q27 27 65 27t65 -27l301 -301l739 739q27 27 65 27.5t65 -27.5l126 -125
q27 -27 27 -65.5t-27 -65.5z" />
    <glyph glyph-name="uniF0EB" unicode="&#xf0eb;" horiz-adv-x="2000" 
d="M965 252l132 133l-173 174l-133 -133v-64h110v-110h64zM1467.5 1075q-18.5 18 -37.5 -1l-400 -400q-19 -19 -1 -37.5t38 0.5l400 400q19 20 0.5 38zM1649 396v-217q0 -136 -96.5 -232.5t-232.5 -96.5h-951q-136 0 -232.5 96.5t-96.5 232.5v951q0 136 96.5 232.5
t232.5 96.5h951q72 0 134 -28q17 -8 20 -27t-10 -33l-56 -56q-16 -16 -37 -9q-26 7 -51 7h-951q-75 0 -129 -54t-54 -129v-951q0 -75 54 -129t129 -54h951q75 0 129 54t54 129v144q0 15 10 25l73 73q17 17 40 8t23 -33zM1449 1240l330 -329l-768 -768h-330v329zM1957 1089
l-105 -105l-329 329l105 105q32 32 77.5 32t77.5 -32l174 -174q32 -32 32 -77.5t-32 -77.5z" />
    <glyph glyph-name="uniF0EC" unicode="&#xf0ec;" horiz-adv-x="2000" 
d="M1648 475v-296q0 -136 -96.5 -232.5t-232.5 -96.5h-951q-136 0 -232.5 96.5t-96.5 232.5v951q0 136 96.5 232.5t232.5 96.5h292v0q15 0 25.5 -11t10.5 -25q0 -31 -92 -111q-101 0 -108 1h-128q-75 0 -129 -54t-54 -129v-951q0 -75 54 -129t129 -54h951q75 0 129 54
t54 129v245q0 22 20 33q32 15 62 42q18 18 40 9q24 -10 24 -33zM382 963.5q0 29.5 22 51.5l439 439q21 21 51 21q14 1 29 -5q44 -20 44 -68v-219h183q121 0 224.5 -12.5t182.5 -35t142.5 -55.5t108 -70t78 -84.5t53.5 -93.5t32 -100.5t16 -102.5t4 -104q0 -64 -20 -139.5
t-44 -130.5t-56.5 -114t-45 -78.5t-23.5 -35.5q-12 -14 -30 -14q-5 0 -14 2q-26 13 -23 39q52 383 -84 540q-132 150 -501 150h-183v-219q1 -49 -44 -68q-15 -6 -29 -6q-30 0 -51 22l-439 439q-22 22 -22 51.5z" />
    <glyph glyph-name="uniF0ED" unicode="&#xf0ed;" horiz-adv-x="2000" 
d="M1648 475v-296q0 -136 -96.5 -232.5t-232.5 -96.5h-951q-136 0 -232.5 96.5t-96.5 232.5v951q0 136 96.5 232.5t232.5 96.5h292v0q15 0 25.5 -11t10.5 -25q0 -31 -30 -37q-88 -30 -152 -69q-11 -5 -18 -4h-128q-75 0 -129 -54t-54 -129v-951q0 -75 54 -129t129 -54h951
q75 0 129 54t54 129v245q0 22 20 33q32 15 62 42q18 18 40 9q24 -10 24 -33zM1969 1042l-439 -439q-21 -22 -51 -22q-14 0 -29 6q-45 19 -44 68v219h-183q-369 0 -501 -150q-136 -157 -84 -540q3 -26 -23 -39q-9 -2 -14 -2q-18 0 -30 14q-11 16 -23.5 35.5t-45 78.5
t-56.5 114t-44 130.5t-20 139.5q0 56 4 104t16 102.5t32 100.5t53.5 93.5t78 84.5t108 70t142.5 55.5t182.5 35t224.5 12.5h183v219q0 48 44 68q15 6 29 5q30 0 51 -21l439 -439q22 -22 22 -51.5t-22 -51.5z" />
    <glyph glyph-name="uniF0EE" unicode="&#xf0ee;" horiz-adv-x="2000" 
d="M764 1408q0 64 46 110q45 46 109 46h157q64 0 110 -46t46 -110h389q16 0 30.5 -6t25 -16.5t17 -25t6.5 -30.5q0 -32 -23.5 -54.5t-55.5 -22.5h-1246q-32 0 -55.5 22.5t-23.5 54.5q0 16 6.5 30.5t17 25t24.5 16.5t31 6h389zM451 1175h1093v-1170q0 -65 -46 -110t-111 -45
h-779q-63 0 -111 45q-46 46 -46 110v1170zM608 44q0 -17 11 -28t27 -11q17 0 28 11t11 28v936q0 16 -11.5 27.5t-27.5 11.5t-27 -12t-11 -27v-936zM842 44q0 -17 11 -28t27 -11q17 0 28 11t11 28v936q0 16 -11.5 27.5t-27.5 11.5t-27 -12t-11 -27v-936zM1153 1408
q0 32 -22.5 55.5t-54.5 23.5h-157q-32 0 -54.5 -23.5t-22.5 -55.5h311zM1076 44q0 -17 11 -28t27 -11q17 0 28 11t11 28v936q0 16 -11.5 27.5t-27.5 11.5t-27 -12t-11 -27v-936zM1310 44q0 -17 11 -28t27 -11q17 0 28 11t11 28v936q0 16 -11.5 27.5t-27.5 11.5t-27 -12
t-11 -27v-936z" />
    <glyph glyph-name="uniF0EF" unicode="&#xf0ef;" horiz-adv-x="2000" 
d="M1877 805v-147q0 -230 -112.5 -413.5t-313 -287t-452 -103.5t-452 103.5t-313 287.5t-112.5 413v147q0 30 21.5 51.5t51.5 21.5h439q30 0 51.5 -22t21.5 -51v-147q0 -59 27 -102.5t61 -65t81 -34.5t73.5 -15t50.5 -2t50 2t73 15t81.5 34.5t61 65t26.5 102.5v147
q0 30 22 51.5t51 21.5h439q30 0 51.5 -21.5t21.5 -51.5zM707 1536v-439q0 -30 -21.5 -51.5t-51.5 -21.5h-439q-30 0 -51.5 21.5t-21.5 51.5v439q0 30 21.5 51.5t51.5 21.5h439q30 0 51.5 -21.5t21.5 -51.5zM1877 1536v-439q0 -30 -21.5 -51.5t-51.5 -21.5h-439
q-30 0 -51.5 21.5t-21.5 51.5v439q0 30 22 51.5t51 21.5h439q30 0 51.5 -21.5t21.5 -51.5z" />
    <glyph glyph-name="uniF0F0" unicode="&#xf0f0;" horiz-adv-x="2002" 
d="M69 1593h1868q69 0 69 -69v-1555q0 -69 -69 -69h-1868q-69 0 -69 69v1555q0 69 69 69zM125 1467v-1316h4l181 348h7v-47h62v62h-56q-6 0 -6 7v50q1 6 6 6h56v41q0 13 47 94l536 -317q433 210 521 251q97 -170 97 -182v-15h56q6 -1 6 -7v-50q0 -6 -6 -6h-56v-63h62v25h7
q161 -302 178 -323h54v1442h-1756zM348 1326h25q6 -1 6 -6v-47q0 -6 -6 -6h-50q-6 0 -6 6v22q4 31 31 31zM448 1326h50q7 -1 7 -6v-50q0 -7 -7 -7h-50q-6 0 -6 7v50q1 6 6 6zM574 1326h50q6 -1 6 -6v-50q0 -7 -6 -7h-50q-7 0 -7 7v50q1 6 7 6zM699 1326h50q6 -1 6 -6v-50
q0 -7 -6 -7h-50q-6 0 -6 7v50q1 6 6 6zM824 1326h50q7 -1 7 -6v-50q0 -7 -7 -7h-50q-6 0 -6 7v50q1 6 6 6zM950 1326h50q6 -1 6 -6v-50q0 -7 -6 -7h-50q-7 0 -7 7v50q1 6 7 6zM1075 1326h50q7 -1 7 -6v-50q0 -7 -7 -7h-50q-6 0 -6 7v50q1 6 6 6zM1200 1326h51q6 -1 6 -6v-50
q0 -7 -6 -7h-51q-6 0 -6 7v50q1 6 6 6zM1326 1326h50q6 -1 6 -6v-50q0 -7 -6 -7h-50q-6 0 -6 7v50q1 6 6 6zM1451 1326h50q7 -1 7 -6v-50q0 -7 -7 -7h-50q-6 0 -6 7v50q1 6 6 6zM1577 1326h34q31 -4 31 -31v-25q0 -7 -6 -7h-59q-7 0 -7 7v50q1 6 7 6zM323 1204h50q6 -1 6 -6
v-51q0 -6 -6 -6h-50q-6 0 -6 6v51q1 6 6 6zM1586 1201h50q6 -1 6 -7v-50q0 -6 -6 -6h-50q-6 0 -6 6v50q1 7 6 7zM323 1079h50q6 -1 6 -7v-50q0 -6 -6 -6h-50q-6 0 -6 6v50q1 7 6 7zM1586 1075h50q6 -1 6 -6v-50q0 -6 -6 -6h-50q-6 0 -6 6v50q1 6 6 6zM323 953h50q6 -1 6 -6
v-50q0 -7 -6 -7h-50q-6 0 -6 7v50q1 6 6 6zM1586 950h50q6 -1 6 -6v-50q0 -7 -6 -7h-50q-6 0 -6 7v50q1 6 6 6zM1132 912h18q94 0 135 -112q3 -13 3 -26v-18q0 -94 -113 -135q-12 -3 -25 -3h-18q-94 0 -135 113q-3 12 -3 25v18q0 94 112 135q13 3 26 3zM323 828h50
q6 -1 6 -6v-51q0 -6 -6 -6h-50q-6 0 -6 6v51q1 6 6 6zM1586 825h50q6 -1 6 -7v-50q0 -6 -6 -6h-50q-6 0 -6 6v50q1 7 6 7zM323 702h50q6 -1 6 -6v-50q0 -6 -6 -6h-50q-6 0 -6 6v50q1 6 6 6zM1586 699h50q6 -1 6 -6v-50q0 -6 -6 -6h-50q-6 0 -6 6v50q1 6 6 6zM1586 574h50
q6 -1 6 -6v-51q0 -6 -6 -6h-50q-6 0 -6 6v51q1 6 6 6zM317 389v-63h62v63h-62zM317 264v-63h62v63h-62zM1580 260v-62h62v62h-62zM382 191v-62h63v62h-63zM508 191v-62h62v62h-62zM633 191v-62h63v62h-63zM759 191v-62h62v62h-62zM884 191v-62h63v62h-63zM1009 191v-62h63
v62h-63zM1135 191v-62h62v62h-62zM1260 191v-62h63v62h-63zM1385 191v-62h63v62h-63zM1511 191v-62h62v62h-62z" />
    <glyph glyph-name="uniF0F1" unicode="&#xf0f1;" horiz-adv-x="2000" 
d="M1145 485q0 61 -43 103.5t-103.5 42.5t-103.5 -42.5t-43 -103.5q0 -42 21.5 -76.5t58.5 -53.5l-79 -262q-6 -17 5.5 -32t30.5 -15h219q18 0 29.5 15t5.5 32l-78 262q37 19 58.5 53.5t21.5 76.5zM706 778h585v219q0 121 -86 207t-207 86t-206.5 -86t-85.5 -207v-219z
M1657 668v-658q0 -46 -32 -78t-78 -32h-1097q-46 0 -78 32t-32 78v658q0 46 32 78t78 32h36v219q0 210 151 361t361.5 151t361 -151t150.5 -361v-219h37q46 0 78 -32t32 -78z" />
    <glyph glyph-name="uniF0F2" unicode="&#xf0f2;" horiz-adv-x="2000" 
d="M855 83q0 7 -17.5 65t-40 132t-22.5 75q37 18 58.5 53.5t21.5 76.5q0 61 -43 103.5t-103.5 42.5t-103.5 -42.5t-43 -103.5q0 -41 21.5 -76t58.5 -54q0 -2 -23 -75.5t-40 -131.5t-17 -65q0 -15 11 -26t26 -11h219q15 0 26 11t11 26zM1952 997v-292q0 -30 -22 -52t-51 -22
h-74q-30 0 -51.5 22t-21.5 52v292q0 121 -85.5 207t-206.5 86t-207 -86t-86 -207v-219h110q46 0 78 -32t32 -78v-658q0 -46 -32 -78t-78 -32h-1097q-46 0 -78 32t-32 78v658q0 46 32 78t78 32h768v219q0 211 150 361.5t361.5 150.5t362 -150.5t150.5 -361.5z" />
    <glyph glyph-name="uniF0F3" unicode="&#xf0f3;" horiz-adv-x="2000" 
d="M1292 671.5q0 121.5 -85.5 207t-206.5 85.5t-207 -85.5t-86 -207t86 -207t207 -85.5t206.5 85.5t85.5 207zM1877 796v-254q0 -14 -9 -26.5t-23 -14.5l-211 -32q-22 -62 -45 -104q40 -57 123 -158q11 -14 11 -28.5t-10 -25.5q-31 -42 -113.5 -123.5t-107.5 -81.5
q-14 0 -29 10l-158 124q-50 -26 -104 -44q-18 -155 -33 -212q-8 -32 -41 -32h-254q-16 0 -28 9.5t-13 24.5l-32 210q-56 18 -103 43l-161 -123q-11 -10 -29 -10q-16 0 -28 13q-144 130 -189 192q-8 11 -8 26q0 14 9 26q17 24 58.5 76t61.5 81q-31 57 -47 113l-209 31
q-15 2 -24 14t-9 27v254q0 14 9 26t22 15l212 32q16 53 45 105q-46 65 -122 158q-11 14 -12 27q0 11 11 26q30 41 112.5 123t107.5 82q15 0 30 -12l158 -122q50 26 104 44q18 155 33 212q8 32 41 32h254q16 0 28 -9.5t13 -24.5l32 -210q56 -18 103 -43l162 123q10 10 27 10
q15 0 29 -12q147 -136 188 -194q8 -9 8 -25q0 -14 -9 -26q-17 -24 -58 -76t-62 -81q30 -57 47 -112l209 -32q15 -2 24 -14t9 -27z" />
    <glyph glyph-name="uniF0F4" unicode="&#xf0f4;" horiz-adv-x="2000" 
d="M934 672q0 111 -78 188.5t-188.5 77.5t-188.5 -77.5t-78 -188.5t78 -189t188.5 -78t188.5 78t78 189zM1734 139q0 53 -39.5 93t-94 40t-94 -39.5t-39.5 -93.5q0 -56 39 -94.5t94 -38.5t94.5 38.5t39.5 94.5zM1734 1205q0 54 -39.5 93.5t-94 39.5t-94 -39.5t-39.5 -93.5
q0 -55 39 -94.5t94 -39.5t94.5 39.5t39.5 94.5zM1334 766v-192q0 -10 -7.5 -20t-16.5 -11l-162 -25q-12 -37 -33 -80q36 -50 94 -119q7 -10 7 -21q0 -13 -7 -20q-24 -31 -86 -93t-82 -62q-11 0 -21 7l-121 94q-38 -20 -80 -32q-12 -112 -24 -162q-7 -24 -31 -24h-194
q-11 0 -20.5 7.5t-10.5 18.5l-23 158q-36 10 -79 33l-123 -93q-7 -7 -21 -7q-11 0 -21 8q-151 139 -150 167q0 9 7 20q10 15 42.5 55.5t49.5 62.5q-24 46 -37 86l-158 25q-10 1 -17.5 10t-7.5 20v193q0 10 7.5 20t16.5 11l161 25q12 37 34 79q-36 50 -94 120q-7 12 -7 21
q0 13 7 21q23 31 85 92.5t82 61.5q12 0 22 -7l121 -94q35 19 80 33q12 112 23 160q8 24 31 25h194q12 0 21.5 -7.5t9.5 -18.5l24 -159q36 -10 78 -32l123 93q9 7 21 7t22 -8q151 -139 150 -167q0 -9 -8 -20q-12 -17 -43 -56.5t-47 -62.5q24 -50 36 -85l157 -24q10 -2 18 -11
t8 -21zM2000 211v-145q0 -17 -155 -32q-13 -28 -31 -55q53 -117 53 -143q0 -4 -5 -7q-126 -74 -128 -74q-8 0 -48 48.5t-54 70.5q-21 -1 -31.5 -1t-31.5 1q-15 -22 -54.5 -70.5t-47.5 -48.5q-2 0 -130 74q-4 3 -3 7q0 27 53 143q-19 27 -31 55q-155 15 -155 32v145
q0 17 155 33q13 30 31 54q-53 117 -53 144q0 4 3 7q5 2 37.5 20.5t61.5 35.5t31 17q8 0 47.5 -48t54.5 -70q21 1 31.5 1t31.5 -1q53 73 95 116l7 2q4 0 128 -73q5 -3 5 -7q0 -27 -53 -144q17 -24 31 -54q155 -16 155 -33zM2000 1278v-146q0 -16 -155 -32q-13 -29 -31 -54
q53 -118 53 -144q0 -5 -5 -7q-126 -74 -128 -74q-8 0 -48 48.5t-54 70.5q-21 -2 -31.5 -2t-31.5 2q-15 -22 -54.5 -70.5t-47.5 -48.5q-2 0 -130 74q-4 2 -3 7q0 26 53 144q-19 26 -31 54q-155 15 -155 32v146q0 17 155 32q13 30 31 54q-53 117 -53 144q0 4 3 7q5 2 37.5 21
t61.5 35.5t31 16.5q8 0 47.5 -48.5t54.5 -69.5q21 1 31.5 1t31.5 -1q53 73 95 116l7 2q4 0 128 -73q5 -3 5 -7q0 -27 -53 -144q17 -24 31 -54q155 -15 155 -32z" />
    <glyph glyph-name="uniF0F5" unicode="&#xf0f5;" horiz-adv-x="2000" 
d="M1884 671q0 -178 -69.5 -340t-187 -280t-280 -187.5t-341 -69.5t-340.5 69.5t-280 187.5t-187.5 280t-69.5 340q0 208 92 392t259 309q49 37 109 29t95 -58q37 -48 28.5 -108t-56.5 -96q-112 -85 -173 -207t-61 -261q0 -119 46 -226.5t125 -186.5t187 -125.5t227 -46.5
t227 46.5t186.5 125.5t125 187t46.5 226q0 138 -61 260.5t-173 207.5q-48 37 -57 96.5t28 107.5q35 49 96 57.5t109 -28.5q167 -125 258.5 -309t91.5 -392zM1153 1549v-731q0 -59 -43.5 -103t-103 -44t-103 43.5t-43.5 103.5v731q0 59 43.5 102.5t103 43.5t103 -43.5
t43.5 -102.5z" />
    <glyph glyph-name="uniF0F6" unicode="&#xf0f6;" horiz-adv-x="2000" 
d="M1678 1109q29 -23 11 -51l-837 -1322q-21 -29 -65 -29q-7 0 -22 3q-26 6 -39.5 21.5t-6.5 34.5l305 923l-630 -115q-6 -1 -19 -1q-28 0 -47 12q-29 17 -21 45l313 943q6 16 24.5 26t43.5 10h509q29 0 49 -14t20 -34q0 -9 -7 -20l-266 -530l615 112q12 2 19 3q28 0 51 -17
z" />
    <glyph glyph-name="uniF0F7" unicode="&#xf0f7;" horiz-adv-x="2000" 
d="M0 100v1100h1800v-400h200v-300h-200v-400h-1800zM200 1000v-700h1400v700h-1400zM1400 700h100v-100h-100v-100h-100v100h-100v100h100v100h100v-100zM300 700v-100h300v100h-300z" />
    <glyph glyph-name="uniF0F8" unicode="&#xf0f8;" horiz-adv-x="2000" 
d="M0 100v1100h1800v-400h200v-300h-200v-400h-1800zM897 1000v-700h703v700h-703zM1400 700h100v-100h-100v-100h-100v100h-100v100h100v100h100v-100zM300 700v-100h300v100h-300z" />
    <glyph glyph-name="uniF0F9" unicode="&#xf0f9;" horiz-adv-x="2000" 
d="M8 1096h1780q8 -1 8 -8v-392h192q8 -1 8 -8v-280q0 -8 -8 -8h-192v-392q0 -8 -8 -8h-1780q-8 0 -8 8v1080q1 8 8 8zM1396 700v-92q0 -8 -8 -8h-92v-104h92q8 -1 8 -8v-92h104v92q1 8 8 8h92v104h-92q-8 0 -8 8v92h-104zM196 600v-104h304v104h-304z" />
    <glyph glyph-name="uniF0FA" unicode="&#xf0fa;" horiz-adv-x="2000" 
d="M288 236v-201q0 -15 -10.5 -24t-26.5 -9h-215q-15 0 -25.5 9t-10.5 24v201q0 15 10.5 24t25.5 9h215q16 0 26.5 -9t10.5 -24zM2000 234v-201q0 -15 -10.5 -24t-26.5 -9h-215q-15 0 -25.5 9t-10.5 24v201q0 15 10.5 24t25.5 9h215q16 0 26.5 -9t10.5 -24zM1572 234v-201
q0 -15 -10.5 -24t-26.5 -9h-215q-15 0 -25.5 9t-10.5 24v201q0 15 10.5 24t25.5 9h215q16 0 26.5 -9t10.5 -24zM1144 234v-201q0 -15 -10.5 -24t-26.5 -9h-215q-15 0 -25.5 9t-10.5 24v201q0 15 10.5 24t25.5 9h215q16 0 26.5 -9t10.5 -24zM716 234v-201q0 -15 -10.5 -24
t-26.5 -9h-215q-15 0 -25.5 9t-10.5 24v201q0 15 10.5 24t25.5 9h215q16 0 26.5 -9t10.5 -24z" />
    <glyph glyph-name="uniF0FB" unicode="&#xf0fb;" horiz-adv-x="2000" 
d="M288 236v-201q0 -15 -10.5 -24t-26.5 -9h-215q-15 0 -25.5 9t-10.5 24v201q0 15 10.5 24t25.5 9h215q16 0 26.5 -9t10.5 -24zM718 369v-334q0 -15 -10 -24t-26 -9h-216q-15 0 -25 9t-10 24v334q0 15 10 24.5t25 9.5h216q16 0 26 -9.5t10 -24.5zM1149 637v-602
q0 -15 -10 -24t-26 -9h-216q-15 0 -25 9t-10 24v602q0 15 10 24t25 9h216q16 0 26 -9t10 -24zM1580 1038v-1003q0 -15 -10 -24t-26 -9h-216q-15 0 -25 9t-10 24v1003q0 14 10 23.5t25 9.5h216q16 0 26 -9.5t10 -23.5zM2000 1036v-1003q0 -15 -10 -24t-26 -9h-216
q-15 0 -25 9t-10 24v1003q0 14 10 23.5t25 9.5h216q16 0 26 -9.5t10 -23.5z" />
    <glyph glyph-name="uniF0FC" unicode="&#xf0fc;" horiz-adv-x="2000" 
d="M288 236v-201q0 -15 -10.5 -24t-26.5 -9h-215q-15 0 -25.5 9t-10.5 24v201q0 15 10.5 24t25.5 9h215q16 0 26.5 -9t10.5 -24zM718 369v-334q0 -15 -10 -24t-26 -9h-216q-15 0 -25 9t-10 24v334q0 15 10 24.5t25 9.5h216q16 0 26 -9.5t10 -24.5zM1149 637v-602
q0 -15 -10 -24t-26 -9h-216q-15 0 -25 9t-10 24v602q0 15 10 24t25 9h216q16 0 26 -9t10 -24zM1580 1038v-1003q0 -15 -10 -24t-26 -9h-216q-15 0 -25 9t-10 24v1003q0 14 10 23.5t25 9.5h216q16 0 26 -9.5t10 -23.5zM2011 1573v-1538q0 -15 -10.5 -24t-26.5 -9h-215
q-15 0 -25.5 9t-10.5 24v1538q0 15 10.5 24t25.5 9h215q16 0 26.5 -9t10.5 -24z" />
    <glyph glyph-name="uniF0FD" unicode="&#xf0fd;" horiz-adv-x="2000" 
d="M429 571q0 59 -42 101t-101 42t-101 -42t-42 -101t42 -101t101 -42t101 42t42 101zM644 1071.5q0 59.5 -41.5 101.5t-101.5 42t-101.5 -42t-41.5 -101.5t41.5 -101t101.5 -41.5t101.5 41.5t41.5 101zM1122 534l114 428q6 29 -9 54t-43 32.5t-54 -7.5t-33 -44l-113 -427
q-67 -6 -119.5 -49t-71.5 -110q-22 -86 23 -163t131 -99.5t163.5 22t99.5 130.5q18 68 -7 131.5t-81 101.5zM1861 571q0 59 -42.5 101t-101.5 42t-101 -42t-42 -101t42 -101t101 -42t101.5 42t42.5 101zM1145 1287q0 59 -42 101t-101.5 42t-101 -42t-41.5 -101t41.5 -101
t101 -42t101.5 42t42 101zM1645 1071.5q0 59.5 -41.5 101.5t-101 42t-101 -42t-41.5 -101.5t41.5 -101t101 -41.5t101 41.5t41.5 101zM2003 571q0 -291 -157 -540q-22 -32 -61 -32h-1567q-39 0 -61 32q-157 248 -157 540q0 204 79 389.5t213.5 320t320 213.5t389 79t389 -79
t320 -213.5t213.5 -320t79 -389.5z" />
    <glyph glyph-name="uniF0FE" unicode="&#xf0fe;" horiz-adv-x="2000" 
d="M1800 -253v-73q0 -15 -11 -26t-25 -11h-1536q-15 0 -26 11t-11 26v73q0 15 11 26t26 11h1536q15 0 25.5 -11t10.5 -26zM1508 954q0 -89 -28 -164.5t-73.5 -128.5t-100 -100.5t-109.5 -88.5t-100 -82.5t-73 -93.5t-28 -110q0 -110 76 -256l-4 1l1 -1q-103 47 -183 95
t-158.5 114t-130 140t-82.5 172t-31 210q0 89 28 164.5t73 129t100 101t109.5 88.5t100 82t73.5 93t28 110q0 107 -76 256l4 -1l-2 1q103 -47 183 -94.5t158.5 -114t130 -140t83 -172t31.5 -210.5z" />
    <glyph glyph-name="uniF0FF" unicode="&#xf0ff;" horiz-adv-x="2000" 
d="M996 1702h7q236 0 342 -250q15 -60 15 -106v-8q0 -213 -209 -323v-1275q0 -98 -117 -140h-31q-99 0 -140 118v1286q-224 117 -224 334v8q0 235 250 341q60 15 107 15zM726 1342v-8q0 -160 156 -243q37 -15 38 -22v-1351h76v1407q-143 0 -205 167q-4 47 -4 50
q0 141 159 201q40 7 50 7v61q-178 0 -255 -182q-15 -35 -15 -87z" />
    <glyph glyph-name="uniF100" unicode="&#xf100;" horiz-adv-x="2000" 
d="M1184 758l121 -121l144 144l-122 121zM962 537l121 -122l144 144l-122 121zM740 315l121 -122l144 144l-121 121zM222 -354q92 0 156 66l183 181l-159 161l78 78l159 -159l144 142l-121 121l-17 -15l-78 78l896 896q-21 42 -21 87q0 81 56 137q57 57 138 57q79 0 137 -57
q57 -56 57 -137t-57 -137q-58 -57 -137 -57q-50 0 -96 26l-134 -134l121 -121l66 66q23 -3 43 -3q149 0 254 104q106 107 106 256t-106 255q-105 105 -254 105t-256 -105q-104 -106 -104 -255q0 -20 3 -45l-1215 -1213q-64 -64 -64 -156t64 -156q66 -66 158 -66z" />
    <glyph glyph-name="uniF101" unicode="&#xf101;" horiz-adv-x="2000" 
d="M1867 554v867q0 14 -10 23.5t-24 9.5h-1666q-14 0 -24 -10t-10 -23v-867q0 -14 10 -24t24 -10h1666q14 0 24 10t10 24zM2000 1421v-1134q0 -68 -48.5 -117.5t-118.5 -49.5h-566q0 -38 16.5 -80.5t33.5 -74t17 -44.5q0 -28 -20 -47.5t-47 -19.5h-533q-27 0 -47.5 19.5
t-20.5 47.5q0 14 17 45t34 73t17 81h-567q-69 0 -118 49.5t-49 117.5v1134q0 68 49 117t118 49h1666q69 0 118 -49t49 -117z" />
    <glyph glyph-name="uniF102" unicode="&#xf102;" horiz-adv-x="2000" 
d="M432 267q-68 0 -116.5 48.5t-48.5 116.5v733q0 68 48.5 117t116.5 49h1132q68 0 117 -49t49 -117v-733q0 -68 -49 -116.5t-117 -48.5h-1132zM399 1165v-733q0 -14 10 -23.5t23 -9.5h1132q14 0 23.5 10t9.5 23v733q0 13 -9.5 23t-23.5 10h-1132q-14 0 -23.5 -10t-9.5 -23z
M1830 199h166v-99q0 -42 -48.5 -71t-117.5 -29h-1664q-68 0 -117 29t-49 71v99h166h1664zM1082 100q16 0 16 16.5t-16 16.5h-167q-16 0 -16.5 -16.5t16.5 -16.5h167z" />
    <glyph glyph-name="uniF103" unicode="&#xf103;" horiz-adv-x="2000" 
d="M1071 146.5q0 29.5 -21.5 51t-51 21.5t-51.5 -21.5t-22 -51t22 -51.5t51.5 -22t51 22t21.5 51.5zM1510 329v1097q0 15 -10.5 26t-25.5 11h-951q-15 0 -26 -11t-11 -26v-1097q0 -15 11 -25.5t26 -10.5h951q15 0 25.5 10.5t10.5 25.5zM1657 1426v-1243q0 -75 -54 -129
t-129 -54h-951q-75 0 -129 53.5t-54 129.5v1243q0 75 53.5 129t129.5 54h951q75 0 129 -54t54 -129z" />
    <glyph glyph-name="uniF104" unicode="&#xf104;" horiz-adv-x="2000" 
d="M1090 146.5q0 37.5 -26.5 64.5t-64.5 27t-65 -27t-27 -64.5t27 -64.5t65 -27t64.5 27t26.5 64.5zM1328 329v805q0 15 -11 25.5t-26 10.5h-585q-15 0 -25.5 -10.5t-10.5 -25.5v-805q0 -15 10.5 -25.5t25.5 -10.5h585q15 0 26 10.5t11 25.5zM1109 1298.5q0 18.5 -19 18.5
h-183q-18 0 -18 -18.5t18 -18.5h183q19 0 19 18.5zM1438 1317v-1171q0 -59 -43.5 -102.5t-103.5 -43.5h-585q-59 0 -102.5 43.5t-43.5 102.5v1171q0 59 43.5 102.5t102.5 43.5h585q59 0 103 -43.5t44 -102.5z" />
    <glyph glyph-name="uniF105" unicode="&#xf105;" horiz-adv-x="2000" 
d="M179 812q0 15 1.5 44.5t3.5 73.5q2 43 5.5 84.5t6.5 82.5q4 41 10.5 85.5t15.5 93.5q8 49 18.5 91.5t21.5 78.5q8 27 22 49t36 40q45 36 101 36h166v-414l-166 -81v-661l166 -81v-414h-166q-60 0 -105 38q-22 19 -35 42.5t-21 51.5q-39 160 -60 337.5t-21 375.5v47z
M751 -80v1651h907q67 0 116 -50q50 -48 50 -117v-1318q0 -69 -50 -117q-49 -49 -116 -49h-907zM979 189q-1 -27 13.5 -47t36.5 -29t46.5 -6t42.5 24q21 17 24 41.5t-6 46.5t-29.5 37t-47.5 14q-33 -2 -55.5 -25t-24.5 -56zM979 436q-1 -27 13.5 -47t36.5 -29.5t46.5 -6
t42.5 23.5q21 18 24 43t-6 46.5t-29.5 36.5t-47.5 14q-33 -2 -55.5 -24.5t-24.5 -56.5zM979 683q-1 -27 13.5 -46.5t36.5 -29.5t46.5 -6.5t42.5 23.5q21 19 24 43.5t-6 46.5t-29.5 37t-47.5 14q-33 -2 -55.5 -25t-24.5 -57zM1227 189q-1 -27 13.5 -47t36 -29t46 -6t43.5 24
q20 17 23.5 41.5t-6 46.5t-29.5 37t-47 14q-34 -2 -56.5 -25t-23.5 -56zM1227 436q-1 -27 13.5 -47t36 -29.5t46 -6t43.5 23.5q20 18 23.5 43t-6 46.5t-29.5 36.5t-47 14q-34 -2 -56.5 -24.5t-23.5 -56.5zM1227 683q-1 -27 13.5 -46.5t36 -29.5t46 -6.5t43.5 23.5
q20 19 23.5 43.5t-6 46.5t-29.5 37t-47 14q-34 -2 -56.5 -25t-23.5 -57zM1474 189q-1 -27 13.5 -47t36 -29t46.5 -6t43 24q20 17 23.5 41.5t-5.5 46.5t-29.5 37t-47.5 14q-34 -2 -56 -25t-24 -56zM1474 436q-1 -27 13.5 -47t36 -29.5t46.5 -6t43 23.5q20 18 23.5 43
t-5.5 46.5t-29.5 36.5t-47.5 14q-34 -2 -56 -24.5t-24 -56.5zM1474 683q-1 -27 13.5 -46.5t36 -29.5t46.5 -6.5t43 23.5q20 19 23.5 43.5t-5.5 46.5t-29.5 37t-47.5 14q-34 -2 -56 -25t-24 -57z" />
    <glyph glyph-name="uniF106" unicode="&#xf106;" horiz-adv-x="2000" 
d="M1806 258q0 -32 -12 -84.5t-25 -83.5q-26 -61 -149 -129q-113 -61 -224 -61q-33 0 -64 4t-70 15.5t-57.5 17.5t-67 24.5t-59.5 22.5q-119 42 -212 100q-155 96 -320.5 261.5t-261.5 320.5q-58 93 -100 212q-3 10 -22 59t-25 67.5t-17.5 57.5t-15.5 70t-4 64q0 111 61 224
q68 122 129 149q31 14 83.5 25.5t84.5 11.5q17 0 26 -3q22 -8 65 -92q13 -24 36 -66.5t42 -76.5t38 -65q3 -6 20.5 -30.5t26 -42t8.5 -34.5q0 -25 -34.5 -61.5t-75 -66.5t-75 -64t-34.5 -55q0 -11 6.5 -28t10.5 -25.5t16.5 -28.5t14.5 -23q92 -167 210.5 -285t284.5 -210
q2 -2 22.5 -14.5t29 -16.5t25 -10.5t28.5 -6.5q22 0 55.5 34.5t63.5 75t66.5 75t61.5 34.5q17 0 34.5 -8.5t43 -26t29.5 -20.5q31 -18 65 -37.5t76.5 -43t66.5 -35.5q84 -43 92 -65q3 -9 3 -26z" />
    </font>
</defs>
</svg>
